<?xml version="1.0" encoding="UTF-8"?>
<svg version="1.1" xmlns="http://www.w3.org/2000/svg" width="256" height="256">
<path d="M0 0 C2.1875 1.6875 2.1875 1.6875 3.5234375 3.2890625 C5.78221136 5.18728091 7.09722804 4.93281667 10 4.75 C16.85370531 4.56072616 21.06847568 6.06083985 26.1875 10.6875 C34.7197973 23.57301021 37.66297364 38.04911577 34.97265625 53.203125 C33.97604235 57.62590909 32.70778432 60.94349381 30.1875 64.6875 C29.51460937 65.70070313 28.84171875 66.71390625 28.1484375 67.7578125 C26.71537774 69.89980642 25.26577588 72.03086142 23.796875 74.1484375 C22.00904627 76.4680164 22.00904627 76.4680164 22.1875 78.6875 C23.20328125 79.05101563 24.2190625 79.41453125 25.265625 79.7890625 C46.79532823 87.59249648 60.66649078 96.90957623 70.90625 118.2734375 C72.42899044 121.71453233 73.83456405 125.17661014 75.1875 128.6875 C75.52910156 129.50347656 75.87070313 130.31945312 76.22265625 131.16015625 C78.25923326 136.6825953 78.54898667 142.16847228 78.6875 148 C78.71827637 148.77762695 78.74905273 149.55525391 78.78076172 150.35644531 C78.78166966 154.55296795 78.58722214 156.18919774 75.875 159.5703125 C74.5446875 160.61832031 74.5446875 160.61832031 73.1875 161.6875 C72.5996875 162.16316406 72.011875 162.63882813 71.40625 163.12890625 C53.36274063 174.89819531 25.66197877 176.28525299 4.95556641 172.16845703 C-11.05908976 168.54242155 -24.14042283 159.92405191 -35.8125 148.6875 C-36.4003125 148.14609375 -36.988125 147.6046875 -37.59375 147.046875 C-38.8125 145.6875 -38.8125 145.6875 -38.8125 143.6875 C-41.50738873 146.07507685 -42.85577245 148.53567063 -44.4375 151.75 C-51.38680555 164.70487825 -60.64284951 171.52460784 -74.453125 175.8359375 C-86.38574259 178.86071731 -101.7092305 181.01318833 -113.375 176.1875 C-121.21422221 171.46015993 -124.91061615 161.27667594 -127.3359375 152.87402344 C-128.30885955 148.41014544 -128.28861697 143.80178135 -128.5 139.25 C-128.55994141 138.21294922 -128.61988281 137.17589844 -128.68164062 136.10742188 C-128.72869141 135.10388672 -128.77574219 134.10035156 -128.82421875 133.06640625 C-128.89322388 131.69850952 -128.89322388 131.69850952 -128.96362305 130.30297852 C-128.79598193 127.4016226 -128.02452618 125.31202675 -126.8125 122.6875 C-128.01132813 121.92179687 -128.01132813 121.92179687 -129.234375 121.140625 C-142.18683648 112.56646036 -151.63444177 102.97022093 -159.8125 89.6875 C-160.44027344 88.759375 -161.06804687 87.83125 -161.71484375 86.875 C-166.37764324 79.93501937 -171.20951822 72.15466574 -171.125 63.5 C-169.97403281 57.93889118 -165.26130449 54.73867122 -160.8125 51.6875 C-150.28869834 45.69433803 -138.22798768 42.86888422 -126.4921875 40.30078125 C-123.73338742 39.71480214 -123.73338742 39.71480214 -120.8125 38.6875 C-112.81002093 37.89788157 -104.05398392 39.06675804 -96.8125 42.6875 C-94.73085587 42.93153455 -92.64710025 43.15765939 -90.5625 43.375 C-82.57790081 44.44126635 -76.04859082 47.19042267 -68.8125 50.6875 C-68.67714844 49.89988281 -68.54179688 49.11226562 -68.40234375 48.30078125 C-66.11434848 36.72379921 -61.58647937 24.97007286 -51.8125 17.6875 C-49.96796574 16.61595238 -48.11083197 15.71566219 -46.1640625 14.84375 C-43.14732982 13.36043958 -40.39402185 11.56109274 -37.5625 9.75 C-27.74642417 3.64196672 -11.77880002 -5.49677334 0 0 Z " fill="#82AE30" transform="translate(177.8125,38.3125)"/>
<path d="M0 0 C9.10955647 7.38612687 11.52475523 17.4814568 12.99609375 28.76171875 C14.63258475 44.86398207 11.23661209 60.01593031 0.9609375 72.80078125 C-1.19632797 75.22858327 -3.3958246 77.57444214 -5.6875 79.875 C-6.27015625 80.46023437 -6.8528125 81.04546875 -7.453125 81.6484375 C-8.06414062 82.25558594 -8.06414062 82.25558594 -8.6875 82.875 C-7.16382813 83.23851563 -7.16382813 83.23851563 -5.609375 83.609375 C14.01621368 88.35615135 14.01621368 88.35615135 19.3125 90.875 C19.6425 91.865 19.9725 92.855 20.3125 93.875 C20.9725 94.205 21.6325 94.535 22.3125 94.875 C22.3125 95.535 22.3125 96.195 22.3125 96.875 C22.9725 96.875 23.6325 96.875 24.3125 96.875 C24.3125 97.865 24.3125 98.855 24.3125 99.875 C25.3025 100.205 26.2925 100.535 27.3125 100.875 C26.9825 101.473125 26.6525 102.07125 26.3125 102.6875 C25.10462012 104.92886471 25.10462012 104.92886471 25.3125 107.875 C25.3125 108.535 25.3125 109.195 25.3125 109.875 C22.66791621 111.19729189 20.63488699 110.97177194 17.6875 110.9375 C16.18316406 110.92396484 16.18316406 110.92396484 14.6484375 110.91015625 C13.87757813 110.89855469 13.10671875 110.88695312 12.3125 110.875 C11.9825 109.555 11.6525 108.235 11.3125 106.875 C10.45785156 106.68164062 9.60320312 106.48828125 8.72265625 106.2890625 C7.61792969 106.02867187 6.51320312 105.76828125 5.375 105.5 C4.27285156 105.24476563 3.17070312 104.98953125 2.03515625 104.7265625 C1.13667969 104.44554687 0.23820313 104.16453125 -0.6875 103.875 C-1.93296405 101.38407189 -1.4642578 100.46419267 -0.6875 97.875 C-8.68295086 97.49426424 -15.11878307 98.32591648 -21.75 103.0625 C-22.389375 103.660625 -23.02875 104.25875 -23.6875 104.875 C-20.36733935 106.56880656 -17.02970536 108.22515817 -13.6875 109.875 C-12.57117188 110.43703125 -11.45484375 110.9990625 -10.3046875 111.578125 C-9.17289063 112.12984375 -8.04109375 112.6815625 -6.875 113.25 C-5.81667969 113.77335937 -4.75835937 114.29671875 -3.66796875 114.8359375 C-0.38501437 115.98045371 1.06166907 115.98988599 4.3125 114.875 C5.3025 114.215 6.2925 113.555 7.3125 112.875 C9.96816047 112.62151853 12.46840467 112.49443369 15.125 112.5 C16.25373535 112.50132935 16.25373535 112.50132935 17.40527344 112.50268555 C26.67423428 112.69505652 35.45318673 114.79555494 43.3125 119.875 C39.23372411 121.23459196 37.41357458 120.0215 33.4375 118.5 C27.15578716 116.11268238 21.97361107 114.7300007 15.25 114.6875 C14.22777344 114.67332031 13.20554688 114.65914063 12.15234375 114.64453125 C9.33206841 114.87341192 7.7069664 115.42224221 5.3125 116.875 C5.3125 117.535 5.3125 118.195 5.3125 118.875 C6.22773438 119.34550781 7.14296875 119.81601563 8.0859375 120.30078125 C9.28666738 120.92928829 10.4871768 121.55821663 11.6875 122.1875 C12.29078125 122.49623047 12.8940625 122.80496094 13.515625 123.12304688 C16.69508325 124.80109428 18.27787552 125.82306328 20.3125 128.875 C16.36757719 127.61198667 12.59555272 126.1866603 8.8203125 124.484375 C7.79421875 124.02514648 6.768125 123.56591797 5.7109375 123.09277344 C4.63070312 122.6084082 3.55046875 122.12404297 2.4375 121.625 C-12.68313863 114.93602483 -27.48472886 109.40746568 -43.52539062 105.32128906 C-44.56759766 105.04639648 -45.60980469 104.77150391 -46.68359375 104.48828125 C-47.62388428 104.24891846 -48.5641748 104.00955566 -49.53295898 103.76293945 C-50.24395752 103.46991943 -50.95495605 103.17689941 -51.6875 102.875 C-52.0175 101.885 -52.3475 100.895 -52.6875 99.875 C-48.76141836 99.68348382 -45.68025245 100.15395351 -41.9375 101.2734375 C-32.60329344 104.16060547 -32.60329344 104.16060547 -23.4375 102.734375 C-21.66989571 101.15428116 -21.66989571 101.15428116 -20.11328125 99.41015625 C-15.93205286 94.90817609 -8.43323538 95.30649791 -2.6875 94.875 C-3.47125 94.771875 -4.255 94.66875 -5.0625 94.5625 C-7.6875 93.875 -7.6875 93.875 -9.6875 90.875 C-11.71637311 90.46019893 -11.71637311 90.46019893 -14.0390625 90.58203125 C-15.31523437 90.5965332 -15.31523437 90.5965332 -16.6171875 90.61132812 C-17.50664062 90.63646484 -18.39609375 90.66160156 -19.3125 90.6875 C-20.2096875 90.70103516 -21.106875 90.71457031 -22.03125 90.72851562 C-24.25025471 90.76392527 -26.46895176 90.81773346 -28.6875 90.875 C-28.6875 84.935 -28.6875 78.995 -28.6875 72.875 C-32.6475 71.885 -32.6475 71.885 -36.6875 70.875 C-36.6875 70.545 -36.6875 70.215 -36.6875 69.875 C-34.3775 69.875 -32.0675 69.875 -29.6875 69.875 C-29.72875 68.823125 -29.77 67.77125 -29.8125 66.6875 C-29.64005899 61.42804928 -28.77645349 59.04562501 -25.1875 55.1875 C-24.3625 54.424375 -23.5375 53.66125 -22.6875 52.875 C-21.6975 51.885 -21.6975 51.885 -20.6875 50.875 C-24.3175 50.215 -27.9475 49.555 -31.6875 48.875 C-35.1525 55.805 -35.1525 55.805 -38.6875 62.875 C-39.3475 62.215 -40.0075 61.555 -40.6875 60.875 C-40.35781663 57.90784967 -39.57482445 55.61745587 -38.375 52.875 C-38.0346875 51.39 -38.0346875 51.39 -37.6875 49.875 C-38.285625 49.153125 -38.88375 48.43125 -39.5 47.6875 C-42.77573549 43.47584009 -42.50525831 39.07800025 -42.6875 33.875 C-41.6105825 45.08861716 -41.6105825 45.08861716 -44.17578125 49.34375 C-45.41334992 50.67612206 -46.68929509 51.97404963 -48.00390625 53.23046875 C-50.05411656 55.23311037 -50.83543161 57.1638733 -51.6875 59.875 C-52.3475 60.865 -53.0075 61.855 -53.6875 62.875 C-52.800625 62.524375 -51.91375 62.17375 -51 61.8125 C-47.62546874 60.85744398 -45.99063848 60.90348868 -42.6875 61.875 C-42.4709375 63.298125 -42.4709375 63.298125 -42.25 64.75 C-41.85814601 67.7684494 -41.85814601 67.7684494 -40.6875 69.875 C-41.780625 70.24625 -42.87375 70.6175 -44 71 C-47.23338489 72.3548799 -47.67326455 72.85158038 -49.625 76.0625 C-49.975625 76.990625 -50.32625 77.91875 -50.6875 78.875 C-45.87319279 79.44138908 -43.48442186 77.70061627 -39.6875 74.875 C-39.3996974 77.92570757 -39.24551351 80.83499538 -39.6875 83.875 C-42.51994597 86.40123559 -43.90314776 86.875 -47.6875 86.875 C-47.3575 85.225 -47.0275 83.575 -46.6875 81.875 C-48.6675 81.875 -50.6475 81.875 -52.6875 81.875 C-52.873125 83.298125 -52.873125 83.298125 -53.0625 84.75 C-53.27016825 86.1251006 -53.47859101 87.50008734 -53.6875 88.875 C-53.79835938 89.72835937 -53.90921875 90.58171875 -54.0234375 91.4609375 C-55.10703113 98.432738 -55.10703113 98.432738 -58.3125 100.875 C-59.488125 101.37 -59.488125 101.37 -60.6875 101.875 C-60.6875 102.535 -60.6875 103.195 -60.6875 103.875 C-61.615625 104.24625 -61.615625 104.24625 -62.5625 104.625 C-65.03818687 106.08128639 -65.63875002 107.25312506 -66.6875 109.875 C-67.3475 109.875 -68.0075 109.875 -68.6875 109.875 C-69.3475 112.185 -70.0075 114.495 -70.6875 116.875 C-71.409375 116.99875 -72.13125 117.1225 -72.875 117.25 C-75.64471894 117.8654931 -78.0845354 118.75944374 -80.6875 119.875 C-81.0175 118.885 -81.3475 117.895 -81.6875 116.875 C-85.15897842 116.12542843 -85.15897842 116.12542843 -88.6875 115.875 C-86.3775 116.865 -84.0675 117.855 -81.6875 118.875 C-83.6875 119.875 -83.6875 119.875 -87.5 119.25 C-90.47561121 118.84179341 -91.51979004 118.80479583 -94.375 120 C-97.00893847 122.13562579 -99.35235874 124.41695657 -101.6875 126.875 C-102.68513315 127.87736127 -103.68460566 128.87790274 -104.6875 129.875 C-100.23677068 130.89350546 -96.23684938 131.44054068 -91.6875 130.875 C-88.46726895 128.57126421 -86.15586489 126.12295626 -83.61328125 123.09765625 C-82.97777344 122.36417969 -82.34226562 121.63070312 -81.6875 120.875 C-81.0275 120.875 -80.3675 120.875 -79.6875 120.875 C-79.3575 121.865 -79.0275 122.855 -78.6875 123.875 C-79.44933594 124.54144531 -80.21117188 125.20789063 -80.99609375 125.89453125 C-88.84847741 132.8664884 -95.82953843 140.08805765 -101.6875 148.875 C-101.3753236 151.52132287 -101.3753236 151.52132287 -100.6875 153.875 C-101.44546875 153.92914063 -102.2034375 153.98328125 -102.984375 154.0390625 C-105.88214876 154.64188466 -105.88214876 154.64188466 -107.453125 157.2734375 C-108.18789062 158.74683594 -108.18789062 158.74683594 -108.9375 160.25 C-109.43765625 161.22710937 -109.9378125 162.20421875 -110.453125 163.2109375 C-111.75432616 165.88896343 -111.75432616 165.88896343 -112.6875 168.875 C-114.6675 168.875 -116.6475 168.875 -118.6875 168.875 C-118.6875 168.215 -118.6875 167.555 -118.6875 166.875 C-119.30238281 166.64554688 -119.91726562 166.41609375 -120.55078125 166.1796875 C-123.3272088 164.4843917 -123.77505759 163.02596403 -124.875 160 C-125.19855469 159.13632813 -125.52210937 158.27265625 -125.85546875 157.3828125 C-127.83677548 151.41098657 -128.08424724 145.6983761 -128.375 139.4375 C-128.43494141 138.40044922 -128.49488281 137.36339844 -128.55664062 136.29492188 C-128.60369141 135.29138672 -128.65074219 134.28785156 -128.69921875 133.25390625 C-128.76822388 131.88600952 -128.76822388 131.88600952 -128.83862305 130.49047852 C-128.67098193 127.5891226 -127.89952618 125.49952675 -126.6875 122.875 C-127.88632813 122.10929687 -127.88632813 122.10929687 -129.109375 121.328125 C-142.06183648 112.75396036 -151.50944177 103.15772093 -159.6875 89.875 C-160.31527344 88.946875 -160.94304687 88.01875 -161.58984375 87.0625 C-166.25264324 80.12251937 -171.08451822 72.34216574 -171 63.6875 C-169.84903281 58.12639118 -165.13630449 54.92617122 -160.6875 51.875 C-150.16369834 45.88183803 -138.10298768 43.05638422 -126.3671875 40.48828125 C-123.60838742 39.90230214 -123.60838742 39.90230214 -120.6875 38.875 C-112.68502093 38.08538157 -103.92898392 39.25425804 -96.6875 42.875 C-94.60585587 43.11903455 -92.52210025 43.34515939 -90.4375 43.5625 C-82.45290081 44.62876635 -75.92359082 47.37792267 -68.6875 50.875 C-68.55214844 50.08738281 -68.41679688 49.29976562 -68.27734375 48.48828125 C-65.98934848 36.91129921 -61.46147937 25.15757286 -51.6875 17.875 C-49.84296574 16.80345238 -47.98583197 15.90316219 -46.0390625 15.03125 C-43.02232982 13.54793958 -40.26902185 11.74859274 -37.4375 9.9375 C-27.50630212 3.75783226 -11.99462627 -5.02100635 0 0 Z " fill="#83B02F" transform="translate(177.6875,38.125)"/>
<path d="M0 0 C0.99 0.495 0.99 0.495 2 1 C4.08164413 1.24403455 6.16539975 1.47015939 8.25 1.6875 C15.99662564 2.75296144 23.27532377 4.88445876 30 9 C31.54509334 12.15855364 31.10021104 15.78058471 31.0625 19.25 C31.05347656 20.32765625 31.04445313 21.4053125 31.03515625 22.515625 C31.02355469 23.33546875 31.01195313 24.1553125 31 25 C28.56731484 22.63488943 26.26139522 20.35375486 24.2421875 17.62109375 C19.14844342 11.66656016 10.66577228 5.75148562 2.6875 5 C1.12510527 4.98186275 -0.4376074 4.98168049 -2 5 C-3.71053735 4.83380429 -5.41923386 4.64707313 -7.125 4.4375 C-8.40375 4.293125 -9.6825 4.14875 -11 4 C-11.66 4.99 -12.32 5.98 -13 7 C-12.505 7.8971875 -12.505 7.8971875 -12 8.8125 C-11 11 -11 11 -11 14 C-10.13375 14.268125 -9.2675 14.53625 -8.375 14.8125 C-5 16 -5 16 -2.0625 17.5 C1.28331638 19.13876721 4.40302373 20.06478617 8 21 C8.33 20.34 8.66 19.68 9 19 C15.51936219 27.261959 15.51936219 27.261959 17 32 C16.505 28.535 16.505 28.535 16 25 C19.32957948 27.59980864 19.61761712 30.11064555 20.1875 34.1875 C20.42533203 35.81751953 20.42533203 35.81751953 20.66796875 37.48046875 C20.83232422 38.72763672 20.83232422 38.72763672 21 40 C16.9749081 41.62589919 14.28726613 40.25938871 10.375 38.75 C0.72790431 35.12640801 -8.98757337 32.42569099 -19 30 C-19 30.66 -19 31.32 -19 32 C-18.195625 32.103125 -17.39125 32.20625 -16.5625 32.3125 C-8.75865655 33.81850488 -1.36198073 36.94153383 6 39.875 C6.83789062 40.20113281 7.67578125 40.52726562 8.5390625 40.86328125 C14.29655944 43.15380248 19.65650527 45.86521429 25 49 C22.16956274 55.72228849 18.73951312 59.54212574 13 64 C18.83353713 61.34839221 23.16892321 55.66215358 26 50 C26.66 50 27.32 50 28 50 C26.56772375 54.13852452 24.52057457 57.21222014 21.875 60.6875 C18.99728004 64.00056399 18.99728004 64.00056399 18 68 C8.1 68.495 8.1 68.495 -2 69 C-1.34 68.34 -0.68 67.68 0 67 C-9.60216114 68.67656782 -16.85313071 71.68694674 -22.80859375 79.64453125 C-23.20175781 80.09183594 -23.59492187 80.53914063 -24 81 C-24.66 81 -25.32 81 -26 81 C-26.99 84.63 -27.98 88.26 -29 92 C-29.33 92 -29.66 92 -30 92 C-29.9278125 91.38511719 -29.855625 90.77023438 -29.78125 90.13671875 C-29.64203125 88.92435547 -29.64203125 88.92435547 -29.5 87.6875 C-29.36078125 86.48673828 -29.36078125 86.48673828 -29.21875 85.26171875 C-28.95186537 82.88103445 -28.95186537 82.88103445 -29 80 C-31.02815116 78.52504432 -31.02815116 78.52504432 -33.6875 77.125 C-45.4702685 69.91260949 -53.85991131 59.68521122 -61 48 C-61.62648438 47.07316406 -62.25296875 46.14632812 -62.8984375 45.19140625 C-67.56418079 38.25185136 -72.39703045 30.46841808 -72.3125 21.8125 C-71.16153281 16.25139118 -66.44880449 13.05117122 -62 10 C-51.47619834 4.00683803 -39.41548768 1.18138422 -27.6796875 -1.38671875 C-17.64062151 -3.68428925 -9.98998632 -3.05073949 0 0 Z " fill="#82AE31" transform="translate(79,80)"/>
<path d="M0 0 C0.91523438 0.04382812 1.83046875 0.08765625 2.7734375 0.1328125 C7.92222106 1.47290685 10.76813894 4.60218697 13.63671875 8.86328125 C20.99086906 23.45158407 23.9645137 38.29434572 18.87109375 54.234375 C17.93544394 56.26511271 16.87453375 58.01875622 15.625 59.875 C14.95210937 60.88820312 14.27921875 61.90140625 13.5859375 62.9453125 C12.15287774 65.08730642 10.70327588 67.21836142 9.234375 69.3359375 C7.44654627 71.6555164 7.44654627 71.6555164 7.625 73.875 C8.64078125 74.23851563 9.6565625 74.60203125 10.703125 74.9765625 C32.23282823 82.77999648 46.10399078 92.09707623 56.34375 113.4609375 C57.86649044 116.90203233 59.27206405 120.36411014 60.625 123.875 C60.96660156 124.69097656 61.30820313 125.50695312 61.66015625 126.34765625 C63.69673326 131.8700953 63.98648667 137.35597228 64.125 143.1875 C64.15577637 143.96512695 64.18655273 144.74275391 64.21826172 145.54394531 C64.21916966 149.74046795 64.02472214 151.37669774 61.3125 154.7578125 C59.9821875 155.80582031 59.9821875 155.80582031 58.625 156.875 C58.0371875 157.35066406 57.449375 157.82632813 56.84375 158.31640625 C38.80024063 170.08569531 11.09947877 171.47275299 -9.60693359 167.35595703 C-25.62158976 163.72992155 -38.70292283 155.11155191 -50.375 143.875 C-50.9628125 143.33359375 -51.550625 142.7921875 -52.15625 142.234375 C-53.375 140.875 -53.375 140.875 -53.375 138.875 C-56.06988873 141.26257685 -57.41827245 143.72317063 -59 146.9375 C-65.94930555 159.89237825 -75.20534951 166.71210784 -89.015625 171.0234375 C-101.28716878 174.13413116 -118.46528391 176.85383019 -129.85546875 170.12890625 C-132.38986943 168.03753705 -133.80655178 165.75048841 -135.375 162.875 C-134.715 162.545 -134.055 162.215 -133.375 161.875 C-133.375 162.535 -133.375 163.195 -133.375 163.875 C-126.84230671 166.24109815 -120.58484314 166.20721796 -113.6875 166.1875 C-112.57955078 166.20361328 -111.47160156 166.21972656 -110.33007812 166.23632812 C-97.00885179 166.24411376 -82.97077872 163.27467428 -73.10546875 153.6640625 C-67.63329868 146.91313269 -64.71188622 140.49168582 -64.953125 131.72265625 C-65.96611295 124.88498762 -69.80751468 118.94998369 -74.375 113.875 C-73.611875 113.276875 -72.84875 112.67875 -72.0625 112.0625 C-70.02121657 110.40099023 -68.20599472 108.74895061 -66.375 106.875 C-66.26285156 107.96554688 -66.26285156 107.96554688 -66.1484375 109.078125 C-64.30714596 123.15858973 -57.81710381 134.27803255 -46.71337891 143.21191406 C-23.49940872 160.75307919 3.76263953 165.81411077 32.40917969 162.55859375 C40.42799857 161.21177215 48.72181203 158.77818797 54.625 152.875 C56.61318484 139.32694044 48.26281606 127.34638317 40.625 116.875 C23.8040473 94.46522824 2.77155533 84.01987875 -24.375 78.875 C-23.5 77.85416667 -22.625 76.83333333 -21.75 75.8125 C-21.19828125 75.16023438 -20.6465625 74.50796875 -20.078125 73.8359375 C-19.06059814 72.66438135 -18.01617702 71.51424786 -16.921875 70.4140625 C-8.45698103 61.62359568 -3.15688767 48.93344538 -2.375 36.875 C-2.30667969 36.08351562 -2.23835937 35.29203125 -2.16796875 34.4765625 C-1.65926236 23.1342941 -4.54662475 11.07095991 -9.375 0.875 C-6.13904387 -0.11249835 -3.37058359 -0.21715244 0 0 Z " fill="#000100" transform="translate(192.375,43.125)"/>
<path d="M0 0 C1.03159626 3.09478879 0.97482862 4.52631393 0.5625 7.6875 C0.40974609 8.89986328 0.40974609 8.89986328 0.25390625 10.13671875 C0.12822266 11.05904297 0.12822266 11.05904297 0 12 C0.99 11.67 1.98 11.34 3 11 C3.928125 11.061875 4.85625 11.12375 5.8125 11.1875 C9.85243216 10.94985693 11.82843632 9.41642947 15 7 C15.2878026 10.05070757 15.44198649 12.95999538 15 16 C12.16755403 18.52623559 10.78435224 19 7 19 C7.33 17.35 7.66 15.7 8 14 C6.02 14 4.04 14 2 14 C1.814375 15.423125 1.814375 15.423125 1.625 16.875 C1.41733175 18.2501006 1.20890899 19.62508734 1 21 C0.88914062 21.85335937 0.77828125 22.70671875 0.6640625 23.5859375 C-0.41953113 30.557738 -0.41953113 30.557738 -3.625 33 C-4.800625 33.495 -4.800625 33.495 -6 34 C-6 34.66 -6 35.32 -6 36 C-6.61875 36.2475 -7.2375 36.495 -7.875 36.75 C-10.35068687 38.20628639 -10.95125002 39.37812506 -12 42 C-12.66 42 -13.32 42 -14 42 C-14.66 44.31 -15.32 46.62 -16 49 C-16.721875 49.12375 -17.44375 49.2475 -18.1875 49.375 C-20.95721894 49.9904931 -23.3970354 50.88444374 -26 52 C-26.33 51.01 -26.66 50.02 -27 49 C-30.47147842 48.25042843 -30.47147842 48.25042843 -34 48 C-31.69 48.99 -29.38 49.98 -27 51 C-29 52 -29 52 -32.8125 51.375 C-35.78811121 50.96679341 -36.83229004 50.92979583 -39.6875 52.125 C-42.32143847 54.26062579 -44.66485874 56.54195657 -47 59 C-47.99763315 60.00236127 -48.99710566 61.00290274 -50 62 C-45.54927068 63.01850546 -41.54934938 63.56554068 -37 63 C-33.77976895 60.69626421 -31.46836489 58.24795626 -28.92578125 55.22265625 C-28.29027344 54.48917969 -27.65476563 53.75570312 -27 53 C-26.34 53 -25.68 53 -25 53 C-24.67 53.99 -24.34 54.98 -24 56 C-24.76183594 56.66644531 -25.52367187 57.33289063 -26.30859375 58.01953125 C-34.16097741 64.9914884 -41.14203843 72.21305765 -47 81 C-46.6878236 83.64632287 -46.6878236 83.64632287 -46 86 C-46.75796875 86.05414063 -47.5159375 86.10828125 -48.296875 86.1640625 C-51.19464876 86.76688466 -51.19464876 86.76688466 -52.765625 89.3984375 C-53.50039062 90.87183594 -53.50039062 90.87183594 -54.25 92.375 C-55.00023437 93.84066406 -55.00023437 93.84066406 -55.765625 95.3359375 C-57.06682616 98.01396343 -57.06682616 98.01396343 -58 101 C-59.98 101 -61.96 101 -64 101 C-64 100.34 -64 99.68 -64 99 C-64.61488281 98.77054687 -65.22976562 98.54109375 -65.86328125 98.3046875 C-68.6397088 96.6093917 -69.08755759 95.15096403 -70.1875 92.125 C-70.51105469 91.26132813 -70.83460937 90.39765625 -71.16796875 89.5078125 C-73.00034203 83.98488458 -73.21622491 79.04242754 -73.25 73.25 C-73.270625 72.38117188 -73.29125 71.51234375 -73.3125 70.6171875 C-73.34798556 64.70884127 -72.53030278 60.36352913 -70 55 C-67.125 52.3125 -67.125 52.3125 -64 50 C-63.21625 49.154375 -62.4325 48.30875 -61.625 47.4375 C-56.57899744 42.75192619 -50.94267908 40.27770716 -44 40 C-43.34 40.66 -42.68 41.32 -42 42 C-36.80584901 42.46598245 -32.05176925 42.18992423 -27 41 C-23.9589206 38.45655178 -22.62615655 35.56417873 -21 32 C-20.0618297 30.46664639 -19.10466667 28.94467949 -18.125 27.4375 C-17.41525792 26.29253872 -16.70635877 25.14705163 -16 24 C-16.66 24 -17.32 24 -18 24 C-18.37511719 25.09054688 -18.37511719 25.09054688 -18.7578125 26.203125 C-20.10653636 29.23987431 -21.67186179 31.27250873 -23.875 33.75 C-24.89207031 34.91789062 -24.89207031 34.91789062 -25.9296875 36.109375 C-28.04005445 38.03657803 -29.21052826 38.62473474 -32 39 C-31.29875 38.34 -30.5975 37.68 -29.875 37 C-25.83758295 32.96258295 -21.81851311 28.45553932 -20 23 C-31.75427552 17.20563883 -43.63711921 12.34261455 -56 8 C-56.33 8.66 -56.66 9.32 -57 10 C-57 9.01 -57 8.02 -57 7 C-59.97 6.505 -59.97 6.505 -63 6 C-63 5.34 -63 4.68 -63 4 C-44.27041082 5.76694238 -25.01620408 13.31578358 -9 23 C-9 21.35 -9 19.7 -9 18 C-8.34 18.33 -7.68 18.66 -7 19 C-6.29508733 21.32206525 -5.62787571 23.65593068 -5 26 C-4.67 26.33 -4.34 26.66 -4 27 C-3.51891725 25.58398286 -3.04021859 24.16715563 -2.5625 22.75 C-2.29566406 21.96109375 -2.02882813 21.1721875 -1.75390625 20.359375 C-1.50511719 19.58078125 -1.25632812 18.8021875 -1 18 C-0.76152344 17.30390625 -0.52304688 16.6078125 -0.27734375 15.890625 C0.26387779 13.67042646 0.26387779 13.67042646 -2 11 C-2.30891093 6.7524747 -2.33046701 3.6413547 0 0 Z " fill="#85B332" transform="translate(123,106)"/>
<path d="M0 0 C4.99818322 1.96357198 7.19618335 5.56461313 9.75 10.125 C11.97462808 15.82251969 12.05274308 21.90925429 10.0859375 27.68359375 C8.87457544 30.2508998 7.52527034 32.60725784 6 35 C5.63519531 35.62648437 5.27039063 36.25296875 4.89453125 36.8984375 C1.65666469 41.52994889 -2.89000339 43.80615103 -7.8125 46.3125 C-8.47612549 46.65039551 -9.13975098 46.98829102 -9.82348633 47.33642578 C-19.16312585 51.8206334 -27.98276925 52.31952978 -38.25 52.25 C-39.40757813 52.25773437 -40.56515625 52.26546875 -41.7578125 52.2734375 C-43.43230469 52.26957031 -43.43230469 52.26957031 -45.140625 52.265625 C-46.14641602 52.26336914 -47.15220703 52.26111328 -48.18847656 52.25878906 C-51.13474046 51.9875977 -53.32500461 51.23282396 -56 50 C-55.360625 49.7525 -54.72125 49.505 -54.0625 49.25 C-51.84234669 48.23269227 -51.84234669 48.23269227 -51.546875 46.24609375 C-51.36640625 45.50488281 -51.1859375 44.76367188 -51 44 C-50.12143114 42.24015899 -49.17874915 40.51142576 -48.1875 38.8125 C-47.68605469 37.93207031 -47.18460938 37.05164063 -46.66796875 36.14453125 C-45 34 -45 34 -42.80078125 33.19921875 C-41.90939453 33.10060547 -41.90939453 33.10060547 -41 33 C-41.25136719 32.46890625 -41.50273438 31.9378125 -41.76171875 31.390625 C-42.13076395 27.6880732 -39.97983893 25.53324938 -37.8125 22.75 C-37.41224609 22.19570312 -37.01199219 21.64140625 -36.59960938 21.0703125 C-35.39453125 19.484375 -35.39453125 19.484375 -33 17 C-31.68 17 -30.36 17 -29 17 C-29 17.66 -29 18.32 -29 19 C-28.34 19 -27.68 19 -27 19 C-25.375 21 -25.375 21 -24 23 C-23.7525 22.2575 -23.505 21.515 -23.25 20.75 C-21.85280462 17.67617017 -20.66320654 16.07138287 -18 14 C-14.75 13.25 -14.75 13.25 -12 13 C-12.66 11.35 -13.32 9.7 -14 8 C-11.525 9.485 -11.525 9.485 -9 11 C-6.09197539 8.78071806 -4.04687238 7.07030857 -2 4 C-1.34 4.33 -0.68 4.66 0 5 C0 3.35 0 1.7 0 0 Z " fill="#7EAA2E" transform="translate(117,158)"/>
<path d="M0 0 C1.03159626 3.09478879 0.97482862 4.52631393 0.5625 7.6875 C0.40974609 8.89986328 0.40974609 8.89986328 0.25390625 10.13671875 C0.17011719 10.75160156 0.08632812 11.36648437 0 12 C1.485 11.505 1.485 11.505 3 11 C3.928125 11.061875 4.85625 11.12375 5.8125 11.1875 C9.85243216 10.94985693 11.82843632 9.41642947 15 7 C15.2878026 10.05070757 15.44198649 12.95999538 15 16 C12.16755403 18.52623559 10.78435224 19 7 19 C7.33 17.35 7.66 15.7 8 14 C6.02 14 4.04 14 2 14 C1.814375 15.423125 1.814375 15.423125 1.625 16.875 C1.41733175 18.2501006 1.20890899 19.62508734 1 21 C0.88914063 21.85335937 0.77828125 22.70671875 0.6640625 23.5859375 C-0.41953113 30.557738 -0.41953113 30.557738 -3.625 33 C-4.800625 33.495 -4.800625 33.495 -6 34 C-6 34.66 -6 35.32 -6 36 C-6.61875 36.2475 -7.2375 36.495 -7.875 36.75 C-10.35068687 38.20628639 -10.95125002 39.37812506 -12 42 C-12.66 42 -13.32 42 -14 42 C-14.66 44.31 -15.32 46.62 -16 49 C-16.721875 49.12375 -17.44375 49.2475 -18.1875 49.375 C-20.95721894 49.9904931 -23.3970354 50.88444374 -26 52 C-26.33 51.01 -26.66 50.02 -27 49 C-30.63 48.34 -34.26 47.68 -38 47 C-37.67 45.68 -37.34 44.36 -37 43 C-32.05 42.505 -32.05 42.505 -27 42 C-26.75378906 41.29230469 -26.50757813 40.58460938 -26.25390625 39.85546875 C-24.83901388 36.63339299 -23.0502469 34.12310522 -20.9375 31.3125 C-18.24079956 27.79692983 -18.24079956 27.79692983 -16 24 C-16.66 24 -17.32 24 -18 24 C-18.37511719 25.09054688 -18.37511719 25.09054688 -18.7578125 26.203125 C-20.10653636 29.23987431 -21.67186179 31.27250873 -23.875 33.75 C-24.89207031 34.91789062 -24.89207031 34.91789062 -25.9296875 36.109375 C-28.04005445 38.03657803 -29.21052826 38.62473474 -32 39 C-31.29875 38.34 -30.5975 37.68 -29.875 37 C-25.83758295 32.96258295 -21.81851311 28.45553932 -20 23 C-31.75427552 17.20563883 -43.63711921 12.34261455 -56 8 C-56.33 8.66 -56.66 9.32 -57 10 C-57 9.01 -57 8.02 -57 7 C-59.97 6.505 -59.97 6.505 -63 6 C-63 5.34 -63 4.68 -63 4 C-44.27041082 5.76694238 -25.01620408 13.31578358 -9 23 C-9 21.35 -9 19.7 -9 18 C-8.34 18.33 -7.68 18.66 -7 19 C-6.29508733 21.32206525 -5.62787571 23.65593068 -5 26 C-4.67 26.33 -4.34 26.66 -4 27 C-3.51891725 25.58398286 -3.04021859 24.16715563 -2.5625 22.75 C-2.29566406 21.96109375 -2.02882812 21.1721875 -1.75390625 20.359375 C-1.50511719 19.58078125 -1.25632813 18.8021875 -1 18 C-0.76152344 17.30390625 -0.52304688 16.6078125 -0.27734375 15.890625 C0.26387779 13.67042646 0.26387779 13.67042646 -2 11 C-2.30891093 6.7524747 -2.33046701 3.6413547 0 0 Z " fill="#8EBC36" transform="translate(123,106)"/>
<path d="M0 0 C0.66 0 1.32 0 2 0 C1.67 5.61 1.34 11.22 1 17 C0.67 17 0.34 17 0 17 C-0.495 13.04 -0.495 13.04 -1 9 C-1.598125 9.78375 -2.19625 10.5675 -2.8125 11.375 C-5 14 -5 14 -8 16 C-8.25015873 19.58357241 -8.25015873 19.58357241 -8 23 C-8.99 22.34 -9.98 21.68 -11 21 C-11.763125 21.969375 -12.52625 22.93875 -13.3125 23.9375 C-15.26748815 26.42086332 -15.85650159 26.9521672 -19 28 C-19.99 27.34 -20.98 26.68 -22 26 C-21.505 27.485 -21.505 27.485 -21 29 C-22.093125 29.433125 -23.18625 29.86625 -24.3125 30.3125 C-27.08551888 31.51694254 -29.23641646 32.45260155 -31 35 C-31.72197162 37.60611077 -31.72197162 37.60611077 -32 40 C-34 38.625 -34 38.625 -36 37 C-36 36.34 -36 35.68 -36 35 C-36.66 35 -37.32 35 -38 35 C-38 34.34 -38 33.68 -38 33 C-38.66 33 -39.32 33 -40 33 C-38.05328761 28.08846702 -34.06330154 25.43560597 -30.1171875 22.12109375 C-27.64677262 20.14560735 -27.64677262 20.14560735 -28 17 C-29.25160238 18.08148167 -30.50120381 19.16527922 -31.75 20.25 C-32.49121094 20.88421875 -33.23242188 21.5184375 -33.99609375 22.171875 C-36.11484782 23.98084307 -36.11484782 23.98084307 -37.8125 26.5 C-41.73260093 29.18806921 -46.50546684 27.77332409 -51 27 C-52.33792161 26.68558842 -53.67355489 26.35976695 -55 26 C-54.46890625 25.62488281 -53.9378125 25.24976563 -53.390625 24.86328125 C-48.73622298 21.50392182 -48.73622298 21.50392182 -45 17.1875 C-41.99309231 13.89869471 -39.364101 14.21820505 -35 14 C-38.06533164 12.46733418 -41.26754272 12.89723529 -44.625 12.9375 C-45.68460938 12.94426758 -45.68460938 12.94426758 -46.765625 12.95117188 C-48.51045275 12.96296125 -50.255237 12.98089676 -52 13 C-48.50756472 10.85343002 -45.68303267 10.73108143 -41.625 10.75 C-40.52414063 10.74484375 -39.42328125 10.7396875 -38.2890625 10.734375 C-34.90167774 11.00794051 -32.16555972 11.79498331 -29 13 C-29 13.99 -29 14.98 -29 16 C-28.01 16 -27.02 16 -26 16 C-25.67 16.66 -25.34 17.32 -25 18 C-22.36 18 -19.72 18 -17 18 C-16.505 16.515 -16.505 16.515 -16 15 C-15.01 14.67 -14.02 14.34 -13 14 C-12.505 14.495 -12.505 14.495 -12 15 C-11.731875 14.030625 -11.46375 13.06125 -11.1875 12.0625 C-10.795625 11.051875 -10.40375 10.04125 -10 9 C-9.01 8.67 -8.02 8.34 -7 8 C-7 8.66 -7 9.32 -7 10 C-6.21625 9.34 -5.4325 8.68 -4.625 8 C-2 6 -2 6 0 6 C0 4.02 0 2.04 0 0 Z " fill="#688E28" transform="translate(126,142)"/>
<path d="M0 0 C0.33 0 0.66 0 1 0 C1.03867188 1.42892578 1.03867188 1.42892578 1.078125 2.88671875 C1.13484375 4.14097656 1.1915625 5.39523438 1.25 6.6875 C1.29640625 7.92886719 1.3428125 9.17023438 1.390625 10.44921875 C2.07730012 14.45042184 3.41072305 15.97652937 6 19 C5.3125 22 5.3125 22 4 25 C3.29329272 27.69254991 3.29329272 27.69254991 3 30 C3.33 30.33 3.66 30.66 4 31 C6.31 26.38 8.62 21.76 11 17 C15.29 17.66 19.58 18.32 24 19 C18.375 25.875 18.375 25.875 15 27 C14.34 30.96 13.68 34.92 13 39 C10.525 39.495 10.525 39.495 8 40 C11.465 40.495 11.465 40.495 15 41 C14.01 41.495 14.01 41.495 13 42 C13 45.3 13 48.6 13 52 C6.25 52.125 6.25 52.125 4 51 C4 47.04 4 43.08 4 39 C2.68 38.67 1.36 38.34 0 38 C-0.33 36.02 -0.66 34.04 -1 32 C-2.32 32 -3.64 32 -5 32 C-5 31.34 -5 30.68 -5 30 C-5.99 30.66 -6.98 31.32 -8 32 C-8.99 32 -9.98 32 -11 32 C-9.34645003 28.41730839 -7.20101977 25.26818086 -5 22 C-1.86564093 17.12433033 -0.86042134 13.72129052 -1 7.9375 C-1.0745131 4.84054943 -0.99308002 2.97924005 0 0 Z " fill="#6B9527" transform="translate(135,69)"/>
<path d="M0 0 C-0.33 1.98 -0.66 3.96 -1 6 C4.94 7.485 4.94 7.485 11 9 C11.495 11.475 11.495 11.475 12 14 C12.61488281 13.97679687 13.22976562 13.95359375 13.86328125 13.9296875 C14.67152344 13.91164062 15.47976562 13.89359375 16.3125 13.875 C17.11300781 13.85179687 17.91351563 13.82859375 18.73828125 13.8046875 C21 14 21 14 24 16 C22.81921875 16.03738281 21.6384375 16.07476562 20.421875 16.11328125 C18.86455212 16.17895149 17.30726186 16.24539847 15.75 16.3125 C14.97269531 16.33505859 14.19539063 16.35761719 13.39453125 16.38085938 C8.75825159 16.59880415 6.72236232 17.16050566 3 20 C-1.19012019 19.59255557 -4.59811767 18.48087473 -8.3984375 16.71484375 C-9.37167969 16.26689453 -10.34492188 15.81894531 -11.34765625 15.35742188 C-12.34667969 14.88884766 -13.34570312 14.42027344 -14.375 13.9375 C-15.39722656 13.46505859 -16.41945312 12.99261719 -17.47265625 12.50585938 C-19.98484671 11.34367781 -22.49374253 10.17490756 -25 9 C-21.43911344 4.31341382 -18.42395671 2.04620899 -12.75 0.3125 C-8.5041773 -0.16997985 -4.26802076 -0.07458677 0 0 Z " fill="#739E28" transform="translate(178,135)"/>
<path d="M0 0 C2.31 0 4.62 0 7 0 C6.34 1.98 5.68 3.96 5 6 C6.07314453 5.89171875 6.07314453 5.89171875 7.16796875 5.78125 C14.80033532 5.07034393 22.3373816 4.88876844 30 5 C30 6.32 30 7.64 30 9 C32.31 9 34.62 9 37 9 C34.23216206 11.76783794 32.10781749 11.47619608 28.25 11.875 C22.63779211 12.60452958 19.21402036 13.24154941 15 17 C14.62359375 17.57105469 14.2471875 18.14210937 13.859375 18.73046875 C12 20 12 20 8.27734375 19.5234375 C6.82600612 19.15894024 5.37937142 18.77530736 3.9375 18.375 C3.20466797 18.19582031 2.47183594 18.01664063 1.71679688 17.83203125 C-3.73278061 16.40082908 -3.73278061 16.40082908 -6 13 C-4.8828125 9.86328125 -4.8828125 9.86328125 -3.125 6.3125 C-2.55007812 5.13300781 -1.97515625 3.95351562 -1.3828125 2.73828125 C-0.92648438 1.83464844 -0.47015625 0.93101563 0 0 Z " fill="#58771C" transform="translate(140,123)"/>
<path d="M0 0 C0.721875 0.309375 1.44375 0.61875 2.1875 0.9375 C4.91524983 2.05781507 4.91524983 2.05781507 7.5625 2.5 C10.00209278 3.00042929 11.8331386 3.79618811 14 5 C14 5.66 14 6.32 14 7 C14.67546875 6.98839844 15.3509375 6.97679688 16.046875 6.96484375 C16.93890625 6.95582031 17.8309375 6.94679688 18.75 6.9375 C20.07257813 6.92009766 20.07257813 6.92009766 21.421875 6.90234375 C23.83730934 6.99383747 25.73914156 7.15523 28 8 C30.25255076 10.96049529 31.82267893 13.4680368 33 17 C32.505 13.535 32.505 13.535 32 10 C35.32957948 12.59980864 35.61761712 15.11064555 36.1875 19.1875 C36.34605469 20.27417969 36.50460938 21.36085938 36.66796875 22.48046875 C36.77753906 23.31191406 36.88710937 24.14335938 37 25 C31.15964005 27.35056462 24.51305417 23.13389048 19 21 C18.071875 20.69964844 17.14375 20.39929688 16.1875 20.08984375 C10.52331418 18.08688331 10.52331418 18.08688331 9.03515625 14.99609375 C8.59267188 13.44870757 8.18661122 11.89047054 7.81640625 10.32421875 C6.57011345 6.77616029 4.18047381 4.7763244 1.42578125 2.3125 C0.95527344 1.879375 0.48476563 1.44625 0 1 C0 0.67 0 0.34 0 0 Z " fill="#729E27" transform="translate(63,95)"/>
<path d="M0 0 C1.17732706 3.67914707 1 7.16659144 1 11 C1.33 11.66 1.66 12.32 2 13 C4.31 13 6.62 13 9 13 C9 9.7 9 6.4 9 3 C11.12401038 7.24802077 11.2376107 10.16761063 11.125 14.75 C11.11597656 15.44738281 11.10695312 16.14476563 11.09765625 16.86328125 C11.07419888 18.57566958 11.03833104 20.28788004 11 22 C9.02 22 7.04 22 5 22 C5.99 19.69 6.98 17.38 8 15 C5.69 15 3.38 15 1 15 C0.9175 15.66 0.835 16.32 0.75 17 C-0.10161056 20.40644225 -1.5056162 23.15102233 -3.16015625 26.23046875 C-4.14292401 27.97468448 -4.14292401 27.97468448 -4 30 C-8.29 29.34 -12.58 28.68 -17 28 C-16.48263876 22.39525319 -15.71036463 17.3591425 -14 12 C-10.535 11.505 -10.535 11.505 -7 11 C-7.66 12.98 -8.32 14.96 -9 17 C-6.69 16.01 -4.38 15.02 -2 14 C-2 11.36 -2 8.72 -2 6 C-2.70125 6.66 -3.4025 7.32 -4.125 8 C-7.43460229 10.30233203 -9.06225823 10.36630156 -13 10 C-11.86969254 6.87428943 -10.67660373 3.87572808 -9 1 C-5.79682188 -0.3613507 -3.53354042 0 0 0 Z " fill="#6F9927" transform="translate(139,108)"/>
<path d="M0 0 C8.43207196 1.01361144 15.0162683 2.98111205 21.1171875 9.08203125 C22.4921875 11.89453125 22.4921875 11.89453125 23.1171875 14.08203125 C22.4571875 14.74203125 21.7971875 15.40203125 21.1171875 16.08203125 C22.28660051 18.61575944 23.46801916 20.51541154 25.2421875 22.70703125 C27.76695447 27.2516118 27.47887546 30.99830598 27.1171875 36.08203125 C26.7871875 36.08203125 26.4571875 36.08203125 26.1171875 36.08203125 C26.04242188 35.46457031 25.96765625 34.84710938 25.890625 34.2109375 C24.81444192 27.27905236 22.36931416 22.61781878 18.1171875 17.08203125 C17.1271875 17.41203125 16.1371875 17.74203125 15.1171875 18.08203125 C8.99433063 16.93667166 3.14538966 14.74842866 -1.8828125 11.08203125 C-3.41581612 7.81606702 -3.8828125 5.67383107 -3.8828125 2.08203125 C-1.8828125 0.08203125 -1.8828125 0.08203125 0 0 Z " fill="#A4D14D" transform="translate(69.8828125,82.91796875)"/>
<path d="M0 0 C3.96647095 -0.19348639 7.12785686 0.23854779 10.90234375 1.44140625 C13.47943246 2.1276701 16.04553418 2.4508228 18.6875 2.8125 C26.72361618 4.10864777 33.65692114 7.34943282 40.9140625 10.91796875 C41.91602661 11.40390503 41.91602661 11.40390503 42.93823242 11.8996582 C44.24458489 12.53696167 45.54465375 13.18735528 46.8371582 13.85229492 C49.63846817 15.22563384 51.61044525 16.02541776 54.75390625 15.8203125 C57.23285826 15.01491673 57.23285826 15.01491673 60 13 C62.65566047 12.74651853 65.15590467 12.61943369 67.8125 12.625 C68.56499023 12.62588623 69.31748047 12.62677246 70.09277344 12.62768555 C79.36173428 12.82005652 88.14068673 14.92055494 96 20 C91.92122411 21.35959196 90.10107458 20.1465 86.125 18.625 C79.84328716 16.23768238 74.66111107 14.8550007 67.9375 14.8125 C66.40416016 14.79123047 66.40416016 14.79123047 64.83984375 14.76953125 C62.01956841 14.99841192 60.3944664 15.54724221 58 17 C58 17.66 58 18.32 58 19 C58.91523438 19.47050781 59.83046875 19.94101563 60.7734375 20.42578125 C61.97416738 21.05428829 63.1746768 21.68321663 64.375 22.3125 C64.97828125 22.62123047 65.5815625 22.92996094 66.203125 23.24804688 C69.38258325 24.92609428 70.96537552 25.94806328 73 29 C69.05507719 27.73698667 65.28305272 26.3116603 61.5078125 24.609375 C60.48171875 24.15014648 59.455625 23.69091797 58.3984375 23.21777344 C57.31820312 22.7334082 56.23796875 22.24904297 55.125 21.75 C40.00436137 15.06102483 25.20277114 9.53246568 9.16210938 5.44628906 C8.11990234 5.17139648 7.07769531 4.89650391 6.00390625 4.61328125 C5.06361572 4.37391846 4.1233252 4.13455566 3.15454102 3.88793945 C2.44354248 3.59491943 1.73254395 3.30189941 1 3 C0.67 2.01 0.34 1.02 0 0 Z " fill="#C6DF82" transform="translate(125,138)"/>
<path d="M0 0 C0.33 0.99 0.66 1.98 1 3 C1.66 3 2.32 3 3 3 C5.36672211 6.55008317 5.4025104 7.81389189 5 12 C4.15236534 14.4400119 3.12140032 16.66374933 2 19 C1.34 19 0.68 19 0 19 C-0.268125 19.804375 -0.53625 20.60875 -0.8125 21.4375 C-1.204375 22.283125 -1.59625 23.12875 -2 24 C-2.99 24.33 -3.98 24.66 -5 25 C-5 27.64 -5 30.28 -5 33 C-5.33 33 -5.66 33 -6 33 C-6.33 31.35 -6.66 29.7 -7 28 C-7.66 28.33 -8.32 28.66 -9 29 C-9 28.34 -9 27.68 -9 27 C-9.66 27 -10.32 27 -11 27 C-13.35288567 22.57103873 -13.29684309 18.73813914 -12 14 C-9.34213316 7.39393261 -6.05041335 3.67770223 0 0 Z " fill="#A3CD53" transform="translate(127,65)"/>
<path d="M0 0 C16.33388991 1.54093301 32.40273301 7.74180215 47 15 C47.74507812 15.34933594 48.49015625 15.69867188 49.2578125 16.05859375 C53.57086933 18.23316843 55.27065511 20.52404851 57 25 C53.15185513 25.58305225 51.23691365 24.7002883 48.1875 22.5 C47.11635945 21.67780256 46.0508641 20.84795951 45 20 C44.62488281 21.09054688 44.62488281 21.09054688 44.2421875 22.203125 C42.89346364 25.23987431 41.32813821 27.27250873 39.125 29.75 C38.44695312 30.52859375 37.76890625 31.3071875 37.0703125 32.109375 C34.95994555 34.03657803 33.78947174 34.62473474 31 35 C31.70125 34.34 32.4025 33.68 33.125 33 C37.16241705 28.96258295 41.18148689 24.45553932 43 19 C31.24572448 13.20563883 19.36288079 8.34261455 7 4 C6.67 4.66 6.34 5.32 6 6 C6 5.01 6 4.02 6 3 C3.03 2.505 3.03 2.505 0 2 C0 1.34 0 0.68 0 0 Z " fill="#D1E593" transform="translate(60,110)"/>
<path d="M0 0 C4.45160868 0.58635213 8.15477486 1.7300268 12.2734375 3.50390625 C14.00400391 4.24350586 14.00400391 4.24350586 15.76953125 4.99804688 C16.95933594 5.51431641 18.14914063 6.03058594 19.375 6.5625 C20.58800781 7.08263672 21.80101562 7.60277344 23.05078125 8.13867188 C26.03643633 9.41991756 29.01933688 10.70719374 32 12 C31.67 15.63 31.34 19.26 31 23 C30.01 22.071875 29.02 21.14375 28 20.1875 C24.23467623 16.93037944 20.72277988 15.49140417 16 14 C16 13.34 16 12.68 16 12 C14.9790625 12.061875 14.9790625 12.061875 13.9375 12.125 C10.40075832 11.97450035 7.36676967 11.05624147 4 10 C3.67 7.69 3.34 5.38 3 3 C2.87625 4.299375 2.7525 5.59875 2.625 6.9375 C2.4140625 9.15234375 2.4140625 9.15234375 2 11 C1.01 11.495 1.01 11.495 0 12 C0 8.04 0 4.08 0 0 Z " fill="#699227" transform="translate(151,148)"/>
<path d="M0 0 C0 3 0 3 -2.15234375 5.33984375 C-4.00642297 7.06910418 -5.86058939 8.79827112 -7.71484375 10.52734375 C-9.93048837 12.92478486 -10.58878829 13.87348556 -11 17 C-11.33 17.99 -11.66 18.98 -12 20 C-5.14246988 17.60507082 0.65836201 14.49585566 6.65234375 10.390625 C9 9 9 9 12 9 C10.75803878 10.15454162 9.50607155 11.29832562 8.25 12.4375 C7.55390625 13.07558594 6.8578125 13.71367188 6.140625 14.37109375 C4 16 4 16 1.859375 16.47265625 C1.24578125 16.64667969 0.6321875 16.82070312 0 17 C-0.309375 17.62519531 -0.61875 18.25039062 -0.9375 18.89453125 C-2.39360188 21.77996843 -4.10150797 22.35200295 -7 23.6875 C-7.886875 24.10386719 -8.77375 24.52023438 -9.6875 24.94921875 C-10.450625 25.29597656 -11.21375 25.64273438 -12 26 C-12.66 26.33 -13.32 26.66 -14 27 C-14 26.01 -14 25.02 -14 24 C-15.670625 24.061875 -15.670625 24.061875 -17.375 24.125 C-21 24 -21 24 -23 22 C-20.69 22 -18.38 22 -16 22 C-16.061875 20.4221875 -16.061875 20.4221875 -16.125 18.8125 C-15.95255899 13.55304928 -15.08895349 11.17062501 -11.5 7.3125 C-10.675 6.549375 -9.85 5.78625 -9 5 C-8.34 4.34 -7.68 3.68 -7 3 C-10.3 2.34 -13.6 1.68 -17 1 C-17 0.67 -17 0.34 -17 0 C-14.72979256 -0.19493195 -12.45879711 -0.38070418 -10.1875 -0.5625 C-8.92292969 -0.66691406 -7.65835938 -0.77132812 -6.35546875 -0.87890625 C-3 -1 -3 -1 0 0 Z " fill="#95B54F" transform="translate(164,86)"/>
<path d="M0 0 C5.15425709 4.17912737 6.70834132 8.56188876 8 15 C8.40640758 19.87689095 7.77573696 23.44967404 6 28 C5.67 28 5.34 28 5 28 C3.875 20.375 3.875 20.375 5 17 C5.03954234 14.66700175 5.04401732 12.33291811 5 10 C0.71132186 12.2056059 -2.78652471 14.66432674 -5 19 C-6.30533703 23.96132083 -7.20729243 28.9344053 -8 34 C-8.33 34 -8.66 34 -9 34 C-9.12117188 32.90300781 -9.24234375 31.80601562 -9.3671875 30.67578125 C-9.53609363 29.22131177 -9.70538481 27.76688696 -9.875 26.3125 C-9.95363281 25.59126953 -10.03226562 24.87003906 -10.11328125 24.12695312 C-10.5896051 20.11484068 -11.26300142 16.70024488 -13 13 C-11.515 13.99 -11.515 13.99 -10 15 C-9.7525 14.2575 -9.505 13.515 -9.25 12.75 C-7.85280462 9.67617017 -6.66320654 8.07138287 -4 6 C-0.75 5.25 -0.75 5.25 2 5 C1.34 3.35 0.68 1.7 0 0 Z " fill="#AFCF66" transform="translate(103,166)"/>
<path d="M0 0 C7.94180099 -0.5672715 12.68554957 1.51416218 19 6.25 C19.66 6.8275 20.32 7.405 21 8 C20.34 9.32 19.68 10.64 19 12 C12.8894576 12.11269443 7.04829486 11.89604368 1 11 C1 10.34 1 9.68 1 9 C0.01 8.67 -0.98 8.34 -2 8 C-2 7.01 -2 6.02 -2 5 C-2.66 4.34 -3.32 3.68 -4 3 C-2.68 2.67 -1.36 2.34 0 2 C0 1.34 0 0.68 0 0 Z " fill="#B5DA6F" transform="translate(181,131)"/>
<path d="M0 0 C8.76149409 -0.90844985 16.00673536 1.53527601 24 5 C24.95648438 5.391875 25.91296875 5.78375 26.8984375 6.1875 C29 8 29 8 29.48828125 11.57421875 C29.45514248 12.94616376 29.39563595 14.3176753 29.3125 15.6875 C29.28994141 16.38939453 29.26738281 17.09128906 29.24414062 17.81445312 C29.18531647 19.5438833 29.09563389 21.27221438 29 23 C26.51886772 20.58778806 24.1893357 18.25375698 22.1171875 15.4765625 C19.46960416 12.37957387 16.57018401 10.49623857 13.125 8.375 C12.52558594 7.9934375 11.92617187 7.611875 11.30859375 7.21875 C7.64070794 4.91140318 3.91098559 2.87775149 0 1 C0 0.67 0 0.34 0 0 Z " fill="#010201" transform="translate(81,82)"/>
<path d="M0 0 C2 0 2 0 4.125 2.0625 C4.57230469 2.52011719 5.01960938 2.97773438 5.48046875 3.44921875 C14.29781206 12.4478956 24.50988939 17.14048825 36 22 C35.59007812 22.64066406 35.18015625 23.28132813 34.7578125 23.94140625 C31.66184574 28.91124762 29.24627496 33.26713518 28 39 C27.67 39 27.34 39 27 39 C27.0721875 38.38511719 27.144375 37.77023438 27.21875 37.13671875 C27.35796875 35.92435547 27.35796875 35.92435547 27.5 34.6875 C27.63921875 33.48673828 27.63921875 33.48673828 27.78125 32.26171875 C28.04813463 29.88103445 28.04813463 29.88103445 28 27 C25.97184884 25.52504432 25.97184884 25.52504432 23.3125 24.125 C18.30109185 21.07401317 14.21235623 17.64215265 10.0625 13.5 C9.51956299 12.96648926 8.97662598 12.43297852 8.41723633 11.88330078 C4.83297987 8.22489499 2.37709446 4.53652726 0 0 Z " fill="#050603" transform="translate(22,133)"/>
<path d="M0 0 C-0.66 0.33 -1.32 0.66 -2 1 C-2.99 0.67 -3.98 0.34 -5 0 C-9.72011499 -1.49686522 -14.18307862 -0.71720761 -19 0 C-19.33 0.99 -19.66 1.98 -20 3 C-24.29307398 7.64116106 -27.61373888 11.11301929 -34 12 C-34 11.01 -34 10.02 -34 9 C-34.99 9 -35.98 9 -37 9 C-37.66 7.35 -38.32 5.7 -39 4 C-36.39297225 0.91896721 -34.79927431 -0.81193546 -30.8125 -1.75 C-28.9253125 -1.87375 -28.9253125 -1.87375 -27 -2 C-25.39570027 -2.18635805 -23.79154207 -2.37393706 -22.1875 -2.5625 C-14.01744747 -3.31990609 -7.42493272 -3.87387794 0 0 Z " fill="#A5D053" transform="translate(96,157)"/>
<path d="M0 0 C0 0.66 0 1.32 0 2 C0.66 2 1.32 2 2 2 C2 2.99 2 3.98 2 5 C2.99 5.33 3.98 5.66 5 6 C4.67 6.598125 4.34 7.19625 4 7.8125 C2.79212012 10.05386471 2.79212012 10.05386471 3 13 C3 13.66 3 14.32 3 15 C0.35541621 16.32229189 -1.67761301 16.09677194 -4.625 16.0625 C-5.62789062 16.05347656 -6.63078125 16.04445312 -7.6640625 16.03515625 C-8.43492187 16.02355469 -9.20578125 16.01195312 -10 16 C-10.33 14.68 -10.66 13.36 -11 12 C-11.85464844 11.80664062 -12.70929688 11.61328125 -13.58984375 11.4140625 C-14.69457031 11.15367187 -15.79929688 10.89328125 -16.9375 10.625 C-18.59072266 10.24214844 -18.59072266 10.24214844 -20.27734375 9.8515625 C-21.62505859 9.43003906 -21.62505859 9.43003906 -23 9 C-23.33 8.34 -23.66 7.68 -24 7 C-23.0625 4.375 -23.0625 4.375 -22 2 C-21.34 2.33 -20.68 2.66 -20 3 C-20 3.99 -20 4.98 -20 6 C-19.34 6.33 -18.68 6.66 -18 7 C-18 7.66 -18 8.32 -18 9 C-12.06 9 -6.12 9 0 9 C0.33 8.01 0.66 7.02 1 6 C-6.14563741 -0.27949955 -11.75948839 -1.50199962 -21 -1 C-20.67 -1.99 -20.34 -2.98 -20 -4 C-13.00440236 -6.33186588 -6.41174649 -2.77369315 0 0 Z " fill="#A3D04C" transform="translate(200,133)"/>
<path d="M0 0 C1.03159626 3.09478879 0.97482862 4.52631393 0.5625 7.6875 C0.46066406 8.49574219 0.35882813 9.30398437 0.25390625 10.13671875 C0.17011719 10.75160156 0.08632812 11.36648437 0 12 C0.99 11.67 1.98 11.34 3 11 C3.928125 11.061875 4.85625 11.12375 5.8125 11.1875 C9.85243216 10.94985693 11.82843632 9.41642947 15 7 C15.2878026 10.05070757 15.44198649 12.95999538 15 16 C12.16755403 18.52623559 10.78435224 19 7 19 C7.33 17.35 7.66 15.7 8 14 C6.02 14 4.04 14 2 14 C1.87625 14.94875 1.7525 15.8975 1.625 16.875 C1.41733175 18.2501006 1.20890899 19.62508734 1 21 C0.83371094 22.28003906 0.83371094 22.28003906 0.6640625 23.5859375 C-0.41953113 30.557738 -0.41953113 30.557738 -3.625 33 C-4.800625 33.495 -4.800625 33.495 -6 34 C-6 34.66 -6 35.32 -6 36 C-6.61875 36.2475 -7.2375 36.495 -7.875 36.75 C-10.35068687 38.20628639 -10.95125002 39.37812506 -12 42 C-12.66 42 -13.32 42 -14 42 C-12.87548273 39.0280615 -11.77706209 36.66559313 -10 34 C-12.64 34.66 -15.28 35.32 -18 36 C-17 32 -17 32 -15.1875 30.6875 C-12.67700322 29.89848673 -11.44507934 30.12675738 -9 31 C-9.99 31.33 -10.98 31.66 -12 32 C-8.97580475 31.41196203 -5.98241547 30.77321882 -3 30 C-2.87625 29.030625 -2.7525 28.06125 -2.625 27.0625 C-2.11112164 23.29661527 -1.20037106 19.68136934 -0.20703125 16.015625 C0.24872489 13.68320728 0.24872489 13.68320728 -2 11 C-2.30891093 6.7524747 -2.33046701 3.6413547 0 0 Z " fill="#8CB541" transform="translate(123,106)"/>
<path d="M0 0 C4.04714166 1.56444132 8.03357509 3.24161874 12 5 C11.51938789 9.56581507 11.51938789 9.56581507 9.26171875 11.453125 C6.07908892 12.2226728 4.68084095 11.25660333 1.8125 9.75 C-3.56458404 7.1047053 -8.8988133 5 -15 5 C-11.7148409 -2.93913449 -7.29185086 -2.41990939 0 0 Z " fill="#679126" transform="translate(78,117)"/>
<path d="M0 0 C0.28258677 3.03914076 0.22671625 4.62192304 -1.36328125 7.2734375 C-6.51776477 12.83077645 -6.51776477 12.83077645 -10.83984375 13.32421875 C-15.00857338 12.94931286 -18.95622926 12.04873494 -23 11 C-22.46890625 10.62488281 -21.9378125 10.24976563 -21.390625 9.86328125 C-17.27070041 6.87859135 -14.12527221 4.05127879 -11 0 C-6.94952424 -1.35015859 -4.2079832 -0.62084998 0 0 Z " fill="#6A9426" transform="translate(94,157)"/>
<path d="M0 0 C0.33 0.33 0.66 0.66 1 1 C3.53049402 1.07313567 6.03304837 1.09247527 8.5625 1.0625 C9.62887695 1.05573242 9.62887695 1.05573242 10.71679688 1.04882812 C12.47790013 1.03700864 14.23896036 1.01907263 16 1 C16 1.33 16 1.66 16 2 C14.9275 2.103125 13.855 2.20625 12.75 2.3125 C9.10830581 2.68215355 9.10830581 2.68215355 7.10546875 4.47265625 C4.56467065 6.3157955 2.64954839 6.65402174 -0.4375 7.125 C-1.82775391 7.34542969 -1.82775391 7.34542969 -3.24609375 7.5703125 C-4.15488281 7.71210938 -5.06367187 7.85390625 -6 8 C-6.86109375 8.18175781 -7.7221875 8.36351562 -8.609375 8.55078125 C-11.75828486 9.14248817 -14.80461112 9.06265468 -18 9 C-18.66 10.32 -19.32 11.64 -20 13 C-20 8.80909894 -18.63921039 7.23303273 -16 4 C-11.14900191 0.83889879 -5.74583673 -1.98132301 0 0 Z " fill="#9CC944" transform="translate(80,147)"/>
<path d="M0 0 C0 3.39593478 -0.52165948 4.06619881 -2.5 6.6875 C-3.19609375 7.62142578 -3.19609375 7.62142578 -3.90625 8.57421875 C-4.2671875 9.04472656 -4.628125 9.51523437 -5 10 C3.63846539 8.56115528 3.63846539 8.56115528 12 6 C10.06745228 8.0245738 8.36841312 9.42105792 6 11 C4.02060957 10.81487715 2.04147599 10.62700194 0.0625 10.4375 C-3.59540946 10.65746338 -5.99756737 11.00112419 -8.65136719 13.64550781 C-12.76169766 19.02249629 -15.9002142 25.00266162 -19 31 C-19.42780762 31.8137207 -19.85561523 32.62744141 -20.29638672 33.46582031 C-22.63151828 37.93230361 -24.86008455 42.436945 -27 47 C-27.66 46.34 -28.32 45.68 -29 45 C-27.98773609 30.3091956 -10.10382381 10.10382381 0 0 Z " fill="#C4E177" transform="translate(166,54)"/>
<path d="M0 0 C-0.66 1.65 -1.32 3.3 -2 5 C0.31 4.34 2.62 3.68 5 3 C4.690625 3.7425 4.38125 4.485 4.0625 5.25 C2.9424747 7.84779443 2.9424747 7.84779443 2.6875 10.125 C2 12 2 12 -0.125 13.75 C-3.59278683 15.2577334 -6.25670998 15.22019353 -10 15 C-9.44854729 9.76119922 -8.57077907 5.02649303 -7 0 C-2.25 -1.125 -2.25 -1.125 0 0 Z " fill="#92BB47" transform="translate(132,120)"/>
<path d="M0 0 C2.31 0 4.62 0 7 0 C6.34 1.98 5.68 3.96 5 6 C6.32 6.66 7.64 7.32 9 8 C6.93758357 12.01628463 5.14386369 14.125395 1 16 C-1.6875 16.375 -1.6875 16.375 -4 16 C-4.66 15.01 -5.32 14.02 -6 13 C-4.8828125 9.86328125 -4.8828125 9.86328125 -3.125 6.3125 C-2.55007812 5.13300781 -1.97515625 3.95351562 -1.3828125 2.73828125 C-0.92648438 1.83464844 -0.47015625 0.93101563 0 0 Z " fill="#4F6822" transform="translate(140,123)"/>
<path d="M0 0 C1.89878906 0.13148437 1.89878906 0.13148437 3.8359375 0.265625 C7.657662 0.75417535 10.96279104 1.59550518 14.625 2.75 C13.635 3.08 12.645 3.41 11.625 3.75 C11.955 5.07 12.285 6.39 12.625 7.75 C9.0999972 9.86675106 5.86634115 10.19458133 1.8125 10.625 C-5.28330892 11.5617648 -10.5796853 13.1084533 -15.375 18.75 C-16.035 18.42 -16.695 18.09 -17.375 17.75 C-9.66037513 10.42698046 -3.87823735 8.53878067 6.625 7.75 C5.84125 7.646875 5.0575 7.54375 4.25 7.4375 C1.625 6.75 1.625 6.75 -0.375 3.75 C-3.00197064 3.52862607 -5.38393964 3.46837975 -8 3.5625 C-8.70640625 3.57603516 -9.4128125 3.58957031 -10.140625 3.60351562 C-11.88574128 3.6388896 -13.63046608 3.69269779 -15.375 3.75 C-10.00364397 0.16909598 -6.4702706 -0.49872268 0 0 Z " fill="#7BA12F" transform="translate(168.375,125.25)"/>
<path d="M0 0 C0.33 0.99 0.66 1.98 1 3 C1.66 3 2.32 3 3 3 C5.36672211 6.55008317 5.4025104 7.81389189 5 12 C4.15236534 14.4400119 3.12140032 16.66374933 2 19 C1.34 19 0.68 19 0 19 C-0.268125 19.804375 -0.53625 20.60875 -0.8125 21.4375 C-1.204375 22.283125 -1.59625 23.12875 -2 24 C-2.99 24.33 -3.98 24.66 -5 25 C-5.33 25.66 -5.66 26.32 -6 27 C-6.25 24.75 -6.25 24.75 -6 22 C-5.3709375 21.401875 -4.741875 20.80375 -4.09375 20.1875 C-1.61217278 17.59480739 -1.07434962 15.71226839 -0.25 12.25 C-0.00765625 11.26515625 0.2346875 10.2803125 0.484375 9.265625 C0.65453125 8.51796875 0.8246875 7.7703125 1 7 C-3.455 8.485 -3.455 8.485 -8 10 C-8 10.66 -8 11.32 -8 12 C-8.99 12.33 -9.98 12.66 -11 13 C-8.88288473 6.82508047 -5.78397994 3.05265608 0 0 Z " fill="#9DCD42" transform="translate(127,65)"/>
<path d="M0 0 C-0.99 0.495 -0.99 0.495 -2 1 C-2 1.99 -2 2.98 -2 4 C-2.66 4 -3.32 4 -4 4 C-4.33 4.99 -4.66 5.98 -5 7 C-7.765625 7.984375 -7.765625 7.984375 -11.25 8.75 C-12.38953125 9.01296875 -13.5290625 9.2759375 -14.703125 9.546875 C-17.85779491 9.98045522 -19.9603505 9.84561678 -23 9 C-19.61418191 4.18172041 -16.26968048 1.94648646 -10.625 0.3125 C-7.05945939 -0.11196912 -3.59046078 -0.06085527 0 0 Z " fill="#618520" transform="translate(176,135)"/>
<path d="M0 0 C2.1015625 -0.3359375 2.1015625 -0.3359375 5 0 C7.34083397 1.72451313 9.30620831 3.36832963 11.375 5.375 C11.94500732 5.9201123 12.51501465 6.46522461 13.10229492 7.02685547 C24.43325976 18.10767082 24.43325976 18.10767082 25.4140625 24.84375 C25.43458102 27.27861495 25.32319745 29.58884444 25 32 C24.67 32 24.34 32 24 32 C23.92523438 31.38253906 23.85046875 30.76507813 23.7734375 30.12890625 C22.53098754 22.12606681 19.20960077 15.37523581 13 10 C10.68060793 9.2863409 8.34476551 8.6252708 6 8 C3.62920533 7.07009607 1.32434532 6.04358362 -1 5 C-0.67 3.35 -0.34 1.7 0 0 Z " fill="#C0D98F" transform="translate(72,87)"/>
<path d="M0 0 C3.64508516 1.347451 6.7832868 2.98978435 10.0546875 5.08203125 C10.99957031 5.68466797 11.94445312 6.28730469 12.91796875 6.90820312 C14.38169922 7.85083008 14.38169922 7.85083008 15.875 8.8125 C16.84308594 9.42931641 17.81117188 10.04613281 18.80859375 10.68164062 C23.97674063 13.98995778 29.04650705 17.37801699 34 21 C33.01 21.495 33.01 21.495 32 22 C30.30419922 21.19555664 30.30419922 21.19555664 28.3046875 19.91015625 C27.58925781 19.45576172 26.87382812 19.00136719 26.13671875 18.53320312 C25.01716797 17.80520508 25.01716797 17.80520508 23.875 17.0625 C23.12089844 16.58103516 22.36679688 16.09957031 21.58984375 15.60351562 C19.72185575 14.40942203 17.85897934 13.20805232 16 12 C15.76920796 16.6552444 15.77185607 19.51813673 18.5625 23.3125 C20.00390625 25.30078125 20.00390625 25.30078125 21 27 C20.67 27.66 20.34 28.32 20 29 C19.01886757 27.70982586 18.04015801 26.41780894 17.0625 25.125 C16.51722656 24.40570313 15.97195312 23.68640625 15.41015625 22.9453125 C12.29889904 18.65332887 12.9256115 15.20719466 13 10 C6.07 6.04 6.07 6.04 -1 2 C-0.67 1.34 -0.34 0.68 0 0 Z " fill="#A1CD48" transform="translate(198,166)"/>
<path d="M0 0 C2.44966572 2.06690545 3.83726552 3.34906207 4.625 6.5 C4 9 4 9 1.25 11.0625 C-0.35875 12.0215625 -0.35875 12.0215625 -2 13 C-5.34996881 15.80673063 -6.51509486 17.63585373 -7 22 C-9 19 -9 19 -10 16 C-8.96543211 11.57957355 -7.66265642 8.74699231 -4 6 C-0.75 5.25 -0.75 5.25 2 5 C1.34 3.35 0.68 1.7 0 0 Z " fill="#84AB34" transform="translate(103,166)"/>
<path d="M0 0 C-2.75541184 1.37770592 -4.20465103 0.32422291 -7.01220703 -0.54199219 C-10.35736821 -1.31275151 -13.54301397 -0.92539699 -16.9375 -0.625 C-17.96327148 -0.53992188 -17.96327148 -0.53992188 -19.00976562 -0.453125 C-20.67417046 -0.31345466 -22.33726886 -0.15835535 -24 0 C-24 0.66 -24 1.32 -24 2 C-24.66 2 -25.32 2 -26 2 C-26.144375 2.61875 -26.28875 3.2375 -26.4375 3.875 C-27 6 -27 6 -28 8 C-30.31 7.67 -32.62 7.34 -35 7 C-34.82421875 4.640625 -34.82421875 4.640625 -34 2 C-31.70703125 0.671875 -31.70703125 0.671875 -28.8125 -0.25 C-27.80960937 -0.5696875 -26.80671875 -0.889375 -25.7734375 -1.21875 C-16.81716596 -3.74164339 -8.37844499 -4.3713626 0 0 Z " fill="#B7D087" transform="translate(96,157)"/>
<path d="M0 0 C0.33 0.99 0.66 1.98 1 3 C0.2265625 3.67804688 -0.546875 4.35609375 -1.34375 5.0546875 C-7.34516974 10.39303626 -12.68553386 15.69999636 -17.4765625 22.19921875 C-17.97929688 22.79347656 -18.48203125 23.38773438 -19 24 C-19.66 24 -20.32 24 -21 24 C-19.58034963 16.26117419 -12.52929859 10.34512753 -7.1875 4.9375 C-6.70748535 4.44822021 -6.2274707 3.95894043 -5.73291016 3.45483398 C-2.24656186 0 -2.24656186 0 0 0 Z " fill="#C5E178" transform="translate(98,159)"/>
<path d="M0 0 C2.33944736 0.28730055 4.6739143 0.61936779 7 1 C7.144375 1.94875 7.28875 2.8975 7.4375 3.875 C7.82935399 6.8934494 7.82935399 6.8934494 9 9 C7.3603125 9.556875 7.3603125 9.556875 5.6875 10.125 C2.45411511 11.4798799 2.01423545 11.97658038 0.0625 15.1875 C-0.288125 16.115625 -0.63875 17.04375 -1 18 C-1.66 17.67 -2.32 17.34 -3 17 C-2.50693359 16.20142578 -2.50693359 16.20142578 -2.00390625 15.38671875 C-0.73857905 12.37848948 -0.83851653 10.0631173 -0.9375 6.8125 C-0.99136681 4.87563691 -1.02051819 2.93750336 -1 1 C-0.67 0.67 -0.34 0.34 0 0 Z " fill="#8CB938" transform="translate(128,99)"/>
<path d="M0 0 C10.84772245 -0.81188775 21.03052783 1.79235205 31 6 C31 6.99 31 7.98 31 9 C28.68966233 8.46684515 26.5395813 7.82868141 24.3125 7 C21.61539073 6.18577833 19.62657891 5.83398068 16.875 5.625 C10.95826203 5.08895365 5.5515963 3.01961625 0 1 C0 0.67 0 0.34 0 0 Z " fill="#8CBC2D" transform="translate(166,123)"/>
<path d="M0 0 C2.97 0.33 5.94 0.66 9 1 C8.01 1.495 8.01 1.495 7 2 C7 5.3 7 8.6 7 12 C4.69 12 2.38 12 0 12 C0 8.04 0 4.08 0 0 Z " fill="#4C6A1A" transform="translate(141,109)"/>
<path d="M0 0 C0.33 1.32 0.66 2.64 1 4 C-5.89715536 9.88183807 -5.89715536 9.88183807 -10.5 10.375 C-11.325 10.25125 -12.15 10.1275 -13 10 C-11.86969254 6.87428943 -10.67660373 3.87572808 -9 1 C-5.79682188 -0.3613507 -3.53354042 0 0 0 Z " fill="#7DAA2D" transform="translate(139,108)"/>
<path d="M0 0 C0.495 0.99 0.495 0.99 1 2 C-4.70681553 11.09523724 -12.61546932 15.27170559 -22.9375 17.6875 C-26.9677415 18.09874913 -30.95296719 18.08094066 -35 18 C-32.09038241 16.06025494 -30.87579636 15.65817413 -27.5625 15.125 C-19.48544038 13.62091412 -9.03516749 11.65289683 -3.41796875 5.17578125 C-3.01191406 4.56089844 -2.60585937 3.94601563 -2.1875 3.3125 C-1.465625 2.219375 -0.74375 1.12625 0 0 Z " fill="#B5D276" transform="translate(90,124)"/>
<path d="M0 0 C8.10245613 -0.27480978 15.86423541 0.78455629 23.875 1.9375 C25.20566025 2.12224184 26.53638913 2.30649012 27.8671875 2.49023438 C37.57265556 3.85755185 37.57265556 3.85755185 41 5 C40.67 5.99 40.34 6.98 40 8 C38.78828125 7.74605469 37.5765625 7.49210937 36.328125 7.23046875 C24.26737517 4.74066406 12.19446295 2.71241395 0 1 C0 0.67 0 0.34 0 0 Z " fill="#95C928" transform="translate(19,104)"/>
<path d="M0 0 C0.33 0 0.66 0 1 0 C0.93037924 3.72787541 0.76774915 7.3450815 0 11 C-2.5625 13.0625 -2.5625 13.0625 -5 14 C-5 14.66 -5 15.32 -5 16 C-5.61875 16.2475 -6.2375 16.495 -6.875 16.75 C-9.35068687 18.20628639 -9.95125002 19.37812506 -11 22 C-11.66 22 -12.32 22 -13 22 C-11.87548273 19.0280615 -10.77706209 16.66559313 -9 14 C-11.64 14.66 -14.28 15.32 -17 16 C-16 12 -16 12 -14.1875 10.6875 C-11.67700322 9.89848673 -10.44507934 10.12675738 -8 11 C-8.99 11.33 -9.98 11.66 -11 12 C-7.97580475 11.41196203 -4.98241547 10.77321882 -2 10 C-1.855625 8.906875 -1.71125 7.81375 -1.5625 6.6875 C-1 3 -1 3 0 0 Z " fill="#A9C66D" transform="translate(122,126)"/>
<path d="M0 0 C0 3.39593478 -0.52165948 4.06619881 -2.5 6.6875 C-2.9640625 7.31011719 -3.428125 7.93273438 -3.90625 8.57421875 C-4.2671875 9.04472656 -4.628125 9.51523437 -5 10 C3.63846539 8.56115528 3.63846539 8.56115528 12 6 C10.06745228 8.0245738 8.36841312 9.42105792 6 11 C3.91665571 11.01970731 1.83269281 10.99319992 -0.25 10.9375 C-4.5853202 11.15957654 -6.32540027 11.26594402 -9.3046875 14.5078125 C-11.15502301 17.51989593 -11.15502301 17.51989593 -12.6328125 20.62890625 C-13.08398438 21.41136719 -13.53515625 22.19382812 -14 23 C-14.99 23 -15.98 23 -17 23 C-15.30621319 19.12037659 -12.77714898 15.93547911 -10.1875 12.625 C-9.76146484 12.07328125 -9.33542969 11.5215625 -8.89648438 10.953125 C-6.0103466 7.23302003 -3.03126342 3.60268651 0 0 Z " fill="#A2CE48" transform="translate(166,54)"/>
<path d="M0 0 C4.7618912 -0.23228738 8.44844571 0.66592374 13 2 C14.43522922 2.16670539 15.87303397 2.31255539 17.3125 2.4375 C18.529375 2.623125 19.74625 2.80875 21 3 C21.99 4.485 21.99 4.485 23 6 C17.59982489 7.09406145 13.45070891 6.76561676 8.125 5.25 C7.44953125 5.07984375 6.7740625 4.9096875 6.078125 4.734375 C4.1328125 4.203125 4.1328125 4.203125 1 3 C0.67 2.01 0.34 1.02 0 0 Z " fill="#DCE5AF" transform="translate(125,138)"/>
<path d="M0 0 C0 0.33 0 0.66 0 1 C-1.97956441 0.85966889 -3.95865141 0.7125877 -5.9375 0.5625 C-7.59072266 0.44068359 -7.59072266 0.44068359 -9.27734375 0.31640625 C-12 0 -12 0 -13 -1 C-14.66617115 -1.04063832 -16.33388095 -1.042721 -18 -1 C-18 -0.34 -18 0.32 -18 1 C-17.01 1.33 -16.02 1.66 -15 2 C-15.99 2.33 -16.98 2.66 -18 3 C-18.99 4.485 -18.99 4.485 -20 6 C-23 1.25 -23 1.25 -23 -1 C-23.66 -1 -24.32 -1 -25 -1 C-25 -1.66 -25 -2.32 -25 -3 C-17.03707463 -5.65430846 -7.73315822 -2.3782827 0 0 Z " fill="#94BD48" transform="translate(144,140)"/>
<path d="M0 0 C2.31 0 4.62 0 7 0 C6.01 0.33 5.02 0.66 4 1 C4.33 2.32 4.66 3.64 5 5 C1.4749972 7.11675106 -1.75865885 7.44458133 -5.8125 7.875 C-12.90830892 8.8117648 -18.2046853 10.3584533 -23 16 C-23.66 15.67 -24.32 15.34 -25 15 C-17.28537513 7.67698046 -11.50323735 5.78878067 -1 5 C-0.67 3.35 -0.34 1.7 0 0 Z " fill="#8AA25D" transform="translate(176,128)"/>
<path d="M0 0 C2.04136395 -0.05451714 4.08315856 -0.09302485 6.125 -0.125 C7.83042969 -0.15980469 7.83042969 -0.15980469 9.5703125 -0.1953125 C13.05757767 0.00327891 15.7553862 0.7475199 19 2 C18.67 3.32 18.34 4.64 18 6 C10.22238695 5.36249073 10.22238695 5.36249073 7 2 C3.38976901 1.26958147 3.38976901 1.26958147 0 1 C0 0.67 0 0.34 0 0 Z " fill="#C5E090" transform="translate(177,134)"/>
<path d="M0 0 C2.12401038 4.24802077 2.2376107 7.16761063 2.125 11.75 C2.11597656 12.44738281 2.10695312 13.14476563 2.09765625 13.86328125 C2.07419888 15.57566958 2.03833104 17.28788004 2 19 C0.02 19 -1.96 19 -4 19 C-3.01 16.69 -2.02 14.38 -1 12 C-2.98 12 -4.96 12 -7 12 C-7 11.34 -7 10.68 -7 10 C-4.69 10 -2.38 10 0 10 C0 6.7 0 3.4 0 0 Z " fill="#708C38" transform="translate(148,111)"/>
<path d="M0 0 C0.78503906 0.01417969 1.57007812 0.02835937 2.37890625 0.04296875 C3.55259766 0.05263672 3.55259766 0.05263672 4.75 0.0625 C6.94140625 0.23046875 6.94140625 0.23046875 9.94140625 1.23046875 C9.94140625 1.89046875 9.94140625 2.55046875 9.94140625 3.23046875 C10.93140625 3.56046875 11.92140625 3.89046875 12.94140625 4.23046875 C1.39423644 5.86568888 1.39423644 5.86568888 -4.05859375 2.23046875 C-2.05859375 0.23046875 -2.05859375 0.23046875 0 0 Z " fill="#8CB336" transform="translate(64.05859375,123.76953125)"/>
<path d="M0 0 C1 2 1 2 0.75 5.9375 C0.65289911 11.90920456 3.0053523 16.9181736 6 22 C6.66 22.33 7.32 22.66 8 23 C8.33 23.99 8.66 24.98 9 26 C9.66 26.33 10.32 26.66 11 27 C11.72693904 28.97888961 12.39816251 30.97954558 13 33 C8.8003092 30.00441635 6.39886049 26.90802738 3.75 22.5 C3.06421875 21.3759375 2.3784375 20.251875 1.671875 19.09375 C-0.75443408 14.60394441 -1.13855403 11.38848524 -1.125 6.3125 C-1.12757813 5.33925781 -1.13015625 4.36601562 -1.1328125 3.36328125 C-1 1 -1 1 0 0 Z " fill="#C1D88A" transform="translate(154,150)"/>
<path d="M0 0 C3 1 3 1 4.6875 4.0625 C5.120625 5.031875 5.55375 6.00125 6 7 C6.66 6.34 7.32 5.68 8 5 C8.375 7.25 8.375 7.25 8 10 C5 12.3125 5 12.3125 2 14 C1.67 10.7 1.34 7.4 1 4 C0.01 3.67 -0.98 3.34 -2 3 C-1.34 2.01 -0.68 1.02 0 0 Z " fill="#7BA92B" transform="translate(118,138)"/>
<path d="M0 0 C1.051875 0.6496875 1.051875 0.6496875 2.125 1.3125 C3.07375 1.869375 4.0225 2.42625 5 3 C5.928125 3.556875 6.85625 4.11375 7.8125 4.6875 C11.94885545 6.39070519 14.5512493 6.44487507 19 6 C19.66 5.01 20.32 4.02 21 3 C21 4.32 21 5.64 21 7 C20 8 20 8 17.99609375 8.1328125 C12.57031481 8.11624524 7.36807773 7.79527078 2 7 C2 6.34 2 5.68 2 5 C1.01 4.67 0.02 4.34 -1 4 C-0.67 2.68 -0.34 1.36 0 0 Z " fill="#ADD65B" transform="translate(180,135)"/>
<path d="M0 0 C0 0.66 0 1.32 0 2 C0.66 2.33 1.32 2.66 2 3 C0.58194169 2.71517632 -0.83440379 2.42181856 -2.25 2.125 C-3.03890625 1.96257812 -3.8278125 1.80015625 -4.640625 1.6328125 C-7 1 -7 1 -8.96875 -0.0625 C-11.52340026 -1.24156935 -13.4511445 -1.19865409 -16.25 -1.125 C-17.58804688 -1.09792969 -17.58804688 -1.09792969 -18.953125 -1.0703125 C-19.62859375 -1.04710937 -20.3040625 -1.02390625 -21 -1 C-20.67 -1.99 -20.34 -2.98 -20 -4 C-13.00440236 -6.33186588 -6.41174649 -2.77369315 0 0 Z " fill="#9FCD47" transform="translate(200,133)"/>
<path d="M0 0 C0.25218627 3.53060784 0.24837065 5.55500259 -1.5 8.6875 C-3.64984262 13.43506913 -3.24660951 17.86686875 -3 23 C-3.33 23 -3.66 23 -4 23 C-5.11165232 18.5621439 -5.11527763 14.23043614 -5.0625 9.6875 C-5.05798828 8.94693359 -5.05347656 8.20636719 -5.04882812 7.44335938 C-5.03712175 5.62887101 -5.01918898 3.81442466 -5 2 C-1.125 0 -1.125 0 0 0 Z " fill="#C5DE93" transform="translate(125,75)"/>
<path d="M0 0 C0.66 0.33 1.32 0.66 2 1 C-4.21478617 7.34989022 -13.77678124 14.59287354 -22.92578125 15.19140625 C-23.61027344 15.12824219 -24.29476562 15.06507812 -25 15 C-22.44538182 13.29692122 -19.92275128 11.96242917 -17.16259766 10.63891602 C-10.93727549 7.64783684 -5.30035389 4.4937783 0 0 Z " fill="#B6D66E" transform="translate(174,94)"/>
<path d="M0 0 C0.66 0.33 1.32 0.66 2 1 C1.39224549 4.32782654 0.22123437 6.30417075 -1.875 8.9375 C-3.67133162 11.24093002 -5.25018306 13.41995014 -6.75 15.9375 C-8 18 -8 18 -10 19 C-8.8358296 12.9463139 -5.4446512 8.00030013 -2 3 C-1.34 2.01 -0.68 1.02 0 0 Z " fill="#7BAA25" transform="translate(133,81)"/>
<path d="M0 0 C0.66 0 1.32 0 2 0 C2.6875 1.8125 2.6875 1.8125 3 4 C1.75 5.375 1.75 5.375 0 7 C-2.25077638 10.83465605 -3.39391326 13.53564975 -3 18 C-3.66 18 -4.32 18 -5 18 C-5.10841951 16.08458862 -5.18578079 14.16740227 -5.25 12.25 C-5.29640625 11.18265625 -5.3428125 10.1153125 -5.390625 9.015625 C-4.91255243 5.32490478 -3.78053346 4.35602454 -1 2 C-0.67 1.34 -0.34 0.68 0 0 Z " fill="#92BF3C" transform="translate(127,84)"/>
<path d="M0 0 C1.83649558 0.91989045 3.63970468 1.90581187 5.43359375 2.90625 C2.80108987 4.22250194 1.63180319 3.65438658 -1.19140625 2.96875 C-2.00867188 2.77410156 -2.8259375 2.57945313 -3.66796875 2.37890625 C-4.29445313 2.22292969 -4.9209375 2.06695312 -5.56640625 1.90625 C-5.56640625 1.24625 -5.56640625 0.58625 -5.56640625 -0.09375 C-7.52466498 -0.12069851 -9.48302851 -0.14012218 -11.44140625 -0.15625 C-13.07722656 -0.17365234 -13.07722656 -0.17365234 -14.74609375 -0.19140625 C-17.51818171 -0.29119303 -17.51818171 -0.29119303 -19.56640625 0.90625 C-18.75390625 -1.03125 -18.75390625 -1.03125 -17.56640625 -3.09375 C-11.91272615 -4.97831003 -5.34591909 -2.27832168 0 0 Z " fill="#78A12D" transform="translate(79.56640625,125.09375)"/>
<path d="M0 0 C5.15173122 0.25130396 7.83949004 2.00397103 11.51953125 5.3671875 C13.36452292 7.4020332 14.2990094 9.35181327 15 12 C14.34 12.66 13.68 13.32 13 14 C11.0625 13.3125 11.0625 13.3125 9 12 C8.3125 9.5625 8.3125 9.5625 8 7 C7.67 6.01 7.34 5.02 7 4 C5.35448038 3.28272222 3.68577711 2.61674772 2 2 C1.34 1.34 0.68 0.68 0 0 Z " fill="#9FCC48" transform="translate(78,85)"/>
<path d="M0 0 C-0.99 2.64 -1.98 5.28 -3 8 C-4.98 8 -6.96 8 -9 8 C-8.34 5.36 -7.68 2.72 -7 0 C-2.25 -1.125 -2.25 -1.125 0 0 Z " fill="#6E9927" transform="translate(132,120)"/>
<path d="M0 0 C3.91121498 0.68936071 7.55508596 1.78250181 11.3125 3.0625 C12.38113281 3.42472656 13.44976562 3.78695312 14.55078125 4.16015625 C15.76314453 4.57587891 15.76314453 4.57587891 17 5 C17.33 4.34 17.66 3.68 18 3 C18.99 4.32 19.98 5.64 21 7 C17.71303767 7.79953138 16.28976808 8.09658936 13 7 C11.96875 6.855625 10.9375 6.71125 9.875 6.5625 C8.92625 6.376875 7.9775 6.19125 7 6 C6.67 5.34 6.34 4.68 6 4 C4.02477154 2.95191959 2.02518491 1.9479589 0 1 C0 0.67 0 0.34 0 0 Z " fill="#91C133" transform="translate(70,96)"/>
<path d="M0 0 C4.46839215 -0.21278058 7.82262526 0.40861915 12 2 C12 2.66 12 3.32 12 4 C12.7425 4.12375 13.485 4.2475 14.25 4.375 C16.80141485 4.95486701 18.7267573 5.73708739 21 7 C21 7.33 21 7.66 21 8 C16.91281305 8.24042276 13.82320557 7.42258812 10 6 C10 5.34 10 4.68 10 4 C6.7 3.34 3.4 2.68 0 2 C0 1.34 0 0.68 0 0 Z " fill="#79A22C" transform="translate(155,158)"/>
<path d="M0 0 C0.33 0 0.66 0 1 0 C1 2.64 1 5.28 1 8 C2.6396875 8.2165625 2.6396875 8.2165625 4.3125 8.4375 C8 9 8 9 11 10 C11 10.66 11 11.32 11 12 C12.65 12 14.3 12 16 12 C16.33 12.99 16.66 13.98 17 15 C14.36 14.67 11.72 14.34 9 14 C9 13.34 9 12.68 9 12 C8.443125 11.87625 7.88625 11.7525 7.3125 11.625 C4.77885636 10.94023145 2.42078968 10.00866237 0 9 C0 6.03 0 3.06 0 0 Z " fill="#8DB243" transform="translate(154,152)"/>
<path d="M0 0 C-0.75 1.9375 -0.75 1.9375 -2 4 C-4.0625 4.625 -4.0625 4.625 -6 5 C-6.33 5.66 -6.66 6.32 -7 7 C-8.65 5.02 -10.3 3.04 -12 1 C-3.96428571 -1.27678571 -3.96428571 -1.27678571 0 0 Z " fill="#52711C" transform="translate(113,162)"/>
<path d="M0 0 C0 0.99 0 1.98 0 3 C-1.95597184 4.39712274 -3.9659094 5.71927629 -6 7 C-8.04913236 8.61530704 -10.01822729 10.30133768 -12 12 C-12.375 9.8125 -12.375 9.8125 -12 7 C-4.8372093 0 -4.8372093 0 0 0 Z " fill="#9BC13E" transform="translate(107,172)"/>
<path d="M0 0 C2.86697492 1.28519565 4.97607712 2.57129254 7 5 C7 5.66 7 6.32 7 7 C4.36 7 1.72 7 -1 7 C-1.66 5.68 -2.32 4.36 -3 3 C-2.01 2.01 -1.02 1.02 0 0 Z " fill="#53741F" transform="translate(97,163)"/>
<path d="M0 0 C1.65 0 3.3 0 5 0 C4.21654285 1.17219543 3.42297164 2.33763668 2.625 3.5 C2.18414062 4.1496875 1.74328125 4.799375 1.2890625 5.46875 C0.86367187 5.9740625 0.43828125 6.479375 0 7 C-0.66 7 -1.32 7 -2 7 C-2.66 10.96 -3.32 14.92 -4 19 C-6.15401187 14.69197626 -6.30157967 14.30522506 -5 10 C-4.06260231 7.63183743 -3.04779216 5.32336523 -2 3 C-1.34 3 -0.68 3 0 3 C0 2.01 0 1.02 0 0 Z " fill="#749C2B" transform="translate(152,89)"/>
<path d="M0 0 C5.83412172 4.43393251 10.25912318 9.09377632 13 16 C13.44840361 19.73355004 13.38351933 23.26423766 13 27 C12.67 27 12.34 27 12 27 C11.9484375 26.26136719 11.896875 25.52273437 11.84375 24.76171875 C10.98138845 17.04946262 8.74588521 12.39197584 3.875 6.375 C2.23220504 4.29412638 1.07126026 2.41033558 0 0 Z " fill="#B8D382" transform="translate(97,98)"/>
<path d="M0 0 C1.2065625 0.0309375 1.2065625 0.0309375 2.4375 0.0625 C1.4475 0.7225 0.4575 1.3825 -0.5625 2.0625 C-1.28632467 4.12175139 -1.28632467 4.12175139 -1.5625 6.0625 C-0.0465625 6.495625 -0.0465625 6.495625 1.5 6.9375 C6.96875 8.5 6.96875 8.5 12.4375 10.0625 C12.4375 10.7225 12.4375 11.3825 12.4375 12.0625 C6.77656888 12.95633123 3.1576637 10.57091202 -1.5859375 7.86328125 C-3.5625 6.0625 -3.5625 6.0625 -3.9140625 3.41796875 C-3.42622377 0.14944926 -3.34086352 0.08148448 0 0 Z " fill="#AED65F" transform="translate(72.5625,85.9375)"/>
<path d="M0 0 C-1.33041575 10.15317287 -1.33041575 10.15317287 -4.125 13.6875 C-4.74375 14.120625 -5.3625 14.55375 -6 15 C-5.7834375 14.2265625 -5.7834375 14.2265625 -5.5625 13.4375 C-4.84190099 10.31490429 -4.42733561 7.17449308 -4 4 C-5.32 4.33 -6.64 4.66 -8 5 C-6.44843568 0.34530705 -4.78780941 0 0 0 Z " fill="#B5DA6C" transform="translate(128,72)"/>
<path d="M0 0 C0.66 0.33 1.32 0.66 2 1 C2.7013284 3.32315031 3.36485174 5.65789079 4 8 C4.62469505 9.35350594 5.2716331 10.69934483 6 12 C2.16674383 14.70582788 -0.32538149 15.32613618 -5 15 C-4.34 14.34 -3.68 13.68 -3 13 C-2.01 13 -1.02 13 0 13 C0 12.34 0 11.68 0 11 C0.66 10.67 1.32 10.34 2 10 C1.505 9.195625 1.505 9.195625 1 8.375 C-0.22699204 5.4608939 -0.14233286 3.13132292 0 0 Z " fill="#8EB546" transform="translate(114,124)"/>
<path d="M0 0 C2.84499856 1.08779357 5.40952184 2.23401248 8.0625 3.75 C9.5165625 4.36875 9.5165625 4.36875 11 5 C12.3372514 4.34122773 13.67007535 3.6734409 15 3 C17.578125 2.8046875 17.578125 2.8046875 20.25 2.875 C21.14203125 2.89304688 22.0340625 2.91109375 22.953125 2.9296875 C23.96632812 2.96449219 23.96632812 2.96449219 25 3 C25 3.33 25 3.66 25 4 C24.33613281 4.12117187 23.67226562 4.24234375 22.98828125 4.3671875 C22.10527344 4.53476563 21.22226563 4.70234375 20.3125 4.875 C19.00732422 5.11863281 19.00732422 5.11863281 17.67578125 5.3671875 C14.95274128 5.89918145 14.95274128 5.89918145 12.5 7.27734375 C10 8 10 8 7.32421875 6.69921875 C6.45410156 6.03535156 5.58398438 5.37148437 4.6875 4.6875 C3.80449219 4.03136719 2.92148438 3.37523437 2.01171875 2.69921875 C1.34785156 2.13847656 0.68398437 1.57773438 0 1 C0 0.67 0 0.34 0 0 Z " fill="#6E9829" transform="translate(199,165)"/>
<path d="M0 0 C1.03159626 3.09478879 0.97482862 4.52631393 0.5625 7.6875 C0.46066406 8.49574219 0.35882813 9.30398437 0.25390625 10.13671875 C0.17011719 10.75160156 0.08632812 11.36648437 0 12 C0.99 11.67 1.98 11.34 3 11 C2.34 14.3 1.68 17.6 1 21 C0.34 20.67 -0.32 20.34 -1 20 C-0.79375 19.071875 -0.5875 18.14375 -0.375 17.1875 C0.36692966 13.84826598 0.36692966 13.84826598 -2 11 C-2.30891093 6.7524747 -2.33046701 3.6413547 0 0 Z " fill="#A3C45D" transform="translate(123,106)"/>
<path d="M0 0 C0.33 0 0.66 0 1 0 C1.51078171 6.00168507 0.28641245 10.87803277 -3 16 C-3.99 16.33 -4.98 16.66 -6 17 C-6.33 17.66 -6.66 18.32 -7 19 C-7.25 16.75 -7.25 16.75 -7 14 C-6.401875 13.443125 -5.80375 12.88625 -5.1875 12.3125 C-1.87583139 8.81159318 -1.15772857 4.5958316 0 0 Z " fill="#A9D356" transform="translate(128,73)"/>
<path d="M0 0 C6.50313209 -0.46450943 10.4174808 0.67424388 16 4 C12.75432383 5.62283808 9.36160376 4.54725234 5.875 4.0625 C5.12089844 3.96259766 4.36679688 3.86269531 3.58984375 3.75976562 C1.72582247 3.51201596 -0.13719288 3.25671943 -2 3 C-1.34 2.67 -0.68 2.34 0 2 C0 1.34 0 0.68 0 0 Z " fill="#AFD36B" transform="translate(181,131)"/>
<path d="M0 0 C6.97339171 1.12761228 13.68525345 2.73419168 20 6 C20.33 6.66 20.66 7.32 21 8 C15.89416653 7.448018 11.438884 5.77216517 6.68359375 3.9375 C4.12682361 3.04430519 1.66467865 2.46258436 -1 2 C-0.67 1.34 -0.34 0.68 0 0 Z " fill="#B3D07C" transform="translate(200,151)"/>
<path d="M0 0 C1.97986082 0.11347619 3.95891598 0.2410935 5.9375 0.375 C7.03964844 0.44460937 8.14179688 0.51421875 9.27734375 0.5859375 C10.62505859 0.79089844 10.62505859 0.79089844 12 1 C12.33 1.66 12.66 2.32 13 3 C10.35541621 4.32229189 8.32238699 4.09677194 5.375 4.0625 C4.37210938 4.05347656 3.36921875 4.04445312 2.3359375 4.03515625 C1.56507813 4.02355469 0.79421875 4.01195312 0 4 C0 2.68 0 1.36 0 0 Z " fill="#92C430" transform="translate(190,145)"/>
<path d="M0 0 C0.66 0.66 1.32 1.32 2 2 C1.01 3.485 1.01 3.485 0 5 C0.3121764 7.64632287 0.3121764 7.64632287 1 10 C-0.1446875 10.1546875 -0.1446875 10.1546875 -1.3125 10.3125 C-4.17059424 11.04364039 -5.15742885 11.76951913 -7 14 C-5.53967505 8.68972746 -3.01679014 4.53669968 0 0 Z " fill="#97C736" transform="translate(76,182)"/>
<path d="M0 0 C2.0625 0.4375 2.0625 0.4375 4 1 C3.50168276 4.68754757 2.89932357 6.60490662 0 9 C-0.99 8.01 -1.98 7.02 -3 6 C-1.125 1.125 -1.125 1.125 0 0 Z " fill="#6C9628" transform="translate(114,142)"/>
<path d="M0 0 C0.33 0.66 0.66 1.32 1 2 C-0.07421875 4.56640625 -0.07421875 4.56640625 -1.6875 7.5625 C-2.46673828 9.04943359 -2.46673828 9.04943359 -3.26171875 10.56640625 C-5 13 -5 13 -7.20703125 13.83984375 C-7.79871094 13.89269531 -8.39039063 13.94554688 -9 14 C-7.36980221 9.25760644 -4.68037494 2.34018747 0 0 Z " fill="#B6DC5C" transform="translate(150,76)"/>
<path d="M0 0 C0.66 0 1.32 0 2 0 C0.66760776 3.72014468 -0.96888945 6.61890417 -3.375 9.75 C-3.96023437 10.52859375 -4.54546875 11.3071875 -5.1484375 12.109375 C-7.13445258 14.13728913 -8.22910257 14.6338021 -11 15 C-10.62488281 14.5875 -10.24976562 14.175 -9.86328125 13.75 C-6.43902196 9.88584845 -3.63338975 5.99265466 -1.078125 1.50390625 C-0.72234375 1.00761719 -0.3665625 0.51132813 0 0 Z " fill="#6E972A" transform="translate(105,130)"/>
<path d="M0 0 C0.91007813 0.00902344 1.82015625 0.01804688 2.7578125 0.02734375 C3.80582031 0.04474609 3.80582031 0.04474609 4.875 0.0625 C4.875 0.3925 4.875 0.7225 4.875 1.0625 C4.12734375 1.24425781 3.3796875 1.42601562 2.609375 1.61328125 C1.13210937 1.99033203 1.13210937 1.99033203 -0.375 2.375 C-1.34953125 2.61863281 -2.3240625 2.86226562 -3.328125 3.11328125 C-6.16678525 3.90935063 -6.16678525 3.90935063 -8.296875 5.73046875 C-9.20179688 6.38982422 -9.20179688 6.38982422 -10.125 7.0625 C-11.115 6.7325 -12.105 6.4025 -13.125 6.0625 C-5.88536269 -0.07545337 -5.88536269 -0.07545337 0 0 Z " fill="#435D19" transform="translate(165.125,132.9375)"/>
<path d="M0 0 C1.65 0 3.3 0 5 0 C4.01 0.495 4.01 0.495 3 1 C3 4.3 3 7.6 3 11 C1.68 10.67 0.36 10.34 -1 10 C-0.835 9.46375 -0.67 8.9275 -0.5 8.375 C0.09660212 5.54113991 0.0656368 2.8880194 0 0 Z " fill="#5B7B1F" transform="translate(145,110)"/>
<path d="M0 0 C0.66 0 1.32 0 2 0 C2.3125 3.1875 2.3125 3.1875 2 7 C-0.5 9.9375 -0.5 9.9375 -3 12 C-2.14285714 3.42857143 -2.14285714 3.42857143 0 0 Z " fill="#8BBC2D" transform="translate(132,74)"/>
<path d="M0 0 C0.99 0.33 1.98 0.66 3 1 C1.54782324 2.50596108 0.08807139 4.00462104 -1.375 5.5 C-2.18710938 6.3353125 -2.99921875 7.170625 -3.8359375 8.03125 C-6 10 -6 10 -8 10 C-8 10.66 -8 11.32 -8 12 C-9.32 11.67 -10.64 11.34 -12 11 C-11.46890625 10.62488281 -10.9378125 10.24976563 -10.390625 9.86328125 C-6.31226272 6.90870127 -2.93808 4.16228001 0 0 Z " fill="#74A126" transform="translate(83,157)"/>
<path d="M0 0 C-0.74324341 2.39489543 -1.47057354 3.70777616 -3.69140625 4.93359375 C-5.44073501 5.67219923 -7.21934149 6.34049685 -9 7 C-8.75 4.625 -8.75 4.625 -8 2 C-5.10189884 -0.09862498 -3.71621139 0 0 0 Z " fill="#6E9926" transform="translate(113,140)"/>
<path d="M0 0 C2.97 0.495 2.97 0.495 6 1 C1.18099548 5.97963801 1.18099548 5.97963801 -3.625 6.0625 C-4.73875 6.041875 -5.8525 6.02125 -7 6 C-7 5.67 -7 5.34 -7 5 C-5.35 5 -3.7 5 -2 5 C-1.34 3.35 -0.68 1.7 0 0 Z " fill="#95BF47" transform="translate(129,129)"/>
<path d="M0 0 C2.0625 0.4375 2.0625 0.4375 4 1 C2.61147985 3.77704031 1.03211518 4.03382737 -1.8125 5.1875 C-2.68519531 5.55230469 -3.55789062 5.91710937 -4.45703125 6.29296875 C-7.14801336 7.04115271 -8.415372 6.9458895 -11 6 C-10.28972656 5.65066406 -9.57945313 5.30132812 -8.84765625 4.94140625 C-7.92855469 4.48636719 -7.00945312 4.03132812 -6.0625 3.5625 C-4.68771484 2.88380859 -4.68771484 2.88380859 -3.28515625 2.19140625 C-1.09471096 1.19474606 -1.09471096 1.19474606 0 0 Z " fill="#8EB439" transform="translate(84,133)"/>
<path d="M0 0 C1.66611905 -0.042721 3.33382885 -0.04063832 5 0 C6 1 6 1 6.0625 3.5625 C6.041875 4.366875 6.02125 5.17125 6 6 C4.35 6 2.7 6 1 6 C0.67 4.02 0.34 2.04 0 0 Z " fill="#55771E" transform="translate(139,102)"/>
<path d="M0 0 C0.66 0.33 1.32 0.66 2 1 C1.48050781 1.42410156 0.96101562 1.84820312 0.42578125 2.28515625 C-4.19434972 6.17084865 -7.69918687 9.94562989 -11 15 C-11.33 14.34 -11.66 13.68 -12 13 C-8.83410746 7.59160025 -4.82485166 3.95825209 0 0 Z " fill="#1D1D1D" transform="translate(128,55)"/>
<path d="M0 0 C1.32 0 2.64 0 4 0 C4 2 4 2 1.625 4.4375 C0.75875 5.283125 -0.1075 6.12875 -1 7 C-1.99 8.485 -1.99 8.485 -3 10 C-3.66 10 -4.32 10 -5 10 C-4.3826474 5.98720812 -2.50178124 3.14509642 0 0 Z " fill="#AED651" transform="translate(82,173)"/>
<path d="M0 0 C0.99 0.33 1.98 0.66 3 1 C3 1.66 3 2.32 3 3 C4.65 2.67 6.3 2.34 8 2 C7.34 3.32 6.68 4.64 6 6 C3.69 5.67 1.38 5.34 -1 5 C-0.67 3.35 -0.34 1.7 0 0 Z " fill="#B4D96C" transform="translate(62,159)"/>
<path d="M0 0 C0.33 0 0.66 0 1 0 C0.93037412 3.72814929 0.75523021 7.342528 0 11 C-2.48293108 13.22827148 -3.68756765 14 -7 14 C-6.34 12.68 -5.68 11.36 -5 10 C-4.01 10 -3.02 10 -2 10 C-1.855625 8.906875 -1.71125 7.81375 -1.5625 6.6875 C-1 3 -1 3 0 0 Z " fill="#D9E6A6" transform="translate(122,126)"/>
<path d="M0 0 C0.99 1.32 1.98 2.64 3 4 C2.01 6.31 1.02 8.62 0 11 C-0.66 10.67 -1.32 10.34 -2 10 C-2.17942163 6.05272412 -2.09350689 3.4019487 0 0 Z " fill="#699325" transform="translate(121,117)"/>
<path d="M0 0 C3.32957948 2.59980864 3.61761712 5.11064555 4.1875 9.1875 C4.42533203 10.81751953 4.42533203 10.81751953 4.66796875 12.48046875 C4.77753906 13.31191406 4.88710937 14.14335938 5 15 C4.01 15.33 3.02 15.66 2 16 C1.93941406 15.18015625 1.87882812 14.3603125 1.81640625 13.515625 C1.73261719 12.43796875 1.64882812 11.3603125 1.5625 10.25 C1.48128906 9.18265625 1.40007812 8.1153125 1.31640625 7.015625 C1.05909227 4.56320038 0.68187782 2.36078709 0 0 Z " fill="#69912A" transform="translate(95,105)"/>
<path d="M0 0 C1.42944945 2.35438733 2.08661261 3.48032433 1.625 6.25 C1.41875 6.8275 1.2125 7.405 1 8 C0.67 7.01 0.34 6.02 0 5 C-2.10584438 4.19436362 -2.10584438 4.19436362 -4.5625 3.8125 C-5.38878906 3.65394531 -6.21507813 3.49539062 -7.06640625 3.33203125 C-7.70449219 3.22246094 -8.34257813 3.11289063 -9 3 C-5.87496336 0.91664224 -3.72863529 0 0 0 Z " fill="#7FAF27" transform="translate(96,150)"/>
<path d="M0 0 C0.66 0.33 1.32 0.66 2 1 C2 1.99 2 2.98 2 4 C2.66 4.33 3.32 4.66 4 5 C4 5.66 4 6.32 4 7 C5.32 7.33 6.64 7.66 8 8 C1.47692308 8.36923077 1.47692308 8.36923077 -0.9375 6.5 C-1.4634375 5.7575 -1.4634375 5.7575 -2 5 C-1.34 3.35 -0.68 1.7 0 0 Z " fill="#8FBF31" transform="translate(178,135)"/>
<path d="M0 0 C0.33 0 0.66 0 1 0 C1.19294408 4.82360189 0.75747614 8.49646738 -1 13 C-1.33 13 -1.66 13 -2 13 C-2.33 10.36 -2.66 7.72 -3 5 C-2.34 4.67 -1.68 4.34 -1 4 C-0.34786708 1.97536745 -0.34786708 1.97536745 0 0 Z " fill="#9EC845" transform="translate(110,181)"/>
<path d="M0 0 C4.58477988 0.44948822 8.6789261 1.4191193 13 3 C13 3.33 13 3.66 13 4 C11.41753293 4.08153933 9.83383727 4.13943557 8.25 4.1875 C6.92742187 4.23970703 6.92742187 4.23970703 5.578125 4.29296875 C2.55328417 3.94923684 1.24416398 2.99772541 -1 1 C-0.67 0.67 -0.34 0.34 0 0 Z " fill="#9BC23D" transform="translate(61,125)"/>
<path d="M0 0 C4.13621084 3.3810038 7.81316569 6.66590534 11 11 C7.76138697 9.55575365 5.38030837 7.74227753 2.75 5.375 C2.04359375 4.74335938 1.3371875 4.11171875 0.609375 3.4609375 C0.07828125 2.97882813 -0.4528125 2.49671875 -1 2 C-0.67 1.34 -0.34 0.68 0 0 Z " fill="#A2CC4B" transform="translate(167,182)"/>
<path d="M0 0 C1.98 0 3.96 0 6 0 C5.34 1.65 4.68 3.3 4 5 C2.35 5 0.7 5 -1 5 C-0.67 3.35 -0.34 1.7 0 0 Z " fill="#729D29" transform="translate(123,129)"/>
<path d="M0 0 C1.98 0 3.96 0 6 0 C3.33333333 2.66666667 0.66666667 5.33333333 -2 8 C-2.33 7.34 -2.66 6.68 -3 6 C-2.06553465 3.96855359 -1.06775224 1.96466413 0 0 Z " fill="#354A14" transform="translate(137,130)"/>
<path d="M0 0 C0.66 0.33 1.32 0.66 2 1 C-2.56089058 3.9286937 -7.09477665 6.67001891 -12 9 C-11.83984375 7.17578125 -11.83984375 7.17578125 -11 5 C-8.56640625 3.48046875 -8.56640625 3.48046875 -5.5625 2.1875 C-4.57378906 1.74792969 -3.58507812 1.30835937 -2.56640625 0.85546875 C-1.71949219 0.57316406 -0.87257812 0.29085937 0 0 Z " fill="#94BB3B" transform="translate(162,104)"/>
<path d="M0 0 C2.8125 -0.25 2.8125 -0.25 6 0 C7.9375 1.8125 7.9375 1.8125 9 4 C8.67 4.99 8.34 5.98 8 7 C6.66382648 6.02471263 5.3311249 5.04466681 4 4.0625 C3.2575 3.51722656 2.515 2.97195312 1.75 2.41015625 C1.1725 1.94480469 0.595 1.47945313 0 1 C0 0.67 0 0.34 0 0 Z " fill="#B0D26E" transform="translate(79,89)"/>
<path d="M0 0 C1.32 0.66 2.64 1.32 4 2 C2.6875 4.5 2.6875 4.5 1 7 C0.01 7 -0.98 7 -2 7 C-1.125 2.25 -1.125 2.25 0 0 Z " fill="#76A22B" transform="translate(109,148)"/>
<path d="M0 0 C1 3 1 3 -0.4375 6.1875 C-1.2109375 7.5796875 -1.2109375 7.5796875 -2 9 C-2.66 9 -3.32 9 -4 9 C-4.25 6.1875 -4.25 6.1875 -4 3 C-2 1.125 -2 1.125 0 0 Z " fill="#76A328" transform="translate(127,109)"/>
<path d="M0 0 C1.43739513 -0.02712066 2.87493863 -0.04645067 4.3125 -0.0625 C5.51326172 -0.07990234 5.51326172 -0.07990234 6.73828125 -0.09765625 C9 0 9 0 12 1 C11.67 1.99 11.34 2.98 11 4 C7.37 3.01 3.74 2.02 0 1 C0 0.67 0 0.34 0 0 Z " fill="#A7D444" transform="translate(48,108)"/>
<path d="M0 0 C0.99 0.495 0.99 0.495 2 1 C2.4140625 3.94140625 2.4140625 3.94140625 2.625 7.5625 C2.69976562 8.76003906 2.77453125 9.95757812 2.8515625 11.19140625 C2.90054688 12.11824219 2.94953125 13.04507813 3 14 C0.65454672 11.65454672 0.04491112 10.04014162 -0.09765625 6.73828125 C-0.08605469 5.93777344 -0.07445313 5.13726562 -0.0625 4.3125 C-0.05347656 3.50425781 -0.04445313 2.69601563 -0.03515625 1.86328125 C-0.02355469 1.24839844 -0.01195313 0.63351563 0 0 Z " fill="#ACCF67" transform="translate(114,96)"/>
<path d="M0 0 C3.41883322 1.70941661 6.29058339 4.58116678 8 8 C6.35 8 4.7 8 3 8 C2.67 7.01 2.34 6.02 2 5 C1.34 5 0.68 5 0 5 C0 3.35 0 1.7 0 0 Z " fill="#BEDE80" transform="translate(76,88)"/>
<path d="M0 0 C2 4 4 8 6 12 C2.83884224 10.63016497 2.0072908 10.0109362 0 7 C0 5.68 0 4.36 0 3 C-0.66 3 -1.32 3 -2 3 C-1 1 -1 1 0 0 Z " fill="#90B53C" transform="translate(153,162)"/>
<path d="M0 0 C0.66 0.33 1.32 0.66 2 1 C1.67 1.99 1.34 2.98 1 4 C-0.65 4.33 -2.3 4.66 -4 5 C-4.33 5.99 -4.66 6.98 -5 8 C-5.66 7.67 -6.32 7.34 -7 7 C-6.34 5.68 -5.68 4.36 -5 3 C-4.34 3 -3.68 3 -3 3 C-3 2.34 -3 1.68 -3 1 C-2.01 0.67 -1.02 0.34 0 0 Z " fill="#AAD459" transform="translate(75,156)"/>
<path d="M0 0 C0.99 0.33 1.98 0.66 3 1 C3 2.98 3 4.96 3 7 C1.02 7 -0.96 7 -3 7 C-2.01 4.69 -1.02 2.38 0 0 Z " fill="#658725" transform="translate(147,123)"/>
<path d="M0 0 C3.3125 0.125 3.3125 0.125 6 1 C6 1.33 6 1.66 6 2 C5.113125 2.226875 4.22625 2.45375 3.3125 2.6875 C-0.43380532 4.17188513 -2.33729434 6.02403485 -5 9 C-5 6 -5 6 -2.875 2.75 C-1.451875 1.38875 -1.451875 1.38875 0 0 Z " fill="#6D9728" transform="translate(41,108)"/>
<path d="M0 0 C1.32 1.32 2.64 2.64 4 4 C1.64619703 7.92300495 -0.64464931 8.83857315 -5 10 C-3.37660195 8.29115995 -1.70680947 6.62553283 0 5 C0.66 5 1.32 5 2 5 C1.34 3.35 0.68 1.7 0 0 Z " fill="#8CAB45" transform="translate(103,166)"/>
<path d="M0 0 C0.66 0.33 1.32 0.66 2 1 C-0.97 3.97 -3.94 6.94 -7 10 C-7 5.69032084 -4.83274712 4.10253255 -2 1 C-1.34 0.67 -0.68 0.34 0 0 Z " fill="#A0C93F" transform="translate(162,88)"/>
<path d="M0 0 C0 0.99 0 1.98 0 3 C-2.64 3.99 -5.28 4.98 -8 6 C-7 2 -7 2 -5.125 0.75 C-3 0 -3 0 0 0 Z " fill="#A6D154" transform="translate(128,69)"/>
<path d="M0 0 C0.66 0 1.32 0 2 0 C2.33 0.99 2.66 1.98 3 3 C3.66 2.67 4.32 2.34 5 2 C4.67 2.99 4.34 3.98 4 5 C2.02 5.33 0.04 5.66 -2 6 C-1.34 4.02 -0.68 2.04 0 0 Z " fill="#8EBE32" transform="translate(132,119)"/>
<path d="M0 0 C1.52519276 0.08937803 3.04681929 0.24537146 4.5625 0.4375 C5.38878906 0.53933594 6.21507813 0.64117187 7.06640625 0.74609375 C7.70449219 0.82988281 8.34257813 0.91367188 9 1 C9 1.33 9 1.66 9 2 C7.7625 2.12375 6.525 2.2475 5.25 2.375 C2.1237803 2.75746305 -0.28879237 3.30549523 -3 5 C-1.125 1.125 -1.125 1.125 0 0 Z " fill="#9CCB42" transform="translate(68,83)"/>
<path d="M0 0 C3.3 0.33 6.6 0.66 10 1 C10.33 1.99 10.66 2.98 11 4 C8.36 3.67 5.72 3.34 3 3 C3 2.34 3 1.68 3 1 C2.01 0.67 1.02 0.34 0 0 Z " fill="#91B739" transform="translate(160,163)"/>
<path d="M0 0 C0.66 0.33 1.32 0.66 2 1 C2 2.32 2 3.64 2 5 C0.35 5.33 -1.3 5.66 -3 6 C-3.33 5.01 -3.66 4.02 -4 3 C-3.34 2.34 -2.68 1.68 -2 1 C-1.67 1.33 -1.34 1.66 -1 2 C-0.67 1.34 -0.34 0.68 0 0 Z " fill="#8CBA37" transform="translate(107,155)"/>
<path d="M0 0 C5.13503344 0.64187918 9.9943454 1.68272247 15 3 C15 3.33 15 3.66 15 4 C13.06166004 3.91284983 11.1242571 3.80467036 9.1875 3.6875 C8.10855469 3.62949219 7.02960938 3.57148438 5.91796875 3.51171875 C2.82502483 2.96931493 1.86977097 2.44710376 0 0 Z " fill="#B1B78D" transform="translate(129,137)"/>
<path d="M0 0 C-3.44450737 2.29633824 -5.93812283 2.54016485 -10 3 C-10 2.34 -10 1.68 -10 1 C-3.71428571 -1.42857143 -3.71428571 -1.42857143 0 0 Z " fill="#BAD876" transform="translate(78,137)"/>
<path d="M0 0 C0.99 0 1.98 0 3 0 C2.34 1.98 1.68 3.96 1 6 C0.01 6 -0.98 6 -2 6 C-1.125 1.125 -1.125 1.125 0 0 Z " fill="#73A029" transform="translate(105,147)"/>
<path d="M0 0 C1.32 0.33 2.64 0.66 4 1 C4 1.66 4 2.32 4 3 C4.99 3.33 5.98 3.66 7 4 C6.01 4.33 5.02 4.66 4 5 C3.01 6.485 3.01 6.485 2 8 C0 2.25 0 2.25 0 0 Z " fill="#8BB43C" transform="translate(122,138)"/>
<path d="M0 0 C0 0.99 0 1.98 0 3 C-4.01804691 3.84098656 -7.01803543 4.05404945 -11 3 C-11 2.67 -11 2.34 -11 2 C-9.5422647 1.664061 -8.08378894 1.33133376 -6.625 1 C-5.40683594 0.7215625 -5.40683594 0.7215625 -4.1640625 0.4375 C-2 0 -2 0 0 0 Z " fill="#7DAB2B" transform="translate(133,133)"/>
<path d="M0 0 C0.66 0.33 1.32 0.66 2 1 C1.360625 1.556875 0.72125 2.11375 0.0625 2.6875 C-2.19680987 5.22066561 -2.63149047 6.68341424 -3 10 C-3.99 9.01 -4.98 8.02 -6 7 C-4.02 4.69 -2.04 2.38 0 0 Z " fill="#759D2D" transform="translate(97,172)"/>
<path d="M0 0 C0.66 0 1.32 0 2 0 C2.33 0.99 2.66 1.98 3 3 C1.35 4.32 -0.3 5.64 -2 7 C-2.125 4.625 -2.125 4.625 -2 2 C-1.34 1.34 -0.68 0.68 0 0 Z " fill="#A6B673" transform="translate(96,159)"/>
<path d="M0 0 C0 3 0 3 -1 6 C-0.01 6.33 0.98 6.66 2 7 C0.02 7.33 -1.96 7.66 -4 8 C-2.25 2.25 -2.25 2.25 0 0 Z " fill="#9BC13F" transform="translate(153,100)"/>
<path d="M0 0 C1.65 0 3.3 0 5 0 C2.525 3.465 2.525 3.465 0 7 C-1 3 -1 3 0 0 Z " fill="#7FA82F" transform="translate(152,89)"/>
<path d="M0 0 C-2.25 1.625 -2.25 1.625 -5 3 C-7.3125 2.1875 -7.3125 2.1875 -9 1 C-9 0.67 -9 0.34 -9 0 C-3.375 -1.125 -3.375 -1.125 0 0 Z " fill="#46601A" transform="translate(110,163)"/>
<path d="M0 0 C1.31554985 0.4495045 2.62738358 0.90989716 3.9375 1.375 C5.03384766 1.75785156 5.03384766 1.75785156 6.15234375 2.1484375 C8 3 8 3 9 5 C4.78087253 4.5205537 2.20336822 3.83374881 -1 1 C-0.67 0.67 -0.34 0.34 0 0 Z " fill="#A2D04A" transform="translate(212,154)"/>
<path d="M0 0 C2.52588702 2.36292656 3.88820837 3.66462511 5 7 C4.01 7 3.02 7 2 7 C2 6.34 2 5.68 2 5 C1.01 4.67 0.02 4.34 -1 4 C-0.67 2.68 -0.34 1.36 0 0 Z " fill="#A1CF45" transform="translate(180,135)"/>
<path d="M0 0 C2.4294516 3.6441774 2.16179575 5.71241272 2 10 C1.01 10 0.02 10 -1 10 C-2.15837626 5.94568308 -1.83691257 3.78187881 0 0 Z " fill="#7CA82D" transform="translate(136,97)"/>
<path d="M0 0 C1.32 0.99 2.64 1.98 4 3 C3.67 4.65 3.34 6.3 3 8 C2.01 7.34 1.02 6.68 0 6 C-0.1875 2.875 -0.1875 2.875 0 0 Z " fill="#77A32C" transform="translate(117,126)"/>
<path d="M0 0 C0.99 0 1.98 0 3 0 C3.66 1.98 4.32 3.96 5 6 C4.01 6 3.02 6 2 6 C1.34 4.02 0.68 2.04 0 0 Z " fill="#89AE39" transform="translate(180,173)"/>
<path d="M0 0 C0.66 0 1.32 0 2 0 C2.33 0.99 2.66 1.98 3 3 C2.34 3.66 1.68 4.32 1 5 C0.01 5 -0.98 5 -2 5 C-1.125 1.125 -1.125 1.125 0 0 Z " fill="#7EAD2B" transform="translate(117,150)"/>
</svg>
