<svg class="svg-icon" style="width: 1em;height: 1em;vertical-align: middle;fill: currentColor;overflow: hidden;" viewBox="0 0 1024 1024" version="1.1" xmlns="http://www.w3.org/2000/svg"><path d="M566.9 321.1l-73.7 15.8c-8.4-39.5-16.3-118.2 25.8-201.8C558.3 57.2 620.4 17 654 0l34.1 67.2C662.8 80 615.8 110.3 586.3 169c-31.7 62.9-25.8 122.3-19.4 152.1z" fill="#F57C00" /><path d="M306.5 245.1l18.4-61.3h55.2l30.7-49.1L466 147l49.1-30.7 55.2 30.7 49-12.3 36.8 42.9 55.2 6.2 24.6 61.3 55.2 18.4v61.3l55.1 30.7-6.1 61.3 42.9 43-12.2 61.3 36.8 42.9-24.6 49.1 30.7 49.1-30.7 49 12.3 49.1-42.9 36.8 6.1 55.2-61.3 24.5-12.3 49.1-49 6.1-30.7 49.1-55.2-12.3-36.8 42.9-55.2-24.5-49.1 36.8-49-36.8-43 24.5-49-42.9-43 12.3-36.8-55.2h-55.2l-6.1-49.1-61.3-30.7v-55.2l-42.9-30.6 18.4-49.1-30.7-49 30.7-49.1-12.3-55.2 36.8-36.8-12.3-61.3 43-36.8-6.2-61.4 55.2-36.8v-55.2z" fill="#7CB945" /><path d="M800 629.6c-2.1 34.2-10.3 167.1-113.3 241.3-66.5 48-141.4 49-167.3 49-91.6 0-155-40.8-167.3-49-21.3-14.1-83.2-59.4-113.3-144.5-3.3-9.3-33.3-98 0-193.5 15.8-45.4 30.2-47.2 58.1-116.1 29-71.7 20.2-86.8 38.7-116.1 39.7-63.1 140.2-89.1 212.9-77.4C701.7 247.8 810.7 456.1 800 629.6z" fill="#FFD54F" /><path d="M512.6 286c-39.8-23.4-108.3 41.9-134.1 73.2-15.5 18.7-20.5 31-18.3 42.7 4.1 21.5 31.1 32 42.7 36.6 11.2 4.4 57.3 22.5 97.6-6.1 46.1-32.8 37.3-93.4 36.6-97.6-2.4-14-6.4-38.2-24.5-48.8zM597.9 346.9c-27.6 22.5-57.3 76.7-36.6 103.7 4.8 6.3 10.7 8.9 18.3 12.2 28.2 12.3 76 14.2 91.5-12.2 12.5-21.3-2.9-49.8-12.2-67.1-2.6-4.8-24.9-46.2-48.8-42.7-5 0.8-8.6 3.2-12.2 6.1zM506.5 505.5c27.4 23.8 42.9 66.5 30.5 103.7-2.2 6.6-6.7 19.4-18.3 30.5-36 34.3-100.8 14.5-128 6.1-39.4-12.1-87.9-27-97.6-67.1-7.4-30.9 11.7-62.6 30.5-79.3 34.5-30.7 82.1-23.4 115.8-18.3 26.1 4 47.3 7.2 67.1 24.4zM591.8 511.6c-21.5 18-9.5 74.6 18.3 109.7 8.1 10.3 25.1 31.6 54.9 36.6 4.3 0.7 35.6 5.9 54.9-12.2 28.6-26.8 17.7-92.5-18.3-121.9-27.2-22.3-63.9-19.8-85.4-18.3-12.4 0.8-18.7 1.4-24.4 6.1zM427.2 700.6c21.7 34.9 6.2 86.7-24.4 103.7-12.8 7-25.5 6.6-30.5 6.1-53.1-4.9-100.6-88.7-79.3-121.9 8.6-13.5 26.9-16.1 42.7-18.3 9.3-1.4 66.7-9.5 91.5 30.4zM537 688.4c-6 2.2-53.5 20.7-67.1 67.1-2.1 7.3-7.6 26.8 0 48.8 11.2 32.3 42.6 46.2 48.8 48.8 68.1 28.1 173-43 182.9-109.7 1-6.5 3.5-23.4-6.1-36.6-8.5-11.6-22.8-15.3-67.1-18.3-51.5-3.6-77.3-5.4-91.4-0.1z" fill="#F57C00" /></svg>