<svg class="svg-icon" style="width: 1em; height: 1em;vertical-align: middle;fill: currentColor;overflow: hidden;" viewBox="0 0 1024 1024" version="1.1" xmlns="http://www.w3.org/2000/svg"><path d="M512 976c35.2 0 64 16 128 0s224-80 208-464S672 64 624 48s-80 0-112 0c-33.6 0-64-16-112 0S192 128 176 512s145.6 448 208 464c64 16 92.8 0 128 0z" fill="#C8241E" /><path d="M339.2 960c-73.6-35.2-176-137.6-163.2-448C192 128 352 64 400 48s78.4 0 112 0c32 0 64-16 112 0 16 4.8 46.4 16 78.4 44.8-12.8-6.4-22.4-9.6-30.4-12.8-48-16-80 0-112 0-33.6 0-64-16-112 0s-208 80-224 464c-9.6 246.4 52.8 360 115.2 416z" fill="#D8302A" /><path d="M353.6 966.4C678.4 816 790.4 520 684.8 78.4 750.4 124.8 836.8 235.2 848 512c16 384-144 448-208 464s-92.8 0-128 0-64 16-128 0c-8-1.6-19.2-4.8-30.4-9.6zM292.8 120C320 100.8 347.2 80 374.4 57.6c-22.4 11.2-52.8 28.8-81.6 62.4z" fill="#B61C17" /><path d="M512 984h-14.4c-4.8 0-6.4 0-19.2 3.2-36.8 4.8-59.2 4.8-96-3.2-52.8-12.8-99.2-41.6-139.2-97.6-54.4-78.4-83.2-200-75.2-374.4 8-172.8 43.2-294.4 100.8-374.4 40-54.4 80-81.6 128-97.6 28.8-9.6 48-9.6 83.2-3.2 12.8 1.6 16 3.2 22.4 3.2h9.6c8 0 14.4 0 32-3.2 35.2-4.8 54.4-4.8 83.2 3.2 48 16 88 41.6 128 97.6 57.6 80 94.4 201.6 100.8 374.4 8 174.4-20.8 296-75.2 374.4-38.4 56-84.8 83.2-139.2 97.6-36.8 9.6-60.8 9.6-97.6 3.2-12.8-1.6-14.4-1.6-19.2-3.2H512z m16-14.4c4.8 0 8 1.6 20.8 3.2 35.2 4.8 56 4.8 91.2-3.2 49.6-12.8 92.8-38.4 129.6-91.2 52.8-75.2 80-193.6 72-364.8-6.4-169.6-43.2-288-99.2-366.4-36.8-51.2-75.2-76.8-120-91.2-25.6-8-43.2-8-75.2-3.2-19.2 3.2-25.6 3.2-35.2 3.2h-11.2c-6.4 0-9.6-1.6-22.4-3.2-32-4.8-49.6-4.8-75.2 3.2-44.8 14.4-83.2 40-120 91.2-56 76.8-92.8 195.2-99.2 364.8-6.4 171.2 20.8 289.6 73.6 364.8 36.8 52.8 80 78.4 129.6 91.2 33.6 8 54.4 8 89.6 3.2 12.8-1.6 14.4-1.6 20.8-3.2 6.4 0 11.2-1.6 16-1.6 3.2 1.6 8 1.6 14.4 3.2z" fill="#7E100D" /><path d="M512 984h-14.4c-4.8 0-6.4 0-19.2 3.2-36.8 4.8-59.2 4.8-96-3.2-52.8-12.8-99.2-41.6-139.2-97.6-54.4-78.4-83.2-200-75.2-374.4 8-172.8 43.2-294.4 100.8-374.4 40-54.4 80-81.6 128-97.6 28.8-9.6 48-9.6 83.2-3.2 12.8 1.6 16 3.2 22.4 3.2h9.6c8 0 14.4 0 32-3.2 35.2-4.8 54.4-4.8 83.2 3.2 48 16 88 41.6 128 97.6 57.6 80 94.4 201.6 100.8 374.4 8 174.4-20.8 296-75.2 374.4-38.4 56-84.8 83.2-139.2 97.6-36.8 9.6-60.8 9.6-97.6 3.2-12.8-1.6-14.4-1.6-19.2-3.2H512z m16-14.4c4.8 0 8 1.6 20.8 3.2 35.2 4.8 56 4.8 91.2-3.2 49.6-12.8 92.8-38.4 129.6-91.2 52.8-75.2 80-193.6 72-364.8-6.4-169.6-43.2-288-99.2-366.4-36.8-51.2-75.2-76.8-120-91.2-25.6-8-43.2-8-75.2-3.2-19.2 3.2-25.6 3.2-35.2 3.2h-11.2c-6.4 0-9.6-1.6-22.4-3.2-32-4.8-49.6-4.8-75.2 3.2-44.8 14.4-83.2 40-120 91.2-56 76.8-92.8 195.2-99.2 364.8-6.4 171.2 20.8 289.6 73.6 364.8 36.8 52.8 80 78.4 129.6 91.2 33.6 8 54.4 8 89.6 3.2 12.8-1.6 14.4-1.6 20.8-3.2 6.4 0 11.2-1.6 16-1.6 3.2 1.6 8 1.6 14.4 3.2z" fill="#900905" /><path d="M351.714582 334.194574a64 96 14.999 1 0 49.69002-185.458626 64 96 14.999 1 0-49.69002 185.458626Z" fill="#FFEFE8" fill-opacity=".601" /><path d="M500.898855 179.06518a24 24 0 1 0 12.422504-46.364657 24 24 0 1 0-12.422504 46.364657Z" fill="#FFEDE5" fill-opacity=".9" /><path d="M504 976c48 0 88 12.8 88 0s-40-32-88-32-88 19.2-88 32 40 0 88 0z" fill="#900905" /></svg>