<svg class="svg-icon" style="width: 1em; height: 1em;vertical-align: middle;fill: currentColor;overflow: hidden;" viewBox="0 0 1024 1024" version="1.1" xmlns="http://www.w3.org/2000/svg"><path d="M848.51451 411.206275a158.418824 158.418824 0 0 0-278.889412-102.801569A146.572549 146.572549 0 1 0 365.427451 516.417255a152.997647 152.997647 0 0 0-15.861961 0 151.190588 151.190588 0 0 0-20.078431 301.17647 144.76549 144.76549 0 1 0 273.669019 11.645491 163.438431 163.438431 0 0 0 94.569412-95.974902 144.76549 144.76549 0 0 0 113.443137-220.260392 157.816471 157.816471 0 0 0 37.345883-101.797647z" fill="#FFB255" /><path d="M584.282353 731.858824m-10.24 0a10.24 10.24 0 1 0 20.48 0 10.24 10.24 0 1 0-20.48 0Z" fill="#EA9232" /><path d="M560.991373 938.465882m-10.24 0a10.24 10.24 0 1 0 20.48 0 10.24 10.24 0 1 0-20.48 0Z" fill="#EA9232" /><path d="M278.889412 752.539608m-10.24 0a10.24 10.24 0 1 0 20.48 0 10.24 10.24 0 1 0-20.48 0Z" fill="#EA9232" /><path d="M550.751373 743.102745m-10.24 0a10.24 10.24 0 1 0 20.48 0 10.24 10.24 0 1 0-20.48 0Z" fill="#EA9232" /><path d="M561.995294 700.134902m-10.24 0a10.24 10.24 0 1 0 20.48 0 10.24 10.24 0 1 0-20.48 0Z" fill="#EA9232" /><path d="M681.060392 479.071373m-10.24 0a10.24 10.24 0 1 0 20.48 0 10.24 10.24 0 1 0-20.48 0Z" fill="#EA9232" /><path d="M723.024314 479.87451m-10.24 0a10.24 10.24 0 1 0 20.48 0 10.24 10.24 0 1 0-20.48 0Z" fill="#EA9232" /><path d="M372.454902 473.85098m-10.24 0a10.24 10.24 0 1 0 20.48 0 10.24 10.24 0 1 0-20.48 0Z" fill="#EA9232" /><path d="M357.797647 437.910588m-10.24 0a10.24 10.24 0 1 0 20.48 0 10.24 10.24 0 1 0-20.48 0Z" fill="#EA9232" /><path d="M727.441569 444.737255m-10.24 0a10.24 10.24 0 1 0 20.48 0 10.24 10.24 0 1 0-20.48 0Z" fill="#EA9232" /><path d="M603.758431 680.257255m-10.24 0a10.24 10.24 0 1 0 20.48 0 10.24 10.24 0 1 0-20.48 0Z" fill="#EA9232" /><path d="M672.627451 34.133333A63.648627 63.648627 0 0 1 710.776471 10.24c6.023529 2.409412 27.90902 45.176471 71.479215 89.549804 28.109804 28.511373 40.156863 34.735686 44.574118 42.767059S806.550588 140.54902 793.098039 133.521569c-20.078431-9.637647-57.424314-32.12549-57.424314-32.125491a206.607059 206.607059 0 0 0-122.277647 76.097255l-9.838431-12.047058a346.75451 346.75451 0 0 1 51.2-48.188236 370.246275 370.246275 0 0 1 60.235294-33.330196S671.422745 43.168627 672.627451 34.133333z" fill="#604D42" /><path d="M803.137255 238.531765a282.905098 282.905098 0 0 0-126.092549-83.124706 134.726275 134.726275 0 0 0-1.606275-16.464314 155.206275 155.206275 0 0 0-66.660392 20.078431 234.716863 234.716863 0 0 0-123.281568-8.633725 317.44 317.44 0 0 0-182.512942 108.222745s104.207059 42.967843 195.162353 23.893333A324.467451 324.467451 0 0 0 471.843137 437.910588s105.612549-42.36549 157.013334-120.470588a306.396863 306.396863 0 0 0 30.519215-59.231373 264.633725 264.633725 0 0 0 36.542745 57.625098A317.44 317.44 0 0 0 879.836863 421.647059s-14.255686-113.443137-76.699608-183.115294z" fill="#73D36E" /><path d="M592.313725 519.42902a10.039216 10.039216 0 1 0-11.846274 16.263529l4.216471 3.212549a10.039216 10.039216 0 0 0 12.247843-16.062745zM496.338824 953.926275l-4.61804 3.614117a10.039216 10.039216 0 0 0 11.846275 16.062745l5.019608-3.814902a10.039216 10.039216 0 0 0-12.448628-15.86196z" fill="#604D42" /><path d="M768.200784 203.595294a297.562353 297.562353 0 0 0-117.458823-81.518431 133.923137 133.923137 0 0 0-1.606275-15.259608 10.039216 10.039216 0 0 0-9.838431-8.232157c-2.81098 0-86.538039 0-157.414902 98.183529a292.542745 292.542745 0 0 0-30.117647 53.408628c-68.065882 14.255686-145.568627-8.031373-175.887059-18.472157a308.60549 308.60549 0 0 1 167.253333-93.967059A254.795294 254.795294 0 0 1 491.921569 133.923137a10.440784 10.440784 0 0 0 10.24-9.838431 10.039216 10.039216 0 0 0-10.24-10.24 278.086275 278.086275 0 0 0-52.605491 4.417255A324.668235 324.668235 0 0 0 250.980392 230.098824a10.039216 10.039216 0 0 0 4.216471 15.259607 415.623529 415.623529 0 0 0 49.79451 16.062745 158.218039 158.218039 0 0 0 71.077647 275.07451 168.658824 168.658824 0 0 0-9.436863 230.500392 140.54902 140.54902 0 1 1-102.801569-259.413333 10.039216 10.039216 0 0 0 7.629804-12.047059 9.838431 9.838431 0 0 0-12.047059-7.629804A160.627451 160.627451 0 0 0 264.432941 803.137255a154.804706 154.804706 0 0 0 210.622745 186.729412 10.039216 10.039216 0 1 0-8.031372-18.271373 134.726275 134.726275 0 0 1-182.91451-164.040784 9.436863 9.436863 0 0 0 0-1.807059h11.243921a160.627451 160.627451 0 0 0 85.13255-24.696471 168.257255 168.257255 0 0 0 163.036862 37.145098 131.71451 131.71451 0 0 1-26.503529 114.447059 10.039216 10.039216 0 0 0 1.40549 14.054902 9.838431 9.838431 0 0 0 6.224314 2.208628 10.039216 10.039216 0 0 0 7.830588-3.814902 152.19451 152.19451 0 0 0 29.716078-134.123922 170.265098 170.265098 0 0 0 88.345098-90.553725 154.603922 154.603922 0 0 0 120.470589-228.492549 165.446275 165.446275 0 0 0 31.924706-96.978824 250.779608 250.779608 0 0 0 33.129411 7.42902h1.405491a10.039216 10.039216 0 0 0 10.039215-11.243922c-0.803137-4.417255-15.460392-116.655686-79.309804-187.532549z m-269.854117 5.019608c52.203922-72.282353 110.230588-86.337255 132.116078-89.148235A264.232157 264.232157 0 0 1 583.880784 281.098039c-38.550588 58.62902-110.431373 96.978824-140.549019 110.832941a307.802353 307.802353 0 0 1 55.014902-183.516862zM660.781176 281.098039a10.039216 10.039216 0 0 0-15.460392 12.850196 316.03451 316.03451 0 0 0 137.336471 94.569412v7.42902a146.371765 146.371765 0 0 1-93.56549 135.93098 10.039216 10.039216 0 1 0 7.228235 18.672941 164.442353 164.442353 0 0 0 60.235294-40.156863 134.52549 134.52549 0 0 1-99.388235 190.34353 167.855686 167.855686 0 0 0-33.932549-152.19451 10.039216 10.039216 0 0 0-15.460392 12.850196A148.781176 148.781176 0 1 1 552.156863 519.42902a10.039216 10.039216 0 0 0 7.830588-18.472157 167.454118 167.454118 0 0 0-40.156863-11.243922A156.009412 156.009412 0 0 0 562.396863 381.490196a10.039216 10.039216 0 0 0-20.078432 0A136.131765 136.131765 0 0 1 491.921569 487.303529a168.257255 168.257255 0 0 0-96.376471 31.723922A139.143529 139.143529 0 0 1 269.251765 381.490196a137.537255 137.537255 0 0 1 60.235294-114.246274 375.667451 375.667451 0 0 0 73.08549 7.830588 267.64549 267.64549 0 0 0 40.156863-3.212549 328.683922 328.683922 0 0 0-17.869804 136.934902 10.039216 10.039216 0 0 0 13.653333 8.031372c4.417255-1.807059 109.226667-44.373333 161.631373-124.084706a292.141176 292.141176 0 0 0 50.396862-149.182745A281.098039 281.098039 0 0 1 752.941176 216.847059c46.983529 52.203922 65.857255 131.312941 71.880785 163.036863A308.60549 308.60549 0 0 1 660.781176 281.098039z" fill="#604D42" /></svg>