<?xml version="1.0" encoding="UTF-8"?>
<svg version="1.1" xmlns="http://www.w3.org/2000/svg" width="75" height="77">
<path d="M0 0 C1.20269531 -0.02578125 2.40539063 -0.0515625 3.64453125 -0.078125 C10.69221424 0.57458213 15.18932876 4.64084797 20.3125 9.125 C20.91964844 9.64191406 21.52679688 10.15882812 22.15234375 10.69140625 C27.5736082 15.38038662 31.79303803 19.2628023 32.38037109 26.68847656 C32.4679466 29.62570602 32.52194691 32.56174426 32.5625 35.5 C32.61857422 37.01787109 32.61857422 37.01787109 32.67578125 38.56640625 C32.75423757 45.28749777 31.85102791 50.18378608 27.1875 55.25 C24.5 56.5 24.5 56.5 22.1875 57.25 C21.02083333 59.16666667 21.02083333 59.16666667 20.1875 61.25 C19 63 19 63 17.1875 64.25 C13.28615699 64.75572965 10.98887542 64.67864267 7.5 62.8125 C3.82512655 58.74034294 1.1875 53.80691695 1.1875 48.25 C0.5275 48.25 -0.1325 48.25 -0.8125 48.25 C-0.9053125 49.4875 -0.9053125 49.4875 -1 50.75 C-2.31421392 56.4112292 -4.95053708 61.00869138 -9.8125 64.25 C-13.1875 64.6875 -13.1875 64.6875 -16.8125 64.25 C-19.75 61.875 -19.75 61.875 -21.8125 59.25 C-21.8125 58.59 -21.8125 57.93 -21.8125 57.25 C-22.369375 57.04375 -22.92625 56.8375 -23.5 56.625 C-27.20028034 54.42483331 -29.8808436 51.1133128 -31.8125 47.25 C-32.08185285 43.52680895 -32.04415048 39.79433288 -32.0625 36.0625 C-32.083125 35.03318359 -32.10375 34.00386719 -32.125 32.94335938 C-32.16376901 25.37855556 -31.65136236 20.37320722 -26.39453125 14.58984375 C-25.48058594 13.79707031 -24.56664062 13.00429688 -23.625 12.1875 C-22.65175781 11.341875 -21.67851562 10.49625 -20.67578125 9.625 C-9.21391537 0.11774972 -9.21391537 0.11774972 0 0 Z " fill="#4EAA53" transform="translate(37.8125,7.75)"/>
<path d="M0 0 C1.77697266 -0.02513672 1.77697266 -0.02513672 3.58984375 -0.05078125 C10.58687536 0.68119169 15.08884483 4.72480612 20.1875 9.1875 C20.79464844 9.70441406 21.40179688 10.22132812 22.02734375 10.75390625 C27.4486082 15.44288662 31.66803803 19.3253023 32.25537109 26.75097656 C32.3429466 29.68820602 32.39694691 32.62424426 32.4375 35.5625 C32.49357422 37.08037109 32.49357422 37.08037109 32.55078125 38.62890625 C32.62923757 45.34999777 31.72602791 50.24628608 27.0625 55.3125 C24.375 56.5625 24.375 56.5625 22.0625 57.3125 C20.89583333 59.22916667 20.89583333 59.22916667 20.0625 61.3125 C18.875 63.0625 18.875 63.0625 17.0625 64.3125 C13.16115699 64.81822965 10.86387542 64.74114267 7.375 62.875 C3.70012655 58.80284294 1.0625 53.86941695 1.0625 48.3125 C0.4025 48.3125 -0.2575 48.3125 -0.9375 48.3125 C-1.1540625 49.735625 -1.1540625 49.735625 -1.375 51.1875 C-1.9375 54.3125 -1.9375 54.3125 -2.9375 56.3125 C-3.9275 56.3125 -4.9175 56.3125 -5.9375 56.3125 C-4.9475 53.0125 -3.9575 49.7125 -2.9375 46.3125 C-7.15063752 48.89783439 -9.91793774 51.43020566 -12.9375 55.3125 C-13.5975 55.3125 -14.2575 55.3125 -14.9375 55.3125 C-13.53678507 50.02091026 -10.08262755 47.53771956 -5.9375 44.3125 C-8.6821344 43.72473366 -8.6821344 43.72473366 -11.9375 44.3125 C-13.7456935 46.00608969 -15.17048532 47.78944785 -16.640625 49.78125 C-17.06859375 50.2865625 -17.4965625 50.791875 -17.9375 51.3125 C-18.5975 51.3125 -19.2575 51.3125 -19.9375 51.3125 C-18.51318513 48.24474489 -17.02969926 46.10209901 -14.9375 43.3125 C-18.2375 43.9725 -21.5375 44.6325 -24.9375 45.3125 C-24.9375 44.3225 -24.9375 43.3325 -24.9375 42.3125 C-23.2875 42.3125 -21.6375 42.3125 -19.9375 42.3125 C-19.9375 41.6525 -19.9375 40.9925 -19.9375 40.3125 C-20.906875 40.044375 -21.87625 39.77625 -22.875 39.5 C-23.885625 39.108125 -24.89625 38.71625 -25.9375 38.3125 C-26.4325 36.8275 -26.4325 36.8275 -26.9375 35.3125 C-23.67499953 35.6853572 -22.18174672 36.08889385 -19.71875 38.34375 C-16.13398141 40.88128282 -13.96596073 40.72477891 -9.625 40.5625 C-8.37074219 40.52640625 -7.11648437 40.4903125 -5.82421875 40.453125 C-4.87160156 40.40671875 -3.91898438 40.3603125 -2.9375 40.3125 C-4.47988183 37.28282141 -5.4014948 35.47801884 -7.9375 33.3125 C-11.07891946 32.60546894 -13.97936188 32.43895129 -17.1953125 32.3828125 C-19.9375 32.3125 -19.9375 32.3125 -22.9375 31.3125 C-22.9375 30.6525 -22.9375 29.9925 -22.9375 29.3125 C-19.6375 29.3125 -16.3375 29.3125 -12.9375 29.3125 C-13.9275 28.52875 -14.9175 27.745 -15.9375 26.9375 C-17.4225 25.638125 -17.4225 25.638125 -18.9375 24.3125 C-18.9375 23.6525 -18.9375 22.9925 -18.9375 22.3125 C-14.70565568 23.71804973 -12.01667939 25.74030598 -8.75 28.75 C-7.89019531 29.53246094 -7.03039062 30.31492187 -6.14453125 31.12109375 C-3.9375 33.3125 -3.9375 33.3125 -1.9375 36.3125 C-0.9905637 28.29263709 -0.9905637 28.29263709 -3.42578125 20.87890625 C-4.66409498 19.56367862 -5.93741247 18.28038632 -7.24609375 17.03515625 C-9.49787237 14.74177433 -10.24041258 12.41066631 -10.9375 9.3125 C-9.9475 9.3125 -8.9575 9.3125 -7.9375 9.3125 C-7.2878125 10.67375 -7.2878125 10.67375 -6.625 12.0625 C-4.91968608 15.56381499 -4.91968608 15.56381499 -1.9375 19.3125 C-1.6075 15.6825 -1.2775 12.0525 -0.9375 8.3125 C-0.2775 8.3125 0.3825 8.3125 1.0625 8.3125 C1.3925 11.9425 1.7225 15.5725 2.0625 19.3125 C3.2690625 17.6728125 3.2690625 17.6728125 4.5 16 C4.95246094 15.38511719 5.40492187 14.77023438 5.87109375 14.13671875 C7.23586308 12.21572899 7.23586308 12.21572899 8.0625 9.3125 C9.0525 9.6425 10.0425 9.9725 11.0625 10.3125 C7.7531776 17.76309737 7.7531776 17.76309737 4.3125 20.5 C0.59620858 25.14536427 1.68518512 30.5856986 2.0625 36.3125 C2.63871094 35.56226563 3.21492188 34.81203125 3.80859375 34.0390625 C5.79688418 31.63381688 7.74914225 29.69255914 10.125 27.6875 C12.06348224 26.04295269 13.93469299 24.44739029 15.68359375 22.6015625 C17.0625 21.3125 17.0625 21.3125 19.0625 21.3125 C18.71370368 24.56793229 18.04116739 25.33123107 15.5 27.5625 C14.695625 28.14 13.89125 28.7175 13.0625 29.3125 C16.3625 29.3125 19.6625 29.3125 23.0625 29.3125 C23.0625 29.9725 23.0625 30.6325 23.0625 31.3125 C20.03693302 32.32102233 17.90997994 32.3763109 14.75 32.4375 C11.4444568 32.68738854 9.62960453 32.86506962 7.0078125 34.93359375 C5.55001414 36.66690902 4.25355188 38.38771996 3.0625 40.3125 C5.29058159 40.42103983 7.52019932 40.49833307 9.75 40.5625 C10.99136719 40.60890625 12.23273437 40.6553125 13.51171875 40.703125 C17.67558444 40.24505397 18.96496119 39.00422527 22.0625 36.3125 C24.875 35.5625 24.875 35.5625 27.0625 35.3125 C25.75119317 24.80479135 24.42759316 18.82937613 16.0625 12.125 C15.216875 11.49207031 14.37125 10.85914063 13.5 10.20703125 C11.0625 8.3125 11.0625 8.3125 9.1796875 6.1328125 C5.42052888 2.90076837 0.9197387 3.21316694 -3.828125 3.453125 C-10.71494723 4.41271066 -15.53296998 9.49482908 -20.45410156 14.03369141 C-22.45359201 15.75741276 -24.62445536 17.05279353 -26.9375 18.3125 C-26.36755028 15.01087538 -25.49003656 13.53286186 -22.953125 11.3671875 C-22.04433594 10.58794922 -22.04433594 10.58794922 -21.1171875 9.79296875 C-20.48039062 9.26316406 -19.84359375 8.73335937 -19.1875 8.1875 C-18.56617188 7.64996094 -17.94484375 7.11242187 -17.3046875 6.55859375 C-11.63992868 1.76625559 -7.56019681 0.02462605 0 0 Z " fill="#2A552C" transform="translate(37.9375,7.6875)"/>
<path d="M0 0 C2.40099989 1.42375081 3.67720112 2.80833357 5.3828125 5 C7.26420788 7.32674984 9.32092632 8.8241214 11.75 10.5625 C15.44255034 13.41355078 17.61387001 15.4084444 19 20 C19.50777396 23.99551431 19.81124434 27.97755176 20 32 C19.16855469 32.39832031 19.16855469 32.39832031 18.3203125 32.8046875 C17.59585938 33.15789063 16.87140625 33.51109375 16.125 33.875 C15.40570313 34.22304688 14.68640625 34.57109375 13.9453125 34.9296875 C11.84864981 35.96557543 11.84864981 35.96557543 10 38 C7.41935871 38.14497985 4.95056116 38.18677545 2.375 38.125 C1.66859375 38.11597656 0.9621875 38.10695312 0.234375 38.09765625 C-1.51056098 38.07407603 -3.25532295 38.03820461 -5 38 C-3.03994394 34.47189909 -1.22604816 31.46959549 2 29 C5.453125 28.390625 5.453125 28.390625 9.25 28.25 C10.51328125 28.19328125 11.7765625 28.1365625 13.078125 28.078125 C14.52445313 28.03945313 14.52445313 28.03945313 16 28 C16 27.34 16 26.68 16 26 C12.37 26.33 8.74 26.66 5 27 C8.75 22.125 8.75 22.125 11 21 C11.495 19.515 11.495 19.515 12 18 C11.23816406 18.67095703 11.23816406 18.67095703 10.4609375 19.35546875 C7.25448915 22.17161908 4.04934995 24.98034106 0.75 27.6875 C-1.63808143 29.69565938 -3.81298083 31.780269 -6 34 C-7.07650909 21.83373858 -7.07650909 21.83373858 -4.51171875 17.46484375 C-3.28105586 16.14245444 -2.00803043 14.85792252 -0.69140625 13.62109375 C1.3626679 11.65240836 2.23391187 9.7238689 3 7 C2.34 6.67 1.68 6.34 1 6 C0.9071875 7.051875 0.9071875 7.051875 0.8125 8.125 C-0.29955094 12.05994948 -2.22233261 14.01400756 -5 17 C-5.33 17 -5.66 17 -6 17 C-6 13.04 -6 9.08 -6 5 C-6.66 5 -7.32 5 -8 5 C-8 8.96 -8 12.92 -8 17 C-10.64752004 14.42215154 -12.94432065 12.08351902 -15 9 C-15 8.01 -15 7.02 -15 6 C-15.99 6 -16.98 6 -18 6 C-17.2265625 7.423125 -17.2265625 7.423125 -16.4375 8.875 C-15.963125 9.90625 -15.48875 10.9375 -15 12 C-15.33 12.66 -15.66 13.32 -16 14 C-19 12 -19 12 -19.6875 9.375 C-19.790625 8.59125 -19.89375 7.8075 -20 7 C-20.70125 7.78375 -21.4025 8.5675 -22.125 9.375 C-25.09157086 12.08360818 -27.1582516 13.01722715 -31 14 C-23.27800103 2.92061017 -13.20368695 -1.82993529 0 0 Z " fill="#52A756" transform="translate(45,11)"/>
<path d="M0 0 C0.66 0 1.32 0 2 0 C2.33 3.63 2.66 7.26 3 11 C4.2065625 9.3603125 4.2065625 9.3603125 5.4375 7.6875 C5.88996094 7.07261719 6.34242187 6.45773438 6.80859375 5.82421875 C8.17336308 3.90322899 8.17336308 3.90322899 9 1 C9.99 1.33 10.98 1.66 12 2 C8.6906776 9.45059737 8.6906776 9.45059737 5.25 12.1875 C1.53370858 16.83286427 2.62268512 22.2731986 3 28 C3.57621094 27.24976562 4.15242188 26.49953125 4.74609375 25.7265625 C6.73438418 23.32131688 8.68664225 21.38005914 11.0625 19.375 C13.00098224 17.73045269 14.87219299 16.13489029 16.62109375 14.2890625 C18 13 18 13 20 13 C19.65120368 16.25543229 18.97866739 17.01873107 16.4375 19.25 C15.633125 19.8275 14.82875 20.405 14 21 C17.3 21 20.6 21 24 21 C24 21.66 24 22.32 24 23 C20.97443302 24.00852233 18.84747994 24.0638109 15.6875 24.125 C12.3819568 24.37488854 10.56710453 24.55256962 7.9453125 26.62109375 C6.48751414 28.35440902 5.19105188 30.07521996 4 32 C6.22808159 32.10853983 8.45769932 32.18583307 10.6875 32.25 C11.92886719 32.29640625 13.17023437 32.3428125 14.44921875 32.390625 C18.58152992 31.93602531 19.98993827 30.75569031 23 28 C25.8125 27.25 25.8125 27.25 28 27 C28 27.66 28 28.32 28 29 C23.61538462 32 23.61538462 32 21 32 C21 32.66 21 33.32 21 34 C22.65 34 24.3 34 26 34 C26 34.99 26 35.98 26 37 C23.03 36.67 20.06 36.34 17 36 C17.66 36.78375 18.32 37.5675 19 38.375 C21 41 21 41 21 43 C18.11651175 41.86720104 17.01468268 41.02075827 15.1875 38.4375 C12.31289918 35.23437338 10.19231053 35.24186407 6 35 C6 35.66 6 36.32 6 37 C4.02 37 2.04 37 0 37 C-0.06058594 37.62648437 -0.12117188 38.25296875 -0.18359375 38.8984375 C-0.30927734 40.12433594 -0.30927734 40.12433594 -0.4375 41.375 C-0.51871094 42.18710937 -0.59992187 42.99921875 -0.68359375 43.8359375 C-1 46 -1 46 -2 48 C-2.99 48 -3.98 48 -5 48 C-4.01 44.7 -3.02 41.4 -2 38 C-6.21313752 40.58533439 -8.98043774 43.11770566 -12 47 C-12.66 47 -13.32 47 -14 47 C-12.59928507 41.70841026 -9.14512755 39.22521956 -5 36 C-7.7446344 35.41223366 -7.7446344 35.41223366 -11 36 C-12.8081935 37.69358969 -14.23298532 39.47694785 -15.703125 41.46875 C-16.13109375 41.9740625 -16.5590625 42.479375 -17 43 C-17.66 43 -18.32 43 -19 43 C-17.57568513 39.93224489 -16.09219926 37.78959901 -14 35 C-17.3 35.66 -20.6 36.32 -24 37 C-24 36.01 -24 35.02 -24 34 C-22.35 34 -20.7 34 -19 34 C-19 33.34 -19 32.68 -19 32 C-19.969375 31.731875 -20.93875 31.46375 -21.9375 31.1875 C-22.948125 30.795625 -23.95875 30.40375 -25 30 C-25.33 29.01 -25.66 28.02 -26 27 C-22.73749953 27.3728572 -21.24424672 27.77639385 -18.78125 30.03125 C-15.19648141 32.56878282 -13.02846073 32.41227891 -8.6875 32.25 C-7.43324219 32.21390625 -6.17898437 32.1778125 -4.88671875 32.140625 C-3.93410156 32.09421875 -2.98148438 32.0478125 -2 32 C-3.54238183 28.97032141 -4.4639948 27.16551884 -7 25 C-10.14141946 24.29296894 -13.04186188 24.12645129 -16.2578125 24.0703125 C-19 24 -19 24 -22 23 C-22 22.34 -22 21.68 -22 21 C-18.7 21 -15.4 21 -12 21 C-12.99 20.21625 -13.98 19.4325 -15 18.625 C-16.485 17.325625 -16.485 17.325625 -18 16 C-18 15.34 -18 14.68 -18 14 C-13.76815568 15.40554973 -11.07917939 17.42780598 -7.8125 20.4375 C-6.95269531 21.21996094 -6.09289062 22.00242187 -5.20703125 22.80859375 C-3 25 -3 25 -1 28 C-0.0530637 19.98013709 -0.0530637 19.98013709 -2.48828125 12.56640625 C-3.72659498 11.25117862 -4.99991247 9.96788632 -6.30859375 8.72265625 C-8.56037237 6.42927433 -9.30291258 4.09816631 -10 1 C-9.01 1 -8.02 1 -7 1 C-6.566875 1.9075 -6.13375 2.815 -5.6875 3.75 C-3.98218608 7.25131499 -3.98218608 7.25131499 -1 11 C-0.67 7.37 -0.34 3.74 0 0 Z " fill="#052305" transform="translate(37,16)"/>
<path d="M0 0 C0.33 0 0.66 0 1 0 C0.67 6.27 0.34 12.54 0 19 C0.99 19.33 1.98 19.66 3 20 C3.33 21.65 3.66 23.3 4 25 C7.3 24.67 10.6 24.34 14 24 C12.47524303 27.04951395 11.07114674 29.36399506 9 32 C9.94875 31.236875 10.8975 30.47375 11.875 29.6875 C12.40867187 29.25824219 12.94234375 28.82898438 13.4921875 28.38671875 C15.25292107 26.87729455 15.25292107 26.87729455 17 24 C20.625 23.8125 20.625 23.8125 24 24 C22.9171875 25.0209375 22.9171875 25.0209375 21.8125 26.0625 C18.76544307 29.09214518 16.42792046 32.46217304 14 36 C14.721875 35.2575 15.44375 34.515 16.1875 33.75 C23.09090909 27 23.09090909 27 26 27 C24.125 34.75 24.125 34.75 23 37 C23.66 37 24.32 37 25 37 C23.74334744 40.87467873 22.68812681 43.10609704 19 45 C15.5625 45.5 15.5625 45.5 12 45 C9.0625 42.625 9.0625 42.625 7 40 C7 39.34 7 38.68 7 38 C6.443125 37.79375 5.88625 37.5875 5.3125 37.375 C1.61221966 35.17483331 -1.0683436 31.8633128 -3 28 C-3.26855112 24.23499463 -3.23160387 20.46100555 -3.25 16.6875 C-3.2809375 15.11838867 -3.2809375 15.11838867 -3.3125 13.51757812 C-3.31765625 12.50501953 -3.3228125 11.49246094 -3.328125 10.44921875 C-3.3374707 9.52455811 -3.34681641 8.59989746 -3.35644531 7.6472168 C-2.93079734 4.48605173 -1.8413199 2.57860585 0 0 Z " fill="#5A8F5A" transform="translate(9,27)"/>
<path d="M0 0 C3.625 -0.1875 3.625 -0.1875 7 0 C5.9171875 1.0209375 5.9171875 1.0209375 4.8125 2.0625 C1.76544307 5.09214518 -0.57207954 8.46217304 -3 12 C-1.9171875 10.88625 -1.9171875 10.88625 -0.8125 9.75 C6.09090909 3 6.09090909 3 9 3 C7.60771405 9.7293821 6.00208796 14.99860802 0 19 C-3.50727894 18.70076787 -5.14234745 17.18982669 -7.5 14.6875 C-8.09941406 14.06101562 -8.69882812 13.43453125 -9.31640625 12.7890625 C-9.87199219 12.19867188 -10.42757813 11.60828125 -11 11 C-11.804375 10.195625 -12.60875 9.39125 -13.4375 8.5625 C-13.953125 8.046875 -14.46875 7.53125 -15 7 C-10.25 6 -10.25 6 -8 6 C-8 6.66 -8 7.32 -8 8 C-7.05125 7.236875 -6.1025 6.47375 -5.125 5.6875 C-4.59132813 5.25824219 -4.05765625 4.82898437 -3.5078125 4.38671875 C-1.74707893 2.87729455 -1.74707893 2.87729455 0 0 Z " fill="#53A355" transform="translate(26,51)"/>
<path d="M0 0 C5 5.16483516 5 5.16483516 5 8 C3.68 7.34 2.36 6.68 1 6 C0.01 6.99 -0.98 7.98 -2 9 C-1.34 10.32 -0.68 11.64 0 13 C1.32 13 2.64 13 4 13 C5.35827971 11.35360035 6.69254251 9.68704193 8 8 C8.99 8 9.98 8 11 8 C11.2475 7.360625 11.495 6.72125 11.75 6.0625 C13 4 13 4 15.125 3.25 C15.74375 3.1675 16.3625 3.085 17 3 C17 3.66 17 4.32 17 5 C16.34 5 15.68 5 15 5 C15 5.66 15 6.32 15 7 C14.01 7.495 14.01 7.495 13 8 C12.71125 8.763125 12.4225 9.52625 12.125 10.3125 C10.81192487 13.44929058 9.7526171 14.99133347 7 17 C3.05396419 17.57396884 0.84064308 17.4496463 -2.6875 15.5625 C-6.36237345 11.49034294 -9 6.55691695 -9 1 C-9.66 1 -10.32 1 -11 1 C-11 0.01 -11 -0.98 -11 -2 C-6.15055511 -3.24055567 -3.94881059 -3.13879816 0 0 Z " fill="#293C2A" transform="translate(48,55)"/>
<path d="M0 0 C1.77697266 -0.02513672 1.77697266 -0.02513672 3.58984375 -0.05078125 C10.58322169 0.68080947 15.21875743 4.77405998 20.375 9.1875 C21.00728516 9.70441406 21.63957031 10.22132812 22.29101562 10.75390625 C26.84498798 14.6294197 26.84498798 14.6294197 27.98046875 18.1953125 C28.00753906 18.89398437 28.03460938 19.59265625 28.0625 20.3125 C27.11375 19.4875 26.165 18.6625 25.1875 17.8125 C22.11743485 15.18637502 19.01153876 12.6089048 15.875 10.0625 C15.05644531 9.39734375 14.23789062 8.7321875 13.39453125 8.046875 C7.51950962 3.67751218 1.32093488 2.90115775 -5.88867188 3.77246094 C-11.69621958 5.30323972 -16.14947638 10.0634458 -20.45410156 14.03369141 C-22.45359201 15.75741276 -24.62445536 17.05279353 -26.9375 18.3125 C-26.36755028 15.01087538 -25.49003656 13.53286186 -22.953125 11.3671875 C-22.04433594 10.58794922 -22.04433594 10.58794922 -21.1171875 9.79296875 C-20.48039062 9.26316406 -19.84359375 8.73335937 -19.1875 8.1875 C-18.56617188 7.64996094 -17.94484375 7.11242187 -17.3046875 6.55859375 C-11.63992868 1.76625559 -7.56019681 0.02462605 0 0 Z " fill="#2D3F2E" transform="translate(37.9375,7.6875)"/>
<path d="M0 0 C3.125 -0.4375 3.125 -0.4375 7 0 C8.8675776 1.64414281 10.26341158 3.37092804 11.73828125 5.37109375 C12.92106765 7.14105662 12.92106765 7.14105662 15 8 C13.35 5.69 11.7 3.38 10 1 C12.63250388 -0.31625194 13.80179056 0.25186342 16.625 0.9375 C17.44226563 1.13214844 18.25953125 1.32679687 19.1015625 1.52734375 C20.04128906 1.76130859 20.04128906 1.76130859 21 2 C19.01533606 8.7173241 16.97601647 11.47568259 11 15 C10.01 16.485 10.01 16.485 9 18 C6.625 17.75 6.625 17.75 4 17 C2.6875 14.9375 2.6875 14.9375 2 13 C3.32 11.68 4.64 10.36 6 9 C7.32 9.99 8.64 10.98 10 12 C5.39353807 5.66476557 5.39353807 5.66476557 0 0 Z " fill="#52A555" transform="translate(43,51)"/>
<path d="M0 0 C5 5.16483516 5 5.16483516 5 8 C3.68 7.34 2.36 6.68 1 6 C0.54625 6.495 0.0925 6.99 -0.375 7.5 C-2 9 -2 9 -4 9 C-4.99 6.69 -5.98 4.38 -7 2 C-7.66 2.66 -8.32 3.32 -9 4 C-9 3.01 -9 2.02 -9 1 C-9.66 1 -10.32 1 -11 1 C-11 0.01 -11 -0.98 -11 -2 C-6.15055511 -3.24055567 -3.94881059 -3.13879816 0 0 Z " fill="#52A056" transform="translate(48,55)"/>
<path d="M0 0 C0.7425 1.0209375 0.7425 1.0209375 1.5 2.0625 C4.1748067 5.20539787 7.05948389 7.7808061 10.1953125 10.44921875 C12 12 12 12 14 14 C16.50324332 13.98333671 16.50324332 13.98333671 19 13 C20.03145371 11.69084721 21.03542166 10.35917857 22 9 C22.99 9 23.98 9 25 9 C23.74334744 12.87467873 22.68812681 15.10609704 19 17 C15.5625 17.5 15.5625 17.5 12 17 C9.0625 14.625 9.0625 14.625 7 12 C7 11.34 7 10.68 7 10 C6.401875 9.731875 5.80375 9.46375 5.1875 9.1875 C2.92899048 7.96145198 1.52937348 7.06465419 0 5 C-0.1875 2.3125 -0.1875 2.3125 0 0 Z " fill="#2C382B" transform="translate(9,55)"/>
<path d="M0 0 C4.09644177 -0.77691137 7.02234708 -1.15655145 10.73583984 1.01513672 C15.05770676 4.05594029 19.06795194 7.47586197 23 11 C23.81855469 11.69609375 24.63710938 12.3921875 25.48046875 13.109375 C25.98191406 13.73328125 26.48335937 14.3571875 27 15 C26.75 17.25 26.75 17.25 26 19 C25.27554688 18.33613281 24.55109375 17.67226563 23.8046875 16.98828125 C21.81226846 15.16853852 19.81601229 13.3542729 17.8125 11.546875 C16.27712942 10.15651164 14.74771209 8.75897495 13.25 7.328125 C9.33294137 3.72265058 5.02988847 2.37483618 0 1 C0 0.67 0 0.34 0 0 Z " fill="#384739" transform="translate(39,9)"/>
<path d="M0 0 C4.15635893 1.71987266 7.26125704 4.59426668 10.625 7.5 C11.21023437 7.99886719 11.79546875 8.49773438 12.3984375 9.01171875 C14.66496018 10.9507393 16.89013044 12.89013044 19 15 C19.66 14.34 20.32 13.68 21 13 C23 16 23 16 22.62890625 17.859375 C22.31759766 18.91898438 22.31759766 18.91898438 22 20 C21.93375493 21.74886981 21.91447405 23.50002748 21.9375 25.25 C21.94652344 26.14203125 21.95554687 27.0340625 21.96484375 27.953125 C21.97644531 28.62859375 21.98804687 29.3040625 22 30 C21.34 30 20.68 30 20 30 C19.95875 28.700625 19.9175 27.40125 19.875 26.0625 C19.05941107 19.12455688 15.6789834 14.34619043 10.484375 9.796875 C8.76923518 8.44281725 7.03221818 7.11577277 5.26953125 5.82421875 C3.0652698 4.05246299 1.57946538 2.33061178 0 0 Z " fill="#357A38" transform="translate(46,12)"/>
<path d="M0 0 C0.53625 0.226875 1.0725 0.45375 1.625 0.6875 C0.965 1.3475 0.305 2.0075 -0.375 2.6875 C-1.365 2.6875 -2.355 2.6875 -3.375 2.6875 C-3.6225 3.265 -3.87 3.8425 -4.125 4.4375 C-5.54183317 6.9877997 -7.25127537 8.70535701 -9.375 10.6875 C-11.3125 10 -11.3125 10 -13.375 8.6875 C-14.125 6.0625 -14.125 6.0625 -14.375 3.6875 C-13.385 3.3575 -12.395 3.0275 -11.375 2.6875 C-10.385 3.6775 -9.395 4.6675 -8.375 5.6875 C-8.375 4.6975 -8.375 3.7075 -8.375 2.6875 C-2.95961538 -0.38942308 -2.95961538 -0.38942308 0 0 Z " fill="#47AF4E" transform="translate(57.375,24.3125)"/>
<path d="M0 0 C0.680625 0.28875 1.36125 0.5775 2.0625 0.875 C1.92142253 2.33380109 1.77447585 3.79203551 1.625 5.25 C1.54378906 6.06210937 1.46257813 6.87421875 1.37890625 7.7109375 C1.0625 9.875 1.0625 9.875 0.0625 11.875 C-0.9275 11.875 -1.9175 11.875 -2.9375 11.875 C-1.9475 8.575 -0.9575 5.275 0.0625 1.875 C-4.15063752 4.46033439 -6.91793774 6.99270566 -9.9375 10.875 C-10.5975 10.875 -11.2575 10.875 -11.9375 10.875 C-10.46988691 5.33068389 -6.05533197 -0.2576737 0 0 Z " fill="#203421" transform="translate(34.9375,52.125)"/>
<path d="M0 0 C0.33 0 0.66 0 1 0 C0.83628906 1.11375 0.67257812 2.2275 0.50390625 3.375 C-0.10669314 8.25979515 -0.11158497 13.08395145 -0.0625 18 C-0.05798828 18.87011719 -0.05347656 19.74023438 -0.04882812 20.63671875 C-0.0371736 22.75784293 -0.01924357 24.8789311 0 27 C-0.66 27 -1.32 27 -2 27 C-3.21433695 22.66282158 -3.22122571 18.54049948 -3.25 14.0625 C-3.270625 13.26392578 -3.29125 12.46535156 -3.3125 11.64257812 C-3.34370447 6.93460336 -3.06429028 3.83036285 0 0 Z " fill="#282E26" transform="translate(9,27)"/>
<path d="M0 0 C2.90462126 1.3020716 5.10337054 2.4136871 7 5 C7.29296875 8.35546875 7.29296875 8.35546875 7.1875 12.1875 C7.16042969 13.45980469 7.13335937 14.73210938 7.10546875 16.04296875 C7.07066406 17.01878906 7.03585938 17.99460937 7 19 C6.01 18.34 5.02 17.68 4 17 C3.77734375 14.90625 3.77734375 14.90625 3.9375 12.5 C4.12914051 10.14664364 4.12914051 10.14664364 4 8 C3.34 7.34 2.68 6.68 2 6 C1.01 6.99 0.02 7.98 -1 9 C-0.625 6.5625 -0.625 6.5625 0 4 C0.66 3.67 1.32 3.34 2 3 C1.34 2.67 0.68 2.34 0 2 C0 1.34 0 0.68 0 0 Z " fill="#51AB56" transform="translate(30,26)"/>
<path d="M0 0 C1.32 0.33 2.64 0.66 4 1 C4.12375 1.804375 4.2475 2.60875 4.375 3.4375 C4.58125 4.283125 4.7875 5.12875 5 6 C5.66 6.33 6.32 6.66 7 7 C3.7 7 0.4 7 -3 7 C-2.67 6.34 -2.34 5.68 -2 5 C-4.64 4.67 -7.28 4.34 -10 4 C-10 3.67 -10 3.34 -10 3 C-6.7 3 -3.4 3 0 3 C0 2.01 0 1.02 0 0 Z " fill="#030903" transform="translate(36,46)"/>
<path d="M0 0 C5.02692063 0.45699278 8.14896261 2.99241748 12 6 C11.67 6.66 11.34 7.32 11 8 C8.93359375 8.6328125 8.93359375 8.6328125 6.4375 9.125 C5.61121094 9.29257812 4.78492188 9.46015625 3.93359375 9.6328125 C3.29550781 9.75398438 2.65742188 9.87515625 2 10 C2 9.01 2 8.02 2 7 C3.65 7 5.3 7 7 7 C7 6.34 7 5.68 7 5 C5.5459375 4.5978125 5.5459375 4.5978125 4.0625 4.1875 C3.051875 3.795625 2.04125 3.40375 1 3 C0.67 2.01 0.34 1.02 0 0 Z " fill="#022402" transform="translate(11,43)"/>
<path d="M0 0 C0.33 0 0.66 0 1 0 C1 3.63 1 7.26 1 11 C1.99 11.33 2.98 11.66 4 12 C4.73046875 14.06640625 4.73046875 14.06640625 5.1875 16.5625 C5.34605469 17.38878906 5.50460938 18.21507813 5.66796875 19.06640625 C5.77753906 19.70449219 5.88710937 20.34257813 6 21 C4.68 20.34 3.36 19.68 2 19 C2 18.34 2 17.68 2 17 C1.34 17 0.68 17 0 17 C0 11.39 0 5.78 0 0 Z " fill="#43994A" transform="translate(8,35)"/>
<path d="M0 0 C0.99 0 1.98 0 3 0 C3 0.66 3 1.32 3 2 C2.34 2 1.68 2 1 2 C1 2.66 1 3.32 1 4 C0.01 4.495 0.01 4.495 -1 5 C-1.309375 5.78375 -1.61875 6.5675 -1.9375 7.375 C-2.99628491 9.99082154 -3.77236992 11.30700114 -6 13 C-6.99 13 -7.98 13 -9 13 C-9 12.34 -9 11.68 -9 11 C-8.34 11 -7.68 11 -7 11 C-6.7525 10.46375 -6.505 9.9275 -6.25 9.375 C-4.52713402 6.10155465 -2.63127385 2.63127385 0 0 Z " fill="#285229" transform="translate(62,58)"/>
<path d="M0 0 C1.5625 1.25 1.5625 1.25 3 3 C2.69439495 4.33996061 2.35528716 5.67234797 2 7 C1.93375493 8.74886981 1.91447405 10.50002748 1.9375 12.25 C1.95103516 13.58804688 1.95103516 13.58804688 1.96484375 14.953125 C1.97644531 15.62859375 1.98804687 16.3040625 2 17 C1.34 17 0.68 17 0 17 C-0.07347656 16.07767578 -0.07347656 16.07767578 -0.1484375 15.13671875 C-0.22320312 14.32847656 -0.29796875 13.52023438 -0.375 12.6875 C-0.44460937 11.88699219 -0.51421875 11.08648437 -0.5859375 10.26171875 C-0.89564426 7.72775559 -0.89564426 7.72775559 -3 5 C-2.01 3.35 -1.02 1.7 0 0 Z " fill="#416D43" transform="translate(66,25)"/>
<path d="M0 0 C1.27230469 0.01804687 2.54460938 0.03609375 3.85546875 0.0546875 C5.31919922 0.08949219 5.31919922 0.08949219 6.8125 0.125 C5.8225 1.61 5.8225 1.61 4.8125 3.125 C2.60546875 3.453125 2.60546875 3.453125 0 3.375 C-1.33611328 3.33632812 -1.33611328 3.33632812 -2.69921875 3.296875 C-5.26589181 3.11958518 -7.69907815 2.78857916 -10.1875 2.125 C-6.4507157 -0.36618953 -4.44298181 -0.0815226 0 0 Z " fill="#3A513D" transform="translate(38.1875,7.875)"/>
<path d="M0 0 C0.66 0.33 1.32 0.66 2 1 C0.63016497 4.16115776 0.0109362 4.9927092 -3 7 C-5.125 6.8125 -5.125 6.8125 -7 6 C-7.33 5.01 -7.66 4.02 -8 3 C-5.34771188 1.92474806 -2.71631546 0.90543849 0 0 Z " fill="#47AA4E" transform="translate(29,61)"/>
<path d="M0 0 C0.66 0.33 1.32 0.66 2 1 C1.01 2.32 0.02 3.64 -1 5 C-0.401875 4.773125 0.19625 4.54625 0.8125 4.3125 C1.8953125 4.1578125 1.8953125 4.1578125 3 4 C3.99 4.99 4.98 5.98 6 7 C0.06 7.495 0.06 7.495 -6 8 C-2.625 2.375 -2.625 2.375 0 0 Z " fill="#59A35B" transform="translate(46,41)"/>
<path d="M0 0 C1.32 0 2.64 0 4 0 C4 1.98 4 3.96 4 6 C0.25 7.125 0.25 7.125 -2 6 C-2.625 3.9375 -2.625 3.9375 -3 2 C-2.01 2 -1.02 2 0 2 C0 1.34 0 0.68 0 0 Z " fill="#4DA24F" transform="translate(61,37)"/>
<path d="M0 0 C0.99 0.495 0.99 0.495 2 1 C2 2.65 2 4.3 2 6 C2.66 5.01 3.32 4.02 4 3 C4.66 3 5.32 3 6 3 C5.52797514 7.24822374 3.03344482 9.19989709 0 12 C0 8.04 0 4.08 0 0 Z " fill="#569A57" transform="translate(39,16)"/>
<path d="M0 0 C0.99 0.33 1.98 0.66 3 1 C2.34 1 1.68 1 1 1 C2.05219189 4.15657568 2.55574001 4.69307623 5.0625 6.625 C6.5165625 7.800625 6.5165625 7.800625 8 9 C8 9.33 8 9.66 8 10 C5.03 9.67 2.06 9.34 -1 9 C0.32 8.67 1.64 8.34 3 8 C3 7.34 3 6.68 3 6 C1.68 5.34 0.36 4.68 -1 4 C-0.67 2.68 -0.34 1.36 0 0 Z " fill="#57A05C" transform="translate(18,28)"/>
<path d="M0 0 C0.99 0.33 1.98 0.66 3 1 C-0.85421412 9.6309795 -0.85421412 9.6309795 -5 12 C-5 7.98905773 -3.23899001 6.25671275 -1 3 C-0.67 2.01 -0.34 1.02 0 0 Z " fill="#022803" transform="translate(46,17)"/>
<path d="M0 0 C0.66 0 1.32 0 2 0 C2.0270043 1.45823212 2.04639787 2.91660675 2.0625 4.375 C2.07410156 5.18710937 2.08570312 5.99921875 2.09765625 6.8359375 C2 9 2 9 1 11 C0.01 11 -0.98 11 -2 11 C-1.34 7.37 -0.68 3.74 0 0 Z " fill="#233023" transform="translate(68,46)"/>
<path d="M0 0 C3.0625 0.375 3.0625 0.375 4.9375 2.375 C5.494375 3.365 5.494375 3.365 6.0625 4.375 C5.4025 5.035 4.7425 5.695 4.0625 6.375 C3.7325 5.385 3.4025 4.395 3.0625 3.375 C2.299375 3.58125 1.53625 3.7875 0.75 4 C-1.9375 4.375 -1.9375 4.375 -4.9375 2.375 C-2.9375 0.375 -2.9375 0.375 0 0 Z " fill="#45AB4B" transform="translate(38.9375,11.625)"/>
<path d="M0 0 C0.99 0.33 1.98 0.66 3 1 C1.71937515 2.7074998 0.38232443 4.37373596 -1 6 C-1.66 6 -2.32 6 -3 6 C-3 6.66 -3 7.32 -3 8 C-2.34 8.33 -1.68 8.66 -1 9 C-3.31 9 -5.62 9 -8 9 C-7.04270084 7.87411986 -6.08412105 6.7493285 -5.125 5.625 C-4.59132812 4.99851562 -4.05765625 4.37203125 -3.5078125 3.7265625 C-2.38567993 2.44163349 -1.20628025 1.20628025 0 0 Z " fill="#3B693D" transform="translate(56,63)"/>
<path d="M0 0 C4.28904235 1.5885342 6.32345526 4.43127368 9 8 C9 8.66 9 9.32 9 10 C5.18622154 8.50172989 3.42634455 6.23512607 1 3 C0.34 2.34 -0.32 1.68 -1 1 C-0.67 0.67 -0.34 0.34 0 0 Z " fill="#012802" transform="translate(44,53)"/>
<path d="M0 0 C1.65 0 3.3 0 5 0 C5 0.66 5 1.32 5 2 C5.99 2.33 6.98 2.66 8 3 C4.77208445 5.1519437 3.71599191 5.20086443 0 5 C0 3.35 0 1.7 0 0 Z " fill="#49A750" transform="translate(10,37)"/>
<path d="M0 0 C-1.67401978 3.95677402 -4.13149285 6.84464213 -7 10 C-7.66 10 -8.32 10 -9 10 C-7.6834994 5.81113445 -4.97532335 0 0 0 Z " fill="#022504" transform="translate(32,53)"/>
<path d="M0 0 C-1.36983503 3.16115776 -1.9890638 3.9927092 -5 6 C-5.99 4.35 -6.98 2.7 -8 1 C-5.10765685 0.17361624 -3.11257569 0 0 0 Z " fill="#509751" transform="translate(23,51)"/>
<path d="M0 0 C0 3 0 3 -1.6875 4.75 C-4 6 -4 6 -6.75 5.6875 C-7.4925 5.460625 -8.235 5.23375 -9 5 C-8.34 3.68 -7.68 2.36 -7 1 C-6.34 1.33 -5.68 1.66 -5 2 C-2.39068734 1.10636395 -2.39068734 1.10636395 0 0 Z " fill="#4C8C51" transform="translate(17,23)"/>
<path d="M0 0 C0.33 0.66 0.66 1.32 1 2 C2.32 1.67 3.64 1.34 5 1 C5.33 2.32 5.66 3.64 6 5 C5.01 5.33 4.02 5.66 3 6 C2.67 6.66 2.34 7.32 2 8 C2 7.01 2 6.02 2 5 C1.01 5 0.02 5 -1 5 C-0.67 3.35 -0.34 1.7 0 0 Z " fill="#48A64E" transform="translate(28,12)"/>
<path d="M0 0 C0.33 0 0.66 0 1 0 C0.33333333 5.33333333 -0.33333333 10.66666667 -1 16 C-1.33 16 -1.66 16 -2 16 C-2.05384521 13.70858714 -2.09272087 11.41681812 -2.125 9.125 C-2.14820313 7.84882812 -2.17140625 6.57265625 -2.1953125 5.2578125 C-2 2 -2 2 0 0 Z " fill="#0E1F0F" transform="translate(9,27)"/>
<path d="M0 0 C0 1.65 0 3.3 0 5 C-2.31 4.67 -4.62 4.34 -7 4 C-7 3.34 -7 2.68 -7 2 C-4 0 -4 0 0 0 Z " fill="#519F53" transform="translate(65,46)"/>
<path d="M0 0 C1.65 0.33 3.3 0.66 5 1 C5.33 2.32 5.66 3.64 6 5 C3.69 5 1.38 5 -1 5 C-0.67 3.35 -0.34 1.7 0 0 Z " fill="#4DAD57" transform="translate(27,42)"/>
<path d="M0 0 C3 1 3 1 4 3 C7.465 2.505 7.465 2.505 11 2 C9.25 4.0625 9.25 4.0625 7 6 C4.3561455 5.9198832 3.28266927 5.23219261 1.25 3.5625 C0 2 0 2 0 0 Z " fill="#599E5D" transform="translate(19,64)"/>
<path d="M0 0 C1.04449911 3.13349732 0.93423645 3.98968256 0 7 C0.99 6.67 1.98 6.34 3 6 C3.33 6.99 3.66 7.98 4 9 C1.625 8.75 1.625 8.75 -1 8 C-2.3125 5.9375 -2.3125 5.9375 -3 4 C-2.01 2.68 -1.02 1.36 0 0 Z " fill="#58A45D" transform="translate(48,60)"/>
<path d="M0 0 C2.97 0 5.94 0 9 0 C9 0.66 9 1.32 9 2 C6.36 2 3.72 2 1 2 C1 2.66 1 3.32 1 4 C0.34 4 -0.32 4 -1 4 C-0.67 2.68 -0.34 1.36 0 0 Z " fill="#113113" transform="translate(42,48)"/>
<path d="M0 0 C4.31392226 0.4793247 6.16569547 1.7457985 9 5 C8.34 5.66 7.68 6.32 7 7 C7 6.34 7 5.68 7 5 C5.5459375 4.5978125 5.5459375 4.5978125 4.0625 4.1875 C3.051875 3.795625 2.04125 3.40375 1 3 C0.67 2.01 0.34 1.02 0 0 Z " fill="#073109" transform="translate(11,43)"/>
<path d="M0 0 C0.99 0 1.98 0 3 0 C1.52307692 4.67692308 1.52307692 4.67692308 -1.125 6.3125 C-2.053125 6.6528125 -2.053125 6.6528125 -3 7 C-2.38722388 4.03824877 -1.74627478 2.61941217 0 0 Z " fill="#3B493B" transform="translate(31,64)"/>
<path d="M0 0 C0.99 0 1.98 0 3 0 C1.98823563 3.40320742 1.35156418 4.75725331 -1.625 6.8125 C-2.40875 7.204375 -3.1925 7.59625 -4 8 C-4.33 7.01 -4.66 6.02 -5 5 C-4.01 5 -3.02 5 -2 5 C-2 4.34 -2 3.68 -2 3 C-1.34 3 -0.68 3 0 3 C0 2.01 0 1.02 0 0 Z " fill="#444D45" transform="translate(65,57)"/>
<path d="M0 0 C3.53586014 3.17320782 5.58578031 5.16743695 6 10 C2.46413986 6.82679218 0.41421969 4.83256305 0 0 Z " fill="#062B08" transform="translate(30,38)"/>
<path d="M0 0 C0.33 0.66 0.66 1.32 1 2 C0.01 2 -0.98 2 -2 2 C-2.33 3.65 -2.66 5.3 -3 7 C-3.33 6.01 -3.66 5.02 -4 4 C-4.66 4 -5.32 4 -6 4 C-6 3.01 -6 2.02 -6 1 C-4.02 0.67 -2.04 0.34 0 0 Z " fill="#4E594F" transform="translate(43,52)"/>
<path d="M0 0 C3.625 -0.1875 3.625 -0.1875 7 0 C7.33 0.66 7.66 1.32 8 2 C1.375 3 1.375 3 -2 3 C-1.34 2.01 -0.68 1.02 0 0 Z " fill="#48994C" transform="translate(23,40)"/>
<path d="M0 0 C0.66 0 1.32 0 2 0 C1.42655063 2.86724686 1.1385485 3.8614515 -1 6 C-1.99 6 -2.98 6 -4 6 C-4 5.34 -4 4.68 -4 4 C-3.34 4 -2.68 4 -2 4 C-1.34 2.68 -0.68 1.36 0 0 Z " fill="#1C2B1D" transform="translate(57,65)"/>
<path d="M0 0 C-1.28519565 2.86697492 -2.57129254 4.97607712 -5 7 C-5.66 7 -6.32 7 -7 7 C-3.86206897 0 -3.86206897 0 0 0 Z " fill="#002000" transform="translate(25,52)"/>
<path d="M0 0 C0.33 0 0.66 0 1 0 C1 4.62 1 9.24 1 14 C0.01 13.34 -0.98 12.68 -2 12 C-2 11.34 -2 10.68 -2 10 C-1.34 10 -0.68 10 0 10 C0 6.7 0 3.4 0 0 Z " fill="#60955F" transform="translate(36,31)"/>
<path d="M0 0 C0.99 0.33 1.98 0.66 3 1 C0.03 3.475 0.03 3.475 -3 6 C-3.33 4.35 -3.66 2.7 -4 1 C-2.68 1.33 -1.36 1.66 0 2 C0 1.34 0 0.68 0 0 Z " fill="#4C9751" transform="translate(48,33)"/>
<path d="M0 0 C0.99 0 1.98 0 3 0 C4.6875 2 4.6875 2 6 4 C4.35 5.32 2.7 6.64 1 8 C1.020625 7.05125 1.04125 6.1025 1.0625 5.125 C1.22551826 2.09333717 1.22551826 2.09333717 0 0 Z " fill="#52AD55" transform="translate(39,15)"/>
<path d="M0 0 C2.97 0 5.94 0 9 0 C9.33 1.32 9.66 2.64 10 4 C6.7 3.01 3.4 2.02 0 1 C0 0.67 0 0.34 0 0 Z " fill="#152214" transform="translate(39,9)"/>
<path d="M0 0 C2.125 0.9375 2.125 0.9375 4 2 C4 2.66 4 3.32 4 4 C2.02 4.33 0.04 4.66 -2 5 C-2 3.68 -2 2.36 -2 1 C-1.34 0.67 -0.68 0.34 0 0 Z " fill="#559F57" transform="translate(14,46)"/>
<path d="M0 0 C0 0.66 0 1.32 0 2 C-1.98 2.99 -3.96 3.98 -6 5 C-6.66 4.34 -7.32 3.68 -8 3 C-3.375 0 -3.375 0 0 0 Z " fill="#08330A" transform="translate(65,43)"/>
<path d="M0 0 C1.65 0 3.3 0 5 0 C5 0.99 5 1.98 5 3 C5.66 3.33 6.32 3.66 7 4 C5.68 4 4.36 4 3 4 C1.25 2 1.25 2 0 0 Z " fill="#58A95A" transform="translate(54,40)"/>
<path d="M0 0 C2.475 0.495 2.475 0.495 5 1 C5.33 2.65 5.66 4.3 6 6 C3.97945196 4.35830472 1.97956942 2.69088222 0 1 C0 0.67 0 0.34 0 0 Z " fill="#1B2B1C" transform="translate(60,22)"/>
<path d="M0 0 C0.61875 0.78375 1.2375 1.5675 1.875 2.375 C3.89858661 4.96837647 3.89858661 4.96837647 6 7 C5.01 7.33 4.02 7.66 3 8 C1.5 6.8125 1.5 6.8125 0 5 C-0.1875 2.3125 -0.1875 2.3125 0 0 Z " fill="#172B15" transform="translate(9,55)"/>
<path d="M0 0 C2.31 0.33 4.62 0.66 7 1 C6.01 1.33 5.02 1.66 4 2 C4 2.66 4 3.32 4 4 C4.66 4.33 5.32 4.66 6 5 C5.01 5 4.02 5 3 5 C1.3125 2.5 1.3125 2.5 0 0 Z " fill="#579D59" transform="translate(53,51)"/>
<path d="M0 0 C0.33 0 0.66 0 1 0 C0.25 7.625 0.25 7.625 -2 11 C-3.43088528 8.13822943 -2.59991697 6.06624227 -2 3 C-1.34 3 -0.68 3 0 3 C0 2.01 0 1.02 0 0 Z " fill="#307F34" transform="translate(65,48)"/>
<path d="M0 0 C0.66 0 1.32 0 2 0 C2 0.66 2 1.32 2 2 C3.32 2.66 4.64 3.32 6 4 C4.35 4.33 2.7 4.66 1 5 C0.34 3.68 -0.32 2.36 -1 1 C-0.67 0.67 -0.34 0.34 0 0 Z " fill="#509F4F" transform="translate(50,44)"/>
</svg>
