<?xml version="1.0" encoding="UTF-8"?>
<svg version="1.1" xmlns="http://www.w3.org/2000/svg" width="256" height="256">
<path d="M0 0 C-0.40992188 0.94359375 -0.81984375 1.8871875 -1.2421875 2.859375 C-4.6257212 10.85007363 -7.06015191 18.29830305 -8 27 C-7.01 27 -6.02 27 -5 27 C-5.18175781 27.6084375 -5.36351562 28.216875 -5.55078125 28.84375 C-7.92930445 37.13808731 -9.49864251 45.51360339 -11 54 C-9.35 54.33 -7.7 54.66 -6 55 C-8.475 60.445 -8.475 60.445 -11 66 C-8.03 65.505 -8.03 65.505 -5 65 C-4.67 66.32 -4.34 67.64 -4 69 C3.13393752 68.48462048 10.01812817 67.55994099 17 66 C17.33 67.98 17.66 69.96 18 72 C21.02106753 71.85815167 24.04179097 71.71164333 27.0625 71.5625 C27.91005859 71.52318359 28.75761719 71.48386719 29.63085938 71.44335938 C34.48000209 71.19996611 39.20628212 70.77401958 44 70 C44.33 71.65 44.66 73.3 45 75 C45.57105469 74.95359375 46.14210937 74.9071875 46.73046875 74.859375 C57.30628837 74.3885913 66.83103379 77.96605777 76 83 C76 84.32 76 85.64 76 87 C73.83984375 88.82421875 73.83984375 88.82421875 70.9375 90.6875 C65.4501443 94.45208123 61.71753318 98.51885893 58 104 C58.99 105.485 58.99 105.485 60 107 C59.19175781 107.71285156 58.38351563 108.42570312 57.55078125 109.16015625 C49.24390254 116.2321212 49.24390254 116.2321212 43 125 C43.83134722 128.16674124 43.83134722 128.16674124 45 131 C44.28714844 131.42410156 43.57429687 131.84820312 42.83984375 132.28515625 C32.99563396 138.15691684 32.99563396 138.15691684 26 147 C27.32 147.66 28.64 148.32 30 149 C27.84708438 150.09147815 25.68710852 151.14328675 23.4921875 152.1484375 C22.62851563 152.55320313 21.76484375 152.95796875 20.875 153.375 C20.00617188 153.77460938 19.13734375 154.17421875 18.2421875 154.5859375 C15.75559116 156.15413937 15.02654587 157.28945753 14 160 C14.66 160.33 15.32 160.66 16 161 C16 161.66 16 162.32 16 163 C11.50277805 165.27723544 6.99437911 167.53049502 2.47705078 169.76757812 C0.81630073 170.59386102 -0.84156413 171.42596674 -2.49658203 172.26367188 C-23.14089022 182.69899442 -43.34792692 189.40720584 -66.6875 189.375 C-67.91194824 189.37338867 -69.13639648 189.37177734 -70.39794922 189.37011719 C-83.11505559 189.19892214 -93.99404784 186.92731607 -105.671875 181.8828125 C-112.52970449 179.28236038 -119.73255868 178.72575693 -127 179 C-127.28875 179.598125 -127.5775 180.19625 -127.875 180.8125 C-129 183 -129 183 -131 186 C-131.45139459 188.0492094 -131.45139459 188.0492094 -131.625 190.1875 C-131.74875 191.445625 -131.8725 192.70375 -132 194 C-134.64 193.67 -137.28 193.34 -140 193 C-139.9278125 192.24074219 -139.855625 191.48148438 -139.78125 190.69921875 C-139.6884375 189.70535156 -139.595625 188.71148437 -139.5 187.6875 C-139.4071875 186.70136719 -139.314375 185.71523437 -139.21875 184.69921875 C-138.80861793 179.63848195 -139.4783099 177.95428163 -142.5 173.875 C-143.22574219 172.89273438 -143.95148438 171.91046875 -144.69921875 170.8984375 C-147.33214985 167.58157014 -150.18083894 164.58345643 -153.23828125 161.65625 C-158.63380753 153.52108843 -158.32663628 144.19643949 -157.75 134.8125 C-157.69714844 133.68908203 -157.64429688 132.56566406 -157.58984375 131.40820312 C-156.99392439 119.60761396 -156.99392439 119.60761396 -156 114 C-155.01 113.505 -155.01 113.505 -154 113 C-153.13829746 109.72462803 -152.52387082 106.42589417 -151.87890625 103.1015625 C-150.9527881 99.83339447 -150.31705486 99.2533916 -148 97 C-146.89602413 95.28609454 -146.89602413 95.28609454 -145.95703125 93.42578125 C-145.60576172 92.75869141 -145.25449219 92.09160156 -144.89257812 91.40429688 C-144.53615234 90.71400391 -144.17972656 90.02371094 -143.8125 89.3125 C-143.44447266 88.61060547 -143.07644531 87.90871094 -142.69726562 87.18554688 C-141.7932106 85.45962365 -140.89593399 83.73015281 -140 82 C-139.01 82 -138.02 82 -137 82 C-136.773125 81.360625 -136.54625 80.72125 -136.3125 80.0625 C-134.51434174 75.86679739 -132.26095979 71.96099444 -130 68 C-129.01 68 -128.02 68 -127 68 C-126.48050781 67.00097656 -125.96101563 66.00195312 -125.42578125 64.97265625 C-124.72225365 63.6687851 -124.01777669 62.36542588 -123.3125 61.0625 C-122.97283203 60.40314453 -122.63316406 59.74378906 -122.28320312 59.06445312 C-121.23828125 57.16015625 -121.23828125 57.16015625 -119 54 C-117.34272073 53.62275433 -115.67489993 53.28913513 -114 53 C-111.61570182 50.29405348 -111.61570182 50.29405348 -109.5 47 C-105.58419841 41.15387369 -105.58419841 41.15387369 -102.375 40.30859375 C-101.199375 40.15583984 -101.199375 40.15583984 -100 40 C-98.31267723 38.01739574 -96.64633943 36.0167658 -95 34 C-94.21625 33.71125 -93.4325 33.4225 -92.625 33.125 C-88.34923255 31.29252824 -85.87603215 27.56395915 -83 24 C-82.26652344 24.39316406 -81.53304687 24.78632812 -80.77734375 25.19140625 C-78.02380286 26.33902665 -78.02380286 26.33902665 -75.75390625 24.83984375 C-75.03074219 24.21207031 -74.30757813 23.58429687 -73.5625 22.9375 C-72.78777344 22.28652344 -72.01304688 21.63554688 -71.21484375 20.96484375 C-69.87094001 19.77263284 -68.52918041 18.57799108 -67.19140625 17.37890625 C-65.8443852 16.19312463 -64.4274717 15.08759749 -63 14 C-62.01 14.33 -61.02 14.66 -60 15 C-60 15.66 -60 16.32 -60 17 C-57.47519099 15.77851377 -54.95537216 14.54814299 -52.4375 13.3125 C-51.73302734 12.97283203 -51.02855469 12.63316406 -50.30273438 12.28320312 C-45.50137317 9.91571165 -41.28316367 7.21377984 -37 4 C-36.42636719 4.36609375 -35.85273438 4.7321875 -35.26171875 5.109375 C-33.0576145 6.24598736 -33.0576145 6.24598736 -30.95703125 5.390625 C-29.89548828 4.82601562 -29.89548828 4.82601562 -28.8125 4.25 C-19.32230012 -0.30283495 -10.37435147 -0.24603205 0 0 Z " fill="#4BB447" transform="translate(180,29)"/>
<path d="M0 0 C0.495 1.98 0.495 1.98 1 4 C8.13393752 3.48462048 15.01812817 2.55994099 22 1 C22.33 2.98 22.66 4.96 23 7 C26.02106753 6.85815167 29.04179097 6.71164333 32.0625 6.5625 C32.91005859 6.52318359 33.75761719 6.48386719 34.63085938 6.44335938 C39.48000209 6.19996611 44.20628212 5.77401958 49 5 C49.33 6.65 49.66 8.3 50 10 C50.57105469 9.95359375 51.14210937 9.9071875 51.73046875 9.859375 C62.30628837 9.3885913 71.83103379 12.96605777 81 18 C81 19.32 81 20.64 81 22 C78.83984375 23.82421875 78.83984375 23.82421875 75.9375 25.6875 C70.4501443 29.45208123 66.71753318 33.51885893 63 39 C63.66 39.99 64.32 40.98 65 42 C64.19175781 42.71285156 63.38351563 43.42570312 62.55078125 44.16015625 C54.24390254 51.2321212 54.24390254 51.2321212 48 60 C48.83134722 63.16674124 48.83134722 63.16674124 50 66 C49.28714844 66.42410156 48.57429687 66.84820312 47.83984375 67.28515625 C37.99563396 73.15691684 37.99563396 73.15691684 31 82 C32.32 82.66 33.64 83.32 35 84 C32.84708438 85.09147815 30.68710852 86.14328675 28.4921875 87.1484375 C27.62851563 87.55320312 26.76484375 87.95796875 25.875 88.375 C25.00617188 88.77460938 24.13734375 89.17421875 23.2421875 89.5859375 C20.75559116 91.15413937 20.02654587 92.28945753 19 95 C19.66 95.33 20.32 95.66 21 96 C21 96.66 21 97.32 21 98 C16.50277805 100.27723544 11.99437911 102.53049502 7.47705078 104.76757812 C5.81630073 105.59386102 4.15843587 106.42596674 2.50341797 107.26367188 C-18.14089022 117.69899442 -38.34792692 124.40720584 -61.6875 124.375 C-62.91194824 124.37338867 -64.13639648 124.37177734 -65.39794922 124.37011719 C-77.99675232 124.20051472 -88.83037214 122.02003619 -100.375 116.94921875 C-106.03991672 114.9007444 -112.08164097 114.04163119 -118 113 C-117 111 -117 111 -113.5 109.5625 C-108.95398075 108.11241412 -104.38315768 107.33214391 -99.6875 106.5625 C-71.60729348 101.84487902 -47.69238358 84.37717851 -30.83276367 61.69946289 C-28.8075202 58.84971156 -26.88168104 55.94621464 -25 53 C-24.55366211 52.30213379 -24.10732422 51.60426758 -23.64746094 50.88525391 C-21.41419391 47.37394977 -19.20745831 43.84772398 -17.03125 40.30078125 C-15.7244955 38.17730519 -14.38305769 36.07458654 -13 34 C-14.485 33.505 -14.485 33.505 -16 33 C-15.00193407 26.43064064 -13.33288618 22.09114126 -9 17 C-8.34 17 -7.68 17 -7 17 C-7 16.34 -7 15.68 -7 15 C-8.32 14.67 -9.64 14.34 -11 14 C-9.82892878 4.68386624 -9.82892878 4.68386624 -6.5 1.9375 C-5.2625 1.4734375 -5.2625 1.4734375 -4 1 C-2 0 -2 0 0 0 Z " fill="#46AB43" transform="translate(175,94)"/>
<path d="M0 0 C0 4.23103634 -1.83386988 5.68635387 -4.609375 8.73828125 C-12.55179601 16.25243446 -21.57651257 21.83956262 -32.3671875 23.89453125 C-39.74057425 25.33109406 -45.78059386 26.62008466 -50.47119141 32.84716797 C-52.06906349 35.26482348 -53.56335631 37.72140323 -54.98583984 40.24609375 C-56.48984839 42.84715234 -58.24234945 45.25327928 -60 47.6875 C-61.69358269 50.10981177 -63.36032769 52.54049154 -65 55 C-59.19681169 55.27021498 -54.78208269 54.58998226 -49.375 52.375 C-48.68768799 52.10574707 -48.00037598 51.83649414 -47.29223633 51.55908203 C-41.54859216 49.28697271 -35.87944028 46.83984956 -30.2265625 44.3515625 C-27.36115811 43.15128415 -24.52168743 42.18402081 -21.5625 41.25 C-16.64735198 39.51438393 -12.50912661 36.98742408 -8.1875 34.125 C-7.56496338 33.71411133 -6.94242676 33.30322266 -6.30102539 32.87988281 C-3.12626595 30.70519176 -0.35692228 28.44611172 2.32421875 25.6796875 C3.20722656 24.79539062 4.09023437 23.91109375 5 23 C5.66 23 6.32 23 7 23 C6.48538729 27.00155746 4.74648067 28.3950757 1.625 30.8125 C-0.23714758 32.22543386 -2.11237831 33.62128319 -4 35 C-4.78246094 35.59167969 -5.56492187 36.18335938 -6.37109375 36.79296875 C-14.63773153 42.57300189 -24.02132421 45.63653914 -33.42773438 49.05224609 C-37.14730201 50.4227246 -40.82560308 51.88838705 -44.5 53.375 C-45.6446875 53.83648437 -46.789375 54.29796875 -47.96875 54.7734375 C-49.85256132 55.53570136 -51.72626939 56.3241293 -53.58203125 57.15234375 C-56.26295742 58.09218378 -58.35556181 58.23462756 -61.1875 58.1875 C-62.04730469 58.18105469 -62.90710938 58.17460937 -63.79296875 58.16796875 C-66 58 -66 58 -68 57 C-68.20625 57.65871094 -68.4125 58.31742188 -68.625 58.99609375 C-70.52145138 63.1391935 -73.21339037 66.47736898 -76 70.0625 C-77.08629577 71.46776705 -78.16973324 72.87524927 -79.25 74.28515625 C-79.72953125 74.90269775 -80.2090625 75.52023926 -80.703125 76.15649414 C-82.07326529 77.98267673 -82.07326529 77.98267673 -82.984375 80.16967773 C-84 82 -84 82 -87 83 C-88.6741769 85.08697558 -88.6741769 85.08697558 -90.1875 87.5625 C-90.71730469 88.38878906 -91.24710938 89.21507812 -91.79296875 90.06640625 C-92.19128906 90.70449219 -92.58960937 91.34257812 -93 92 C-84.52449049 92.4585947 -77.16358626 91.21264415 -69 89 C-68.02087646 88.75056641 -68.02087646 88.75056641 -67.02197266 88.49609375 C-49.47499517 84.01495502 -32.19474321 76.92632428 -21 62 C-19.515 62.495 -19.515 62.495 -18 63 C-33.77426994 81.95223641 -56.34592627 92.49229397 -81 95 C-82.27875 94.97292969 -83.5575 94.94585937 -84.875 94.91796875 C-88.75020954 94.8424286 -92.23124722 94.94670471 -96 96 C-100.60422618 101.15577411 -102.05461845 107.29181386 -103 114 C-103.66 114 -104.32 114 -105 114 C-104.87625 112.700625 -104.7525 111.40125 -104.625 110.0625 C-104.5897762 105.74608524 -105.45609173 102.55502742 -107.14196777 98.59338379 C-111.52421677 88.10555772 -111.79961981 78.22865328 -111.5625 66.98583984 C-111.49949209 63.97573538 -111.48045531 60.96773427 -111.46875 57.95703125 C-111.45042816 56.01299554 -111.42968243 54.06898083 -111.40625 52.125 C-111.39775024 51.24046143 -111.38925049 50.35592285 -111.38049316 49.44458008 C-111.20940672 41.91749378 -110.13696372 34.7876238 -106.875 27.9375 C-106.34519531 26.80634766 -106.34519531 26.80634766 -105.8046875 25.65234375 C-105.53914063 25.10707031 -105.27359375 24.56179687 -105 24 C-104.34 24 -103.68 24 -103 24 C-103.45103792 26.97685028 -104.09657313 29.19032097 -105.46875 31.89453125 C-107.78868445 37.22165892 -107.82897923 42.89524605 -108.1875 48.625 C-108.3102832 50.27435547 -108.3102832 50.27435547 -108.43554688 51.95703125 C-109.64798757 69.33874409 -109.31198322 85.54594666 -103 102 C-102.50371094 101.0821875 -102.00742188 100.164375 -101.49609375 99.21875 C-100.81227255 97.97785396 -100.12589757 96.73836311 -99.4375 95.5 C-99.08051025 94.85651611 -98.72352051 94.21303223 -98.35571289 93.55004883 C-96.21502622 89.80042035 -94.02724448 86.74609786 -90.9375 83.6875 C-88.89710664 81.54069157 -88.06159721 80.59446194 -87.75390625 77.625 C-88.0982682 74.21417685 -88.91681969 71.24954093 -90 68 C-90.10092927 65.26006723 -90.14125768 62.55219914 -90.125 59.8125 C-90.12161621 58.9889502 -90.11823242 58.16540039 -90.11474609 57.31689453 C-90.05906194 50.33306573 -89.87482432 43.35439936 -89.625 36.375 C-89.59422363 35.38089111 -89.56344727 34.38678223 -89.53173828 33.36254883 C-89.28749325 27.34003389 -88.48230433 21.84485855 -87 16 C-86.67 16 -86.34 16 -86 16 C-86.00666183 16.99811958 -86.00666183 16.99811958 -86.01345825 18.0164032 C-86.05771137 24.9431239 -86.08787475 31.86980443 -86.10986328 38.79663086 C-86.11991967 41.38160839 -86.13356649 43.96657455 -86.15087891 46.55151367 C-86.17514271 50.26744392 -86.18648684 53.98322373 -86.1953125 57.69921875 C-86.20563507 58.85459641 -86.21595764 60.00997406 -86.22659302 61.20036316 C-86.22674408 62.28110611 -86.22689514 63.36184906 -86.22705078 64.4753418 C-86.23371262 65.89764351 -86.23371262 65.89764351 -86.24050903 67.34867859 C-85.9797742 70.22296496 -85.19554424 72.38686812 -84 75 C-79.38045012 69.21791439 -75.03703895 63.27610223 -70.77075195 57.23266602 C-68.23033296 53.65660079 -65.59889272 50.20369114 -62.8125 46.8125 C-59.38113246 42.60786654 -56.49908402 38.19749451 -53.65234375 33.58203125 C-52.18471711 31.28864778 -50.6325813 29.18905654 -48.9375 27.0625 C-45.70264852 22.91326384 -43.6360656 18.32342323 -41.4921875 13.5390625 C-39.89437027 10.82026355 -38.92226589 10.04097884 -36 9 C-36.40992187 9.73605469 -36.81984375 10.47210938 -37.2421875 11.23046875 C-37.78101562 12.20628906 -38.31984375 13.18210937 -38.875 14.1875 C-39.40867187 15.15042969 -39.94234375 16.11335938 -40.4921875 17.10546875 C-41.8423678 19.69739518 -42.97098329 22.26761098 -44 25 C-43.41734375 24.74605469 -42.8346875 24.49210937 -42.234375 24.23046875 C-37.53761004 22.25871365 -33.05324909 20.7313168 -28.0625 19.6875 C-16.6078746 16.98969247 -7.17050184 9.06857585 0 0 Z " fill="#38832E" transform="translate(152,92)"/>
<path d="M0 0 C-0.76183594 0.31453125 -1.52367187 0.6290625 -2.30859375 0.953125 C-8.57837779 3.55183699 -14.81538334 6.20442833 -21 9 C-15.798474 12.23659194 -15.798474 12.23659194 -10 14 C-10 14.66 -10 15.32 -10 16 C-14.88360914 15.52121479 -17.85267477 14.51022317 -22 12 C-25.80441099 11.54709393 -26.71662309 11.81108206 -30 14 C-32.21389829 14.60103341 -34.44602579 15.13675809 -36.6875 15.625 C-38.45673828 16.01558594 -38.45673828 16.01558594 -40.26171875 16.4140625 C-41.61716797 16.70410156 -41.61716797 16.70410156 -43 17 C-36.51656189 19.63096039 -30.97669157 20.39325819 -24 20 C-24.33 20.66 -24.66 21.32 -25 22 C-31.20571503 22.29241589 -36.46191537 22.37183597 -42.3125 20.125 C-49.86243749 17.79019274 -56.31982957 21.72402212 -63 25 C-64.52173828 25.70189453 -64.52173828 25.70189453 -66.07421875 26.41796875 C-69.9396295 28.25192276 -73.09344632 29.80830972 -76 33 C-61.89324238 36.98979003 -48.609426 37.48363264 -34 37 C-39.18498775 40.4566585 -44.86033964 40.18175056 -50.9375 40.1875 C-51.61490234 40.19974609 -52.29230469 40.21199219 -52.99023438 40.22460938 C-57.67175803 40.23807493 -61.55693016 39.40992029 -66 38 C-72.39741722 36.55857915 -78.44384514 35.75259793 -85 36 C-82.59491831 32.39237746 -80.870461 31.90004449 -77 30 C-75.70256738 29.07049603 -74.41149824 28.13207997 -73.125 27.1875 C-67.25484104 23.2017114 -60.69670731 21.03419835 -54.04882812 18.71582031 C-52.08475337 18.02961116 -50.12754317 17.32695492 -48.171875 16.6171875 C-43.32552363 14.86536785 -38.4877394 13.14116511 -33.5625 11.625 C-29.42533105 10.27676058 -25.54690843 8.43007544 -21.625 6.5625 C-4.59992712 -1.53330904 -4.59992712 -1.53330904 0 0 Z " fill="#35812D" transform="translate(228,122)"/>
<path d="M0 0 C-8.35847542 9.8404746 -27.18651239 13.28406841 -39 17 C-38.34 18.32 -37.68 19.64 -37 21 C-40.31114834 22.12880057 -43.58978257 23.21302675 -47 24 C-47.33 22.68 -47.66 21.36 -48 20 C-47.38125 19.7525 -46.7625 19.505 -46.125 19.25 C-43.8732957 18.19890778 -43.8732957 18.19890778 -43.140625 16.1171875 C-40.85395754 11.87275681 -36.26704725 9.91616733 -32 8 C-28.99126181 7.34060462 -26.02051288 6.94003441 -22.96484375 6.5625 C-18.95142961 5.80106174 -15.77957842 4.13150242 -12.25390625 2.12109375 C-8.24726529 0.12818915 -4.4208711 -0.1263106 0 0 Z " fill="#EFF8EF" transform="translate(169,33)"/>
<path d="M0 0 C0 3.71006645 -1.06044064 4.90230815 -3.0625 8 C-15.60838375 29.05371989 -18.60496098 53.07444312 -21 77 C-21.33 77 -21.66 77 -22 77 C-22.81750836 47.37161063 -19.20076066 23.55125981 0 0 Z " fill="#EFF8EF" transform="translate(50,108)"/>
<path d="M0 0 C4.95526888 4.53053155 9.47078981 9.4939825 10.5 16.3125 C10 19 10 19 8.75 20.9375 C7 22 7 22 5.12109375 21.76953125 C2.57180542 20.84465132 1.22754396 19.66088985 -0.6875 17.75 C-1.28949219 17.16734375 -1.89148438 16.5846875 -2.51171875 15.984375 C-4.33030674 13.55959102 -4.8342181 12.02551961 -5 9 C-4.00390625 6.54296875 -4.00390625 6.54296875 -2.5625 4.1875 C-1.85287109 3.00220703 -1.85287109 3.00220703 -1.12890625 1.79296875 C-0.75636719 1.20128906 -0.38382813 0.60960937 0 0 Z " fill="#4FB847" transform="translate(15,39)"/>
<path d="M0 0 C2.70894767 -0.08144943 5.41541263 -0.14070614 8.125 -0.1875 C8.88554687 -0.21263672 9.64609375 -0.23777344 10.4296875 -0.26367188 C15.52481081 -0.32955709 18.43313205 0.59223562 23 3 C25.67963259 3.43615586 28.24388737 3.77574464 30.9375 4 C36.56375389 4.47108501 40.8856104 5.54615988 46 8 C46 8.33 46 8.66 46 9 C29.97094784 9.61127741 15.29245651 6.35502566 0 2 C0 1.34 0 0.68 0 0 Z " fill="#EBF2EB" transform="translate(200,104)"/>
<path d="M0 0 C1.9609375 0.13671875 1.9609375 0.13671875 4.375 0.6875 C5.26960938 0.88601562 6.16421875 1.08453125 7.0859375 1.2890625 C10.06591942 2.01608222 13.03206112 2.78792164 16 3.5625 C21.36172267 4.91144675 26.48060469 5.73343829 32 6 C33.155 6.06445312 34.31 6.12890625 35.5 6.1953125 C43.40821103 6.43839276 49.84573942 5.57286421 57.29296875 2.875 C60 2 60 2 64 2 C64 2.66 64 3.32 64 4 C42.69054074 12.77448323 19.05884581 10.62493269 -2 2 C-1.34 1.34 -0.68 0.68 0 0 Z " fill="#307829" transform="translate(91,197)"/>
<path d="M0 0 C8.36483063 -0.32803257 16.35065312 1.25043209 24.5859375 2.578125 C40.07248748 4.81329716 56.68020366 5.68992944 72 2 C70 5 70 5 67.97094727 5.71728516 C61.92408302 6.812363 56.08263121 7.38452039 49.9375 7.375 C48.98447998 7.37556396 48.03145996 7.37612793 47.04956055 7.37670898 C31.90689948 7.15876899 14.63095095 6.08015513 0 2 C0 1.34 0 0.68 0 0 Z " fill="#347E2B" transform="translate(125,176)"/>
<path d="M0 0 C0.66 0 1.32 0 2 0 C2.5775 0.763125 3.155 1.52625 3.75 2.3125 C6.24860904 5.29694969 8.46103287 6.47180965 12 8 C10.71034824 9.37562854 9.37310707 10.70766393 8 12 C7.34 12 6.68 12 6 12 C6.66 13.32 7.32 14.64 8 16 C4.8125 16.4375 4.8125 16.4375 1 16 C-1.27673715 13.99889689 -2.89666273 11.82730175 -4 9 C-3.5166726 5.5041525 -2.00428439 2.88616952 0 0 Z " fill="#4FB847" transform="translate(5,60)"/>
<path d="M0 0 C0.33 0.66 0.66 1.32 1 2 C5.29 2 9.58 2 14 2 C13.34 2.99 12.68 3.98 12 5 C9.25638162 5.37995359 6.59223051 5.37577983 3.82421875 5.3984375 C-0.04785243 6.22319402 -1.39852845 8.06616379 -4 11 C-7.33333333 14.33333333 -10.66666667 17.66666667 -14 21 C-11.93345299 20.43117008 -9.87187534 19.84427035 -7.8125 19.25 C-6.66394531 18.92515625 -5.51539063 18.6003125 -4.33203125 18.265625 C-0.91526256 16.96781368 1.29447905 15.42528808 4 13 C4 16 4 16 2.125 18 C-2.03668151 20.66347617 -6.2519507 21.75751981 -11 23 C-15.60546954 24.21218332 -15.60546954 24.21218332 -20 26 C-18.41981214 22.04953035 -15.82328396 19.75515409 -12.75 16.875 C-7.76207348 12.08274239 -4.29046072 7.10367904 -1 1 C-0.67 0.67 -0.34 0.34 0 0 Z " fill="#38832E" transform="translate(143,66)"/>
<path d="M0 0 C0.33 0 0.66 0 1 0 C1.22873757 4.80348899 1.29811314 8.71830158 -0.375 13.25 C-3.76547015 22.67873605 -4.18973032 31.89259954 -3.75 41.8125 C-3.71165039 42.69583008 -3.67330078 43.57916016 -3.63378906 44.48925781 C-3.32137406 49.91057689 -2.3831731 54.75641344 -1 60 C-1 61.32 -1 62.64 -1 64 C-1.66 64 -2.32 64 -3 64 C-10.8834216 44.02866527 -5.71784574 19.78065554 0 0 Z " fill="#398830" transform="translate(95,68)"/>
<path d="M0 0 C1.14626322 0.97866338 2.29199788 1.95794587 3.4375 2.9375 C4.39462891 3.75541016 4.39462891 3.75541016 5.37109375 4.58984375 C6.26991149 5.36795695 7.15936528 6.15936528 8 7 C8.04080783 8.99958364 8.04254356 11.00045254 8 13 C6.37828761 13.38897161 4.75245075 13.76078298 3.125 14.125 C2.22007813 14.33382812 1.31515625 14.54265625 0.3828125 14.7578125 C-0.40351563 14.83773437 -1.18984375 14.91765625 -2 15 C-4 13 -4 13 -4.08203125 10.72265625 C-3.99308594 9.84480469 -3.90414063 8.96695313 -3.8125 8.0625 C-3.73644531 7.18722656 -3.66039063 6.31195313 -3.58203125 5.41015625 C-2.93104272 2.71445209 -2.11762004 1.72948483 0 0 Z " fill="#4FB847" transform="translate(30,60)"/>
<path d="M0 0 C1.32 0 2.64 0 4 0 C4 0.66 4 1.32 4 2 C2.8553125 3.0209375 2.8553125 3.0209375 1.6875 4.0625 C-4.58534597 10.91886652 -4.49997187 19.67366686 -4.6875 28.5625 C-4.72166016 29.66658203 -4.75582031 30.77066406 -4.79101562 31.90820312 C-4.87274786 34.60536703 -4.94213826 37.30223643 -5 40 C-5.66 40 -6.32 40 -7 40 C-10.58602189 29.24193432 -8.27695364 15.44465762 -3.4375 5.5 C-1.20257235 1.20257235 -1.20257235 1.20257235 0 0 Z " fill="#3A8830" transform="translate(122,58)"/>
<path d="M0 0 C0.70125 0.2475 1.4025 0.495 2.125 0.75 C2.125 1.41 2.125 2.07 2.125 2.75 C0.6090625 3.059375 0.6090625 3.059375 -0.9375 3.375 C-10.36692854 6.14501321 -15.76028692 15.26021548 -20.35546875 23.359375 C-21.19708737 24.90933539 -22.02458923 26.46712038 -22.83203125 28.03515625 C-23.875 29.75 -23.875 29.75 -25.875 30.75 C-25.39082236 25.61927892 -23.56149154 22.02426972 -20.75 17.8125 C-20.34547607 17.19713379 -19.94095215 16.58176758 -19.52416992 15.94775391 C-16.43413929 11.35319801 -13.16714109 7.28713796 -8.875 3.75 C-8.35035156 3.30914062 -7.82570312 2.86828125 -7.28515625 2.4140625 C-4.67654828 0.43603406 -3.30416702 -0.28731887 0 0 Z " fill="#307829" transform="translate(193.875,111.25)"/>
<path d="M0 0 C0.02696365 1.79158489 0.04637917 3.58328473 0.0625 5.375 C0.07410156 6.37273437 0.08570313 7.37046875 0.09765625 8.3984375 C0 11 0 11 -1 13 C-3.5625 13.625 -3.5625 13.625 -6 14 C-7.24298916 10.27103252 -7.74636113 6.89405808 -7 3 C-4.59140121 0.97170628 -3.16955691 0 0 0 Z " fill="#4FB847" transform="translate(231,222)"/>
<path d="M0 0 C3 1 3 1 4.1875 3.0625 C4.455625 3.701875 4.72375 4.34125 5 5 C1.68885166 6.12880057 -1.58978257 7.21302675 -5 8 C-5.33 6.68 -5.66 5.36 -6 4 C-3.1875 1.9375 -3.1875 1.9375 0 0 Z " fill="#7FCA7C" transform="translate(127,49)"/>
<path d="M0 0 C0 3.83380637 -1.30477423 5.44105316 -3.3125 8.6875 C-6.13242782 13.38547691 -8.30054042 17.80165306 -10 23 C-10.99 22.67 -11.98 22.34 -13 22 C-11.71687876 17.68693405 -10.07895544 14.20416086 -7.625 10.4375 C-7.03976563 9.52871094 -6.45453125 8.61992188 -5.8515625 7.68359375 C-4.01218661 5.01766287 -2.05458146 2.50260693 0 0 Z " fill="#E6F5E6" transform="translate(50,108)"/>
<path d="M0 0 C0 0.66 0 1.32 0 2 C-2.62235014 2.86316536 -5.24733452 3.71580779 -7.875 4.5625 C-8.62136719 4.80935547 -9.36773437 5.05621094 -10.13671875 5.31054688 C-15.7734375 7.11328125 -15.7734375 7.11328125 -18 6 C-17 4 -17 4 -14.19921875 2.9296875 C-12.46091797 2.40761719 -12.46091797 2.40761719 -10.6875 1.875 C-9.53636719 1.52179688 -8.38523438 1.16859375 -7.19921875 0.8046875 C-4 0 -4 0 0 0 Z " fill="#37822D" transform="translate(155,199)"/>
<path d="M0 0 C0.66 0.33 1.32 0.66 2 1 C0.04563141 3.31595666 -1.91323411 5.62782368 -3.875 7.9375 C-4.43058594 8.59685547 -4.98617187 9.25621094 -5.55859375 9.93554688 C-6.09355469 10.56396484 -6.62851563 11.19238281 -7.1796875 11.83984375 C-7.67194824 12.42113037 -8.16420898 13.00241699 -8.67138672 13.60131836 C-10 15 -10 15 -12 16 C-10.37921571 12.27131047 -8.02767716 9.42653322 -5.4375 6.3125 C-4.63183594 5.33925781 -3.82617188 4.36601563 -2.99609375 3.36328125 C-1 1 -1 1 0 0 Z " fill="#38852E" transform="translate(156,50)"/>
<path d="M0 0 C0.66 0.33 1.32 0.66 2 1 C1.34 1.804375 0.68 2.60875 0 3.4375 C-2.10254514 5.58961915 -2.10254514 5.58961915 -2 7 C-6.455 7.495 -6.455 7.495 -11 8 C-8.65391182 4.48086773 -6.76827355 3.76878146 -3 2 C-2.01 1.34 -1.02 0.68 0 0 Z " fill="#2E7628" transform="translate(154,150)"/>
<path d="M0 0 C1.98 0.495 1.98 0.495 4 1 C3.67 2.65 3.34 4.3 3 6 C1.68 5.67 0.36 5.34 -1 5 C-0.67 3.35 -0.34 1.7 0 0 Z " fill="#E6F4E5" transform="translate(33,181)"/>
<path d="M0 0 C2.475 0.495 2.475 0.495 5 1 C4.67 2.32 4.34 3.64 4 5 C2.68 4.67 1.36 4.34 0 4 C0 2.68 0 1.36 0 0 Z " fill="#D2DDD3" transform="translate(194,106)"/>
<path d="M0 0 C1.32 0 2.64 0 4 0 C3.67 1.65 3.34 3.3 3 5 C1.68 4.67 0.36 4.34 -1 4 C-0.67 2.68 -0.34 1.36 0 0 Z " fill="#EEF8EE" transform="translate(122,52)"/>
<path d="M0 0 C1.32 0 2.64 0 4 0 C2.70700306 2.88437779 1.34058637 4.87219421 -1 7 C-1.04254356 5.00045254 -1.04080783 2.99958364 -1 1 C-0.67 0.67 -0.34 0.34 0 0 Z " fill="#379138" transform="translate(49,208)"/>
</svg>
