<svg class="svg-icon" style="width: 1em; height: 1em;vertical-align: middle;fill: currentColor;overflow: hidden;" viewBox="0 0 1024 1024" version="1.1" xmlns="http://www.w3.org/2000/svg"><path d="M906.828635 317.86204C851.852496 127.944469 671.930586 63.972235 662.934491 28.987419 654.937962 0 567.975705 0 543.986117 0h-52.977006c-21.990456 0-110.951844 0-118.948374 28.987419-8.996095 34.984816-200.912799 98.95705-255.888938 288.874621s74.967462 619.731022 292.872886 696.697617c0 0 37.983514 7.996529 68.970065 8.996096s0.999566 0 3.998265 0h62.972668c30.986551 0.999566 80.964859-8.996095 80.96486-8.996096 216.905858-76.966595 335.854231-507.779612 280.878092-696.697617z" fill="#BB9701" /><path d="M879.840349 330.856401C828.862474 154.932756 660.935359 94.958786 651.939263 62.972668c-6.996963-27.987853-87.961823-27.987853-109.952278-26.988286h-48.978742c-20.990889-0.999566-103.954881-0.999566-110.951844 26.988286-8.996095 31.986117-187.918439 91.960087-237.896748 267.883733s69.969632 577.749243 271.881997 648.718441c0 0 35.984382 6.996963 63.972235 7.996529s0.999566 0 3.998264 0h58.974404c28.987419 1.999132 74.967462-7.996529 74.967462-7.996529 201.912365-70.969198 311.864643-472.794796 261.886336-648.718441z" fill="#FE9661" /><path d="M496.006941 185.919307a15.993059 13.993926 0 1 0 31.986118 0 15.993059 13.993926 0 1 0-31.986118 0Z" fill="#7A442C" /><path d="M503.003905 185.919307a8.996095 7.996529 0 1 0 17.99219 0 8.996095 7.996529 0 1 0-17.99219 0Z" fill="#844A32" /><path d="M505.003037 178.922344a3.998265 3.998265 0 1 0 7.996529 0 3.998265 3.998265 0 1 0-7.996529 0Z" fill="#9E604A" /><path d="M468.019089 198.913667a15.993059 13.993926 0 1 0 31.986117 0 15.993059 13.993926 0 1 0-31.986117 0Z" fill="#7A442C" /><path d="M475.016052 198.913667a8.996095 7.996529 0 1 0 17.992191 0 8.996095 7.996529 0 1 0-17.992191 0Z" fill="#844A32" /><path d="M477.015184 191.916704a3.998265 3.998265 0 1 0 7.99653 0 3.998265 3.998265 0 1 0-7.99653 0Z" fill="#9E604A" /><path d="M501.004772 205.91063a15.993059 13.993926 0 1 0 31.986117 0 15.993059 13.993926 0 1 0-31.986117 0Z" fill="#7A442C" /><path d="M508.001735 205.91063a8.996095 7.996529 0 1 0 17.992191 0 8.996095 7.996529 0 1 0-17.992191 0Z" fill="#844A32" /><path d="M509.001302 198.913667a3.998265 3.998265 0 1 0 7.996529 0 3.998265 3.998265 0 1 0-7.996529 0Z" fill="#9E604A" /><path d="M523.994794 198.913667a15.993059 13.993926 0 1 0 31.986117 0 15.993059 13.993926 0 1 0-31.986117 0Z" fill="#7A442C" /><path d="M530.991757 198.913667a8.996095 7.996529 0 1 0 17.992191 0 8.996095 7.996529 0 1 0-17.992191 0Z" fill="#844A32" /><path d="M531.991323 191.916704a3.998265 3.998265 0 1 0 7.99653 0 3.998265 3.998265 0 1 0-7.99653 0Z" fill="#9E604A" /><path d="M496.006941 226.901519a15.993059 13.993926 0 1 0 31.986118 0 15.993059 13.993926 0 1 0-31.986118 0Z" fill="#7A442C" /><path d="M503.003905 226.901519a8.996095 7.996529 0 1 0 17.99219 0 8.996095 7.996529 0 1 0-17.99219 0Z" fill="#844A32" /><path d="M505.003037 219.904556a3.998265 3.998265 0 1 0 7.996529 0 3.998265 3.998265 0 1 0-7.996529 0Z" fill="#9E604A" /><path d="M468.019089 239.89588a15.993059 13.993926 0 1 0 31.986117 0 15.993059 13.993926 0 1 0-31.986117 0Z" fill="#7A442C" /><path d="M475.016052 239.89588a8.996095 7.996529 0 1 0 17.992191 0 8.996095 7.996529 0 1 0-17.992191 0Z" fill="#844A32" /><path d="M477.015184 232.898916a3.998265 3.998265 0 1 0 7.99653 0 3.998265 3.998265 0 1 0-7.99653 0Z" fill="#9E604A" /><path d="M468.019089 219.904556a15.993059 13.993926 0 1 0 31.986117 0 15.993059 13.993926 0 1 0-31.986117 0Z" fill="#7A442C" /><path d="M475.016052 219.904556a8.996095 7.996529 0 1 0 17.992191 0 8.996095 7.996529 0 1 0-17.992191 0Z" fill="#844A32" /><path d="M477.015184 212.907593a3.998265 3.998265 0 1 0 7.99653 0 3.998265 3.998265 0 1 0-7.99653 0Z" fill="#9E604A" /><path d="M441.030802 227.901086a15.993059 13.993926 0 1 0 31.986118 0 15.993059 13.993926 0 1 0-31.986118 0Z" fill="#7A442C" /><path d="M448.027765 227.901086a8.996095 7.996529 0 1 0 17.992191 0 8.996095 7.996529 0 1 0-17.992191 0Z" fill="#844A32" /><path d="M450.026898 220.904122a3.998265 3.998265 0 1 0 7.996529 0 3.998265 3.998265 0 1 0-7.996529 0Z" fill="#9E604A" /><path d="M501.004772 246.892843a15.993059 13.993926 0 1 0 31.986117 0 15.993059 13.993926 0 1 0-31.986117 0Z" fill="#7A442C" /><path d="M508.001735 246.892843a8.996095 7.996529 0 1 0 17.992191 0 8.996095 7.996529 0 1 0-17.992191 0Z" fill="#844A32" /><path d="M509.001302 239.89588a3.998265 3.998265 0 1 0 7.996529 0 3.998265 3.998265 0 1 0-7.996529 0Z" fill="#9E604A" /><path d="M523.994794 239.89588a15.993059 13.993926 0 1 0 31.986117 0 15.993059 13.993926 0 1 0-31.986117 0Z" fill="#7A442C" /><path d="M530.991757 239.89588a8.996095 7.996529 0 1 0 17.992191 0 8.996095 7.996529 0 1 0-17.992191 0Z" fill="#844A32" /><path d="M531.991323 232.898916a3.998265 3.998265 0 1 0 7.99653 0 3.998265 3.998265 0 1 0-7.99653 0Z" fill="#9E604A" /><path d="M548.983948 216.905858a15.993059 13.993926 0 1 0 31.986117 0 15.993059 13.993926 0 1 0-31.986117 0Z" fill="#7A442C" /><path d="M555.980911 216.905858a8.996095 7.996529 0 1 0 17.992191 0 8.996095 7.996529 0 1 0-17.992191 0Z" fill="#844A32" /><path d="M556.980477 209.908895a3.998265 3.998265 0 1 0 7.99653 0 3.998265 3.998265 0 1 0-7.99653 0Z" fill="#9E604A" /><path d="M526.993492 219.904556a15.993059 13.993926 0 1 0 31.986118 0 15.993059 13.993926 0 1 0-31.986118 0Z" fill="#7A442C" /><path d="M533.990456 219.904556a8.996095 7.996529 0 1 0 17.992191 0 8.996095 7.996529 0 1 0-17.992191 0Z" fill="#844A32" /><path d="M535.989588 212.907593a3.998265 3.998265 0 1 0 7.996529 0 3.998265 3.998265 0 1 0-7.996529 0Z" fill="#9E604A" /><path d="M491.009111 254.889372a15.993059 13.993926 0 1 0 31.986117 0 15.993059 13.993926 0 1 0-31.986117 0Z" fill="#7A442C" /><path d="M498.006074 254.889372a8.996095 7.996529 0 1 0 17.992191 0 8.996095 7.996529 0 1 0-17.992191 0Z" fill="#844A32" /><path d="M500.005206 247.892409a3.998265 3.998265 0 1 0 7.996529 0 3.998265 3.998265 0 1 0-7.996529 0Z" fill="#9E604A" /><path d="M468.019089 270.882431a15.993059 13.993926 0 1 0 31.986117 0 15.993059 13.993926 0 1 0-31.986117 0Z" fill="#7A442C" /><path d="M475.016052 270.882431a8.996095 7.996529 0 1 0 17.992191 0 8.996095 7.996529 0 1 0-17.992191 0Z" fill="#844A32" /><path d="M477.015184 263.885468a3.998265 3.998265 0 1 0 7.99653 0 3.998265 3.998265 0 1 0-7.99653 0Z" fill="#9E604A" /><path d="M501.004772 280.878092a15.993059 13.993926 0 1 0 31.986117 0 15.993059 13.993926 0 1 0-31.986117 0Z" fill="#7A442C" /><path d="M508.001735 280.878092a8.996095 7.996529 0 1 0 17.992191 0 8.996095 7.996529 0 1 0-17.992191 0Z" fill="#844A32" /><path d="M509.001302 273.881129a3.998265 3.998265 0 1 0 7.996529 0 3.998265 3.998265 0 1 0-7.996529 0Z" fill="#9E604A" /><path d="M523.994794 273.881129a15.993059 13.993926 0 1 0 31.986117 0 15.993059 13.993926 0 1 0-31.986117 0Z" fill="#7A442C" /><path d="M530.991757 273.881129a8.996095 7.996529 0 1 0 17.992191 0 8.996095 7.996529 0 1 0-17.992191 0Z" fill="#844A32" /><path d="M531.991323 266.884166a3.998265 3.998265 0 1 0 7.99653 0 3.998265 3.998265 0 1 0-7.99653 0Z" fill="#9E604A" /><path d="M523.994794 260.886769a15.993059 13.993926 0 1 0 31.986117 0 15.993059 13.993926 0 1 0-31.986117 0Z" fill="#7A442C" /><path d="M530.991757 260.886769a8.996095 7.996529 0 1 0 17.992191 0 8.996095 7.996529 0 1 0-17.992191 0Z" fill="#844A32" /><path d="M531.991323 253.889806a3.998265 3.998265 0 1 0 7.99653 0 3.998265 3.998265 0 1 0-7.99653 0Z" fill="#9E604A" /><path d="M549.983514 267.883732a15.993059 13.993926 0 1 0 31.986118 0 15.993059 13.993926 0 1 0-31.986118 0Z" fill="#7A442C" /><path d="M556.980477 267.883732a8.996095 7.996529 0 1 0 17.992191 0 8.996095 7.996529 0 1 0-17.992191 0Z" fill="#844A32" /><path d="M557.980044 261.886335a3.998265 3.998265 0 1 0 7.996529 0 3.998265 3.998265 0 1 0-7.996529 0Z" fill="#9E604A" /><path d="M552.982213 243.894144a15.993059 13.993926 0 1 0 31.986117 0 15.993059 13.993926 0 1 0-31.986117 0Z" fill="#7A442C" /><path d="M559.979176 243.894144a8.996095 7.996529 0 1 0 17.992191 0 8.996095 7.996529 0 1 0-17.992191 0Z" fill="#844A32" /><path d="M561.978308 236.897181a3.998265 3.998265 0 1 0 7.99653 0 3.998265 3.998265 0 1 0-7.99653 0Z" fill="#9E604A" /><path d="M574.972668 257.888071a15.993059 13.993926 0 1 0 31.986118 0 15.993059 13.993926 0 1 0-31.986118 0Z" fill="#7A442C" /><path d="M581.969632 257.888071a8.996095 7.996529 0 1 0 17.992191 0 8.996095 7.996529 0 1 0-17.992191 0Z" fill="#844A32" /><path d="M582.969198 250.891107a3.998265 3.998265 0 1 0 7.996529 0 3.998265 3.998265 0 1 0-7.996529 0Z" fill="#9E604A" /><path d="M496.006941 302.868548a15.993059 13.993926 0 1 0 31.986118 0 15.993059 13.993926 0 1 0-31.986118 0Z" fill="#7A442C" /><path d="M503.003905 302.868548a8.996095 7.996529 0 1 0 17.99219 0 8.996095 7.996529 0 1 0-17.99219 0Z" fill="#844A32" /><path d="M505.003037 295.871585a3.998265 3.998265 0 1 0 7.996529 0 3.998265 3.998265 0 1 0-7.996529 0Z" fill="#9E604A" /><path d="M468.019089 314.863342a15.993059 13.993926 0 1 0 31.986117 0 15.993059 13.993926 0 1 0-31.986117 0Z" fill="#7A442C" /><path d="M475.016052 314.863342a8.996095 7.996529 0 1 0 17.992191 0 8.996095 7.996529 0 1 0-17.992191 0Z" fill="#844A32" /><path d="M477.015184 308.865945a3.998265 3.998265 0 1 0 7.99653 0 3.998265 3.998265 0 1 0-7.99653 0Z" fill="#9E604A" /><path d="M448.027765 332.855533a15.993059 13.993926 0 1 0 31.986118 0 15.993059 13.993926 0 1 0-31.986118 0Z" fill="#7A442C" /><path d="M455.024729 332.855533a8.996095 7.996529 0 1 0 17.992191 0 8.996095 7.996529 0 1 0-17.992191 0Z" fill="#844A32" /><path d="M456.024295 325.85857a3.998265 3.998265 0 1 0 7.996529 0 3.998265 3.998265 0 1 0-7.996529 0Z" fill="#9E604A" /><path d="M422.039045 320.860739a15.993059 13.993926 0 1 0 31.986117 0 15.993059 13.993926 0 1 0-31.986117 0Z" fill="#7A442C" /><path d="M429.036008 320.860739a8.996095 7.996529 0 1 0 17.992191 0 8.996095 7.996529 0 1 0-17.992191 0Z" fill="#844A32" /><path d="M430.035574 313.863776a3.998265 3.998265 0 1 0 7.99653 0 3.998265 3.998265 0 1 0-7.99653 0Z" fill="#9E604A" /><path d="M434.033839 356.845121a15.993059 13.993926 0 1 0 31.986117 0 15.993059 13.993926 0 1 0-31.986117 0Z" fill="#7A442C" /><path d="M441.030802 356.845121a8.996095 7.996529 0 1 0 17.992191 0 8.996095 7.996529 0 1 0-17.992191 0Z" fill="#844A32" /><path d="M443.029935 349.848158a3.998265 3.998265 0 1 0 7.996529 0 3.998265 3.998265 0 1 0-7.996529 0Z" fill="#9E604A" /><path d="M408.045119 345.849893a15.993059 13.993926 0 1 0 31.986117 0 15.993059 13.993926 0 1 0-31.986117 0Z" fill="#7A442C" /><path d="M415.042082 345.849893a8.996095 7.996529 0 1 0 17.992191 0 8.996095 7.996529 0 1 0-17.992191 0Z" fill="#844A32" /><path d="M417.041214 338.85293a3.998265 3.998265 0 1 0 7.99653 0 3.998265 3.998265 0 1 0-7.99653 0Z" fill="#9E604A" /><path d="M398.049457 323.859437a15.993059 13.993926 0 1 0 31.986117 0 15.993059 13.993926 0 1 0-31.986117 0Z" fill="#7A442C" /><path d="M405.04642 323.859437a8.996095 7.996529 0 1 0 17.992191 0 8.996095 7.996529 0 1 0-17.992191 0Z" fill="#844A32" /><path d="M406.045987 316.862474a3.998265 3.998265 0 1 0 7.996529 0 3.998265 3.998265 0 1 0-7.996529 0Z" fill="#9E604A" /><path d="M409.044685 371.838613a15.993059 13.993926 0 1 0 31.986117 0 15.993059 13.993926 0 1 0-31.986117 0Z" fill="#7A442C" /><path d="M416.041648 371.838613a8.996095 7.996529 0 1 0 17.992191 0 8.996095 7.996529 0 1 0-17.992191 0Z" fill="#844A32" /><path d="M418.040781 364.84165a3.998265 3.998265 0 1 0 7.996529 0 3.998265 3.998265 0 1 0-7.996529 0Z" fill="#9E604A" /><path d="M414.042516 394.828635a15.993059 13.993926 0 1 0 31.986117 0 15.993059 13.993926 0 1 0-31.986117 0Z" fill="#7A442C" /><path d="M421.039479 394.828635a8.996095 7.996529 0 1 0 17.992191 0 8.996095 7.996529 0 1 0-17.992191 0Z" fill="#844A32" /><path d="M422.039045 387.831672a3.998265 3.998265 0 1 0 7.996529 0 3.998265 3.998265 0 1 0-7.996529 0Z" fill="#9E604A" /><path d="M382.056399 388.831238a15.993059 13.993926 0 1 0 31.986117 0 15.993059 13.993926 0 1 0-31.986117 0Z" fill="#7A442C" /><path d="M389.053362 388.831238a8.996095 7.996529 0 1 0 17.992191 0 8.996095 7.996529 0 1 0-17.992191 0Z" fill="#844A32" /><path d="M391.052494 381.834275a3.998265 3.998265 0 1 0 7.996529 0 3.998265 3.998265 0 1 0-7.996529 0Z" fill="#9E604A" /><path d="M386.054663 360.843386a15.993059 13.993926 0 1 0 31.986118 0 15.993059 13.993926 0 1 0-31.986118 0Z" fill="#7A442C" /><path d="M393.051626 360.843386a8.996095 7.996529 0 1 0 17.992191 0 8.996095 7.996529 0 1 0-17.992191 0Z" fill="#844A32" /><path d="M395.050759 353.846422a3.998265 3.998265 0 1 0 7.996529 0 3.998265 3.998265 0 1 0-7.996529 0Z" fill="#9E604A" /><path d="M468.019089 295.871585a15.993059 13.993926 0 1 0 31.986117 0 15.993059 13.993926 0 1 0-31.986117 0Z" fill="#7A442C" /><path d="M475.016052 295.871585a8.996095 7.996529 0 1 0 17.992191 0 8.996095 7.996529 0 1 0-17.992191 0Z" fill="#844A32" /><path d="M477.015184 288.874622a3.998265 3.998265 0 1 0 7.99653 0 3.998265 3.998265 0 1 0-7.99653 0Z" fill="#9E604A" /><path d="M441.030802 302.868548a15.993059 13.993926 0 1 0 31.986118 0 15.993059 13.993926 0 1 0-31.986118 0Z" fill="#7A442C" /><path d="M448.027765 302.868548a8.996095 7.996529 0 1 0 17.992191 0 8.996095 7.996529 0 1 0-17.992191 0Z" fill="#844A32" /><path d="M450.026898 295.871585a3.998265 3.998265 0 1 0 7.996529 0 3.998265 3.998265 0 1 0-7.996529 0Z" fill="#9E604A" /><path d="M441.030802 254.889372a15.993059 13.993926 0 1 0 31.986118 0 15.993059 13.993926 0 1 0-31.986118 0Z" fill="#7A442C" /><path d="M448.027765 254.889372a8.996095 7.996529 0 1 0 17.992191 0 8.996095 7.996529 0 1 0-17.992191 0Z" fill="#844A32" /><path d="M450.026898 247.892409a3.998265 3.998265 0 1 0 7.996529 0 3.998265 3.998265 0 1 0-7.996529 0Z" fill="#9E604A" /><path d="M416.041648 273.881129a15.993059 13.993926 0 1 0 31.986117 0 15.993059 13.993926 0 1 0-31.986117 0Z" fill="#7A442C" /><path d="M423.038611 273.881129a8.996095 7.996529 0 1 0 17.992191 0 8.996095 7.996529 0 1 0-17.992191 0Z" fill="#844A32" /><path d="M424.038177 266.884166a3.998265 3.998265 0 1 0 7.99653 0 3.998265 3.998265 0 1 0-7.99653 0Z" fill="#9E604A" /><path d="M442.030368 279.878526a15.993059 13.993926 0 1 0 31.986118 0 15.993059 13.993926 0 1 0-31.986118 0Z" fill="#7A442C" /><path d="M449.027332 279.878526a8.996095 7.996529 0 1 0 17.992191 0 8.996095 7.996529 0 1 0-17.992191 0Z" fill="#844A32" /><path d="M451.026464 272.881563a3.998265 3.998265 0 1 0 7.996529 0 3.998265 3.998265 0 1 0-7.996529 0Z" fill="#9E604A" /><path d="M406.045987 299.869849a15.993059 13.993926 0 1 0 31.986117 0 15.993059 13.993926 0 1 0-31.986117 0Z" fill="#7A442C" /><path d="M413.04295 299.869849a8.996095 7.996529 0 1 0 17.992191 0 8.996095 7.996529 0 1 0-17.992191 0Z" fill="#844A32" /><path d="M415.042082 292.872886a3.998265 3.998265 0 1 0 7.996529 0 3.998265 3.998265 0 1 0-7.996529 0Z" fill="#9E604A" /><path d="M501.004772 321.860305a15.993059 13.993926 0 1 0 31.986117 0 15.993059 13.993926 0 1 0-31.986117 0Z" fill="#7A442C" /><path d="M508.001735 321.860305a8.996095 7.996529 0 1 0 17.992191 0 8.996095 7.996529 0 1 0-17.992191 0Z" fill="#844A32" /><path d="M509.001302 314.863342a3.998265 3.998265 0 1 0 7.996529 0 3.998265 3.998265 0 1 0-7.996529 0Z" fill="#9E604A" /><path d="M523.994794 314.863342a15.993059 13.993926 0 1 0 31.986117 0 15.993059 13.993926 0 1 0-31.986117 0Z" fill="#7A442C" /><path d="M530.991757 314.863342a8.996095 7.996529 0 1 0 17.992191 0 8.996095 7.996529 0 1 0-17.992191 0Z" fill="#844A32" /><path d="M531.991323 307.866379a3.998265 3.998265 0 1 0 7.99653 0 3.998265 3.998265 0 1 0-7.99653 0Z" fill="#9E604A" /><path d="M548.983948 296.871151a15.993059 13.993926 0 1 0 31.986117 0 15.993059 13.993926 0 1 0-31.986117 0Z" fill="#7A442C" /><path d="M555.980911 296.871151a8.996095 7.996529 0 1 0 17.992191 0 8.996095 7.996529 0 1 0-17.992191 0Z" fill="#844A32" /><path d="M556.980477 289.874188a3.998265 3.998265 0 1 0 7.99653 0 3.998265 3.998265 0 1 0-7.99653 0Z" fill="#9E604A" /><path d="M570.974404 304.86768a15.993059 13.993926 0 1 0 31.986117 0 15.993059 13.993926 0 1 0-31.986117 0Z" fill="#7A442C" /><path d="M577.971367 304.86768a8.996095 7.996529 0 1 0 17.992191 0 8.996095 7.996529 0 1 0-17.992191 0Z" fill="#844A32" /><path d="M579.970499 297.870717a3.998265 3.998265 0 1 0 7.99653 0 3.998265 3.998265 0 1 0-7.99653 0Z" fill="#9E604A" /><path d="M587.967029 290.873754a15.993059 13.993926 0 1 0 31.986117 0 15.993059 13.993926 0 1 0-31.986117 0Z" fill="#7A442C" /><path d="M594.963992 290.873754a8.996095 7.996529 0 1 0 17.992191 0 8.996095 7.996529 0 1 0-17.992191 0Z" fill="#844A32" /><path d="M595.963558 283.876791a3.998265 3.998265 0 1 0 7.996529 0 3.998265 3.998265 0 1 0-7.996529 0Z" fill="#9E604A" /><path d="M565.976573 281.877658a15.993059 13.993926 0 1 0 31.986117 0 15.993059 13.993926 0 1 0-31.986117 0Z" fill="#7A442C" /><path d="M572.973536 281.877658a8.996095 7.996529 0 1 0 17.992191 0 8.996095 7.996529 0 1 0-17.992191 0Z" fill="#844A32" /><path d="M573.973102 274.880695a3.998265 3.998265 0 1 0 7.99653 0 3.998265 3.998265 0 1 0-7.99653 0Z" fill="#9E604A" /><path d="M526.993492 294.872019a15.993059 13.993926 0 1 0 31.986118 0 15.993059 13.993926 0 1 0-31.986118 0Z" fill="#7A442C" /><path d="M533.990456 294.872019a8.996095 7.996529 0 1 0 17.992191 0 8.996095 7.996529 0 1 0-17.992191 0Z" fill="#844A32" /><path d="M535.989588 287.875055a3.998265 3.998265 0 1 0 7.996529 0 3.998265 3.998265 0 1 0-7.996529 0Z" fill="#9E604A" /><path d="M496.006941 333.855099a15.993059 13.993926 0 1 0 31.986118 0 15.993059 13.993926 0 1 0-31.986118 0Z" fill="#7A442C" /><path d="M503.003905 333.855099a8.996095 7.996529 0 1 0 17.99219 0 8.996095 7.996529 0 1 0-17.99219 0Z" fill="#844A32" /><path d="M505.003037 327.857702a3.998265 3.998265 0 1 0 7.996529 0 3.998265 3.998265 0 1 0-7.996529 0Z" fill="#9E604A" /><path d="M468.019089 346.849459a15.993059 13.993926 0 1 0 31.986117 0 15.993059 13.993926 0 1 0-31.986117 0Z" fill="#7A442C" /><path d="M475.016052 346.849459a8.996095 7.996529 0 1 0 17.992191 0 8.996095 7.996529 0 1 0-17.992191 0Z" fill="#844A32" /><path d="M477.015184 339.852496a3.998265 3.998265 0 1 0 7.99653 0 3.998265 3.998265 0 1 0-7.99653 0Z" fill="#9E604A" /><path d="M501.004772 353.846422a15.993059 13.993926 0 1 0 31.986117 0 15.993059 13.993926 0 1 0-31.986117 0Z" fill="#7A442C" /><path d="M508.001735 353.846422a8.996095 7.996529 0 1 0 17.992191 0 8.996095 7.996529 0 1 0-17.992191 0Z" fill="#844A32" /><path d="M509.001302 346.849459a3.998265 3.998265 0 1 0 7.996529 0 3.998265 3.998265 0 1 0-7.996529 0Z" fill="#9E604A" /><path d="M523.994794 346.849459a15.993059 13.993926 0 1 0 31.986117 0 15.993059 13.993926 0 1 0-31.986117 0Z" fill="#7A442C" /><path d="M530.991757 346.849459a8.996095 7.996529 0 1 0 17.992191 0 8.996095 7.996529 0 1 0-17.992191 0Z" fill="#844A32" /><path d="M531.991323 339.852496a3.998265 3.998265 0 1 0 7.99653 0 3.998265 3.998265 0 1 0-7.99653 0Z" fill="#9E604A" /><path d="M496.006941 374.837312a15.993059 13.993926 0 1 0 31.986118 0 15.993059 13.993926 0 1 0-31.986118 0Z" fill="#7A442C" /><path d="M503.003905 374.837312a8.996095 7.996529 0 1 0 17.99219 0 8.996095 7.996529 0 1 0-17.99219 0Z" fill="#844A32" /><path d="M505.003037 368.839915a3.998265 3.998265 0 1 0 7.996529 0 3.998265 3.998265 0 1 0-7.996529 0Z" fill="#9E604A" /><path d="M468.019089 387.831672a15.993059 13.993926 0 1 0 31.986117 0 15.993059 13.993926 0 1 0-31.986117 0Z" fill="#7A442C" /><path d="M475.016052 387.831672a8.996095 7.996529 0 1 0 17.992191 0 8.996095 7.996529 0 1 0-17.992191 0Z" fill="#844A32" /><path d="M477.015184 380.834709a3.998265 3.998265 0 1 0 7.99653 0 3.998265 3.998265 0 1 0-7.99653 0Z" fill="#9E604A" /><path d="M468.019089 368.839915a15.993059 13.993926 0 1 0 31.986117 0 15.993059 13.993926 0 1 0-31.986117 0Z" fill="#7A442C" /><path d="M475.016052 368.839915a8.996095 7.996529 0 1 0 17.992191 0 8.996095 7.996529 0 1 0-17.992191 0Z" fill="#844A32" /><path d="M477.015184 361.842952a3.998265 3.998265 0 1 0 7.99653 0 3.998265 3.998265 0 1 0-7.99653 0Z" fill="#9E604A" /><path d="M441.030802 375.836878a15.993059 13.993926 0 1 0 31.986118 0 15.993059 13.993926 0 1 0-31.986118 0Z" fill="#7A442C" /><path d="M448.027765 375.836878a8.996095 7.996529 0 1 0 17.992191 0 8.996095 7.996529 0 1 0-17.992191 0Z" fill="#844A32" /><path d="M450.026898 368.839915a3.998265 3.998265 0 1 0 7.996529 0 3.998265 3.998265 0 1 0-7.996529 0Z" fill="#9E604A" /><path d="M501.004772 394.828635a15.993059 13.993926 0 1 0 31.986117 0 15.993059 13.993926 0 1 0-31.986117 0Z" fill="#7A442C" /><path d="M508.001735 394.828635a8.996095 7.996529 0 1 0 17.992191 0 8.996095 7.996529 0 1 0-17.992191 0Z" fill="#844A32" /><path d="M509.001302 387.831672a3.998265 3.998265 0 1 0 7.996529 0 3.998265 3.998265 0 1 0-7.996529 0Z" fill="#9E604A" /><path d="M523.994794 387.831672a15.993059 13.993926 0 1 0 31.986117 0 15.993059 13.993926 0 1 0-31.986117 0Z" fill="#7A442C" /><path d="M530.991757 387.831672a8.996095 7.996529 0 1 0 17.992191 0 8.996095 7.996529 0 1 0-17.992191 0Z" fill="#844A32" /><path d="M531.991323 380.834709a3.998265 3.998265 0 1 0 7.99653 0 3.998265 3.998265 0 1 0-7.99653 0Z" fill="#9E604A" /><path d="M548.983948 364.84165a15.993059 13.993926 0 1 0 31.986117 0 15.993059 13.993926 0 1 0-31.986117 0Z" fill="#7A442C" /><path d="M555.980911 364.84165a8.996095 7.996529 0 1 0 17.992191 0 8.996095 7.996529 0 1 0-17.992191 0Z" fill="#844A32" /><path d="M556.980477 357.844687a3.998265 3.998265 0 1 0 7.99653 0 3.998265 3.998265 0 1 0-7.99653 0Z" fill="#9E604A" /><path d="M526.993492 367.840349a15.993059 13.993926 0 1 0 31.986118 0 15.993059 13.993926 0 1 0-31.986118 0Z" fill="#7A442C" /><path d="M533.990456 367.840349a8.996095 7.996529 0 1 0 17.992191 0 8.996095 7.996529 0 1 0-17.992191 0Z" fill="#844A32" /><path d="M535.989588 360.843386a3.998265 3.998265 0 1 0 7.996529 0 3.998265 3.998265 0 1 0-7.996529 0Z" fill="#9E604A" /><path d="M491.009111 402.825164a15.993059 13.993926 0 1 0 31.986117 0 15.993059 13.993926 0 1 0-31.986117 0Z" fill="#7A442C" /><path d="M498.006074 402.825164a8.996095 7.996529 0 1 0 17.992191 0 8.996095 7.996529 0 1 0-17.992191 0Z" fill="#844A32" /><path d="M500.005206 395.828201a3.998265 3.998265 0 1 0 7.996529 0 3.998265 3.998265 0 1 0-7.996529 0Z" fill="#9E604A" /><path d="M468.019089 418.818223a15.993059 13.993926 0 1 0 31.986117 0 15.993059 13.993926 0 1 0-31.986117 0Z" fill="#7A442C" /><path d="M475.016052 418.818223a8.996095 7.996529 0 1 0 17.992191 0 8.996095 7.996529 0 1 0-17.992191 0Z" fill="#844A32" /><path d="M477.015184 411.82126a3.998265 3.998265 0 1 0 7.99653 0 3.998265 3.998265 0 1 0-7.99653 0Z" fill="#9E604A" /><path d="M501.004772 428.813885a15.993059 13.993926 0 1 0 31.986117 0 15.993059 13.993926 0 1 0-31.986117 0Z" fill="#7A442C" /><path d="M508.001735 428.813885a8.996095 7.996529 0 1 0 17.992191 0 8.996095 7.996529 0 1 0-17.992191 0Z" fill="#844A32" /><path d="M509.001302 422.816488a3.998265 3.998265 0 1 0 7.996529 0 3.998265 3.998265 0 1 0-7.996529 0Z" fill="#9E604A" /><path d="M523.994794 408.822561a15.993059 13.993926 0 1 0 31.986117 0 15.993059 13.993926 0 1 0-31.986117 0Z" fill="#7A442C" /><path d="M530.991757 408.822561a8.996095 7.996529 0 1 0 17.992191 0 8.996095 7.996529 0 1 0-17.992191 0Z" fill="#844A32" /><path d="M531.991323 401.825598a3.998265 3.998265 0 1 0 7.99653 0 3.998265 3.998265 0 1 0-7.99653 0Z" fill="#9E604A" /><path d="M551.982647 408.822561a15.993059 13.993926 0 1 0 31.986117 0 15.993059 13.993926 0 1 0-31.986117 0Z" fill="#7A442C" /><path d="M558.97961 408.822561a8.996095 7.996529 0 1 0 17.992191 0 8.996095 7.996529 0 1 0-17.992191 0Z" fill="#844A32" /><path d="M560.978742 401.825598a3.998265 3.998265 0 1 0 7.996529 0 3.998265 3.998265 0 1 0-7.996529 0Z" fill="#9E604A" /><path d="M551.982647 387.831672a15.993059 13.993926 0 1 0 31.986117 0 15.993059 13.993926 0 1 0-31.986117 0Z" fill="#7A442C" /><path d="M558.97961 387.831672a8.996095 7.996529 0 1 0 17.992191 0 8.996095 7.996529 0 1 0-17.992191 0Z" fill="#844A32" /><path d="M560.978742 380.834709a3.998265 3.998265 0 1 0 7.996529 0 3.998265 3.998265 0 1 0-7.996529 0Z" fill="#9E604A" /><path d="M577.971367 376.836444a15.993059 13.993926 0 1 0 31.986117 0 15.993059 13.993926 0 1 0-31.986117 0Z" fill="#7A442C" /><path d="M584.96833 376.836444a8.996095 7.996529 0 1 0 17.992191 0 8.996095 7.996529 0 1 0-17.992191 0Z" fill="#844A32" /><path d="M586.967462 369.839481a3.998265 3.998265 0 1 0 7.99653 0 3.998265 3.998265 0 1 0-7.99653 0Z" fill="#9E604A" /><path d="M574.972668 405.823863a15.993059 13.993926 0 1 0 31.986118 0 15.993059 13.993926 0 1 0-31.986118 0Z" fill="#7A442C" /><path d="M581.969632 405.823863a8.996095 7.996529 0 1 0 17.992191 0 8.996095 7.996529 0 1 0-17.992191 0Z" fill="#844A32" /><path d="M582.969198 398.8269a3.998265 3.998265 0 1 0 7.996529 0 3.998265 3.998265 0 1 0-7.996529 0Z" fill="#9E604A" /><path d="M600.961389 395.828201a15.993059 13.993926 0 1 0 31.986117 0 15.993059 13.993926 0 1 0-31.986117 0Z" fill="#7A442C" /><path d="M607.958352 395.828201a8.996095 7.996529 0 1 0 17.992191 0 8.996095 7.996529 0 1 0-17.992191 0Z" fill="#844A32" /><path d="M609.957484 388.831238a3.998265 3.998265 0 1 0 7.996529 0 3.998265 3.998265 0 1 0-7.996529 0Z" fill="#9E604A" /><path d="M607.958352 369.839481a15.993059 13.993926 0 1 0 31.986117 0 15.993059 13.993926 0 1 0-31.986117 0Z" fill="#7A442C" /><path d="M614.955315 369.839481a8.996095 7.996529 0 1 0 17.992191 0 8.996095 7.996529 0 1 0-17.992191 0Z" fill="#844A32" /><path d="M615.954881 362.842518a3.998265 3.998265 0 1 0 7.996529 0 3.998265 3.998265 0 1 0-7.996529 0Z" fill="#9E604A" /><path d="M496.006941 450.80434a15.993059 13.993926 0 1 0 31.986118 0 15.993059 13.993926 0 1 0-31.986118 0Z" fill="#7A442C" /><path d="M503.003905 450.80434a8.996095 7.996529 0 1 0 17.99219 0 8.996095 7.996529 0 1 0-17.99219 0Z" fill="#844A32" /><path d="M505.003037 443.807377a3.998265 3.998265 0 1 0 7.996529 0 3.998265 3.998265 0 1 0-7.996529 0Z" fill="#9E604A" /><path d="M468.019089 463.7987a15.993059 13.993926 0 1 0 31.986117 0 15.993059 13.993926 0 1 0-31.986117 0Z" fill="#7A442C" /><path d="M475.016052 463.7987a8.996095 7.996529 0 1 0 17.992191 0 8.996095 7.996529 0 1 0-17.992191 0Z" fill="#844A32" /><path d="M477.015184 456.801737a3.998265 3.998265 0 1 0 7.99653 0 3.998265 3.998265 0 1 0-7.99653 0Z" fill="#9E604A" /><path d="M468.019089 443.807377a15.993059 13.993926 0 1 0 31.986117 0 15.993059 13.993926 0 1 0-31.986117 0Z" fill="#7A442C" /><path d="M475.016052 443.807377a8.996095 7.996529 0 1 0 17.992191 0 8.996095 7.996529 0 1 0-17.992191 0Z" fill="#844A32" /><path d="M477.015184 436.810414a3.998265 3.998265 0 1 0 7.99653 0 3.998265 3.998265 0 1 0-7.99653 0Z" fill="#9E604A" /><path d="M441.030802 451.803907a15.993059 13.993926 0 1 0 31.986118 0 15.993059 13.993926 0 1 0-31.986118 0Z" fill="#7A442C" /><path d="M448.027765 451.803907a8.996095 7.996529 0 1 0 17.992191 0 8.996095 7.996529 0 1 0-17.992191 0Z" fill="#844A32" /><path d="M450.026898 444.806943a3.998265 3.998265 0 1 0 7.996529 0 3.998265 3.998265 0 1 0-7.996529 0Z" fill="#9E604A" /><path d="M441.030802 402.825164a15.993059 13.993926 0 1 0 31.986118 0 15.993059 13.993926 0 1 0-31.986118 0Z" fill="#7A442C" /><path d="M448.027765 402.825164a8.996095 7.996529 0 1 0 17.992191 0 8.996095 7.996529 0 1 0-17.992191 0Z" fill="#844A32" /><path d="M450.026898 395.828201a3.998265 3.998265 0 1 0 7.996529 0 3.998265 3.998265 0 1 0-7.996529 0Z" fill="#9E604A" /><path d="M416.041648 422.816488a15.993059 13.993926 0 1 0 31.986117 0 15.993059 13.993926 0 1 0-31.986117 0Z" fill="#7A442C" /><path d="M423.038611 422.816488a8.996095 7.996529 0 1 0 17.992191 0 8.996095 7.996529 0 1 0-17.992191 0Z" fill="#844A32" /><path d="M424.038177 415.819525a3.998265 3.998265 0 1 0 7.99653 0 3.998265 3.998265 0 1 0-7.99653 0Z" fill="#9E604A" /><path d="M387.054229 414.819958a15.993059 13.993926 0 1 0 31.986118 0 15.993059 13.993926 0 1 0-31.986118 0Z" fill="#7A442C" /><path d="M394.051193 414.819958a8.996095 7.996529 0 1 0 17.992191 0 8.996095 7.996529 0 1 0-17.992191 0Z" fill="#844A32" /><path d="M396.050325 407.822995a3.998265 3.998265 0 1 0 7.996529 0 3.998265 3.998265 0 1 0-7.996529 0Z" fill="#9E604A" /><path d="M442.030368 427.814319a15.993059 13.993926 0 1 0 31.986118 0 15.993059 13.993926 0 1 0-31.986118 0Z" fill="#7A442C" /><path d="M449.027332 427.814319a8.996095 7.996529 0 1 0 17.992191 0 8.996095 7.996529 0 1 0-17.992191 0Z" fill="#844A32" /><path d="M451.026464 420.817355a3.998265 3.998265 0 1 0 7.996529 0 3.998265 3.998265 0 1 0-7.996529 0Z" fill="#9E604A" /><path d="M406.045987 447.805642a15.993059 13.993926 0 1 0 31.986117 0 15.993059 13.993926 0 1 0-31.986117 0Z" fill="#7A442C" /><path d="M413.04295 447.805642a8.996095 7.996529 0 1 0 17.992191 0 8.996095 7.996529 0 1 0-17.992191 0Z" fill="#844A32" /><path d="M415.042082 440.808679a3.998265 3.998265 0 1 0 7.996529 0 3.998265 3.998265 0 1 0-7.996529 0Z" fill="#9E604A" /><path d="M380.057266 440.808679a15.993059 13.993926 0 1 0 31.986118 0 15.993059 13.993926 0 1 0-31.986118 0Z" fill="#7A442C" /><path d="M387.054229 440.808679a8.996095 7.996529 0 1 0 17.992191 0 8.996095 7.996529 0 1 0-17.992191 0Z" fill="#844A32" /><path d="M388.053796 433.811716a3.998265 3.998265 0 1 0 7.996529 0 3.998265 3.998265 0 1 0-7.996529 0Z" fill="#9E604A" /><path d="M380.057266 468.796531a15.993059 13.993926 0 1 0 31.986118 0 15.993059 13.993926 0 1 0-31.986118 0Z" fill="#7A442C" /><path d="M387.054229 468.796531a8.996095 7.996529 0 1 0 17.992191 0 8.996095 7.996529 0 1 0-17.992191 0Z" fill="#844A32" /><path d="M388.053796 461.799568a3.998265 3.998265 0 1 0 7.996529 0 3.998265 3.998265 0 1 0-7.996529 0Z" fill="#9E604A" /><path d="M388.053796 493.785685a15.993059 13.993926 0 1 0 31.986117 0 15.993059 13.993926 0 1 0-31.986117 0Z" fill="#7A442C" /><path d="M395.050759 493.785685a8.996095 7.996529 0 1 0 17.992191 0 8.996095 7.996529 0 1 0-17.992191 0Z" fill="#844A32" /><path d="M397.049891 486.788722a3.998265 3.998265 0 1 0 7.996529 0 3.998265 3.998265 0 1 0-7.996529 0Z" fill="#9E604A" /><path d="M388.053796 519.774406a15.993059 13.993926 0 1 0 31.986117 0 15.993059 13.993926 0 1 0-31.986117 0Z" fill="#7A442C" /><path d="M395.050759 519.774406a8.996095 7.996529 0 1 0 17.992191 0 8.996095 7.996529 0 1 0-17.992191 0Z" fill="#844A32" /><path d="M397.049891 512.777443a3.998265 3.998265 0 1 0 7.996529 0 3.998265 3.998265 0 1 0-7.996529 0Z" fill="#9E604A" /><path d="M385.055097 551.760523a15.993059 13.993926 0 1 0 31.986117 0 15.993059 13.993926 0 1 0-31.986117 0Z" fill="#7A442C" /><path d="M392.05206 551.760523a8.996095 7.996529 0 1 0 17.992191 0 8.996095 7.996529 0 1 0-17.992191 0Z" fill="#844A32" /><path d="M393.051626 544.76356a3.998265 3.998265 0 1 0 7.99653 0 3.998265 3.998265 0 1 0-7.99653 0Z" fill="#9E604A" /><path d="M385.055097 581.747508a15.993059 13.993926 0 1 0 31.986117 0 15.993059 13.993926 0 1 0-31.986117 0Z" fill="#7A442C" /><path d="M392.05206 581.747508a8.996095 7.996529 0 1 0 17.992191 0 8.996095 7.996529 0 1 0-17.992191 0Z" fill="#844A32" /><path d="M393.051626 574.750545a3.998265 3.998265 0 1 0 7.99653 0 3.998265 3.998265 0 1 0-7.99653 0Z" fill="#9E604A" /><path d="M385.055097 612.734059a15.993059 13.993926 0 1 0 31.986117 0 15.993059 13.993926 0 1 0-31.986117 0Z" fill="#7A442C" /><path d="M392.05206 612.734059a8.996095 7.996529 0 1 0 17.992191 0 8.996095 7.996529 0 1 0-17.992191 0Z" fill="#844A32" /><path d="M393.051626 605.737096a3.998265 3.998265 0 1 0 7.99653 0 3.998265 3.998265 0 1 0-7.99653 0Z" fill="#9E604A" /><path d="M501.004772 469.796097a15.993059 13.993926 0 1 0 31.986117 0 15.993059 13.993926 0 1 0-31.986117 0Z" fill="#7A442C" /><path d="M508.001735 469.796097a8.996095 7.996529 0 1 0 17.992191 0 8.996095 7.996529 0 1 0-17.992191 0Z" fill="#844A32" /><path d="M509.001302 463.7987a3.998265 3.998265 0 1 0 7.996529 0 3.998265 3.998265 0 1 0-7.996529 0Z" fill="#9E604A" /><path d="M523.994794 462.799134a15.993059 13.993926 0 1 0 31.986117 0 15.993059 13.993926 0 1 0-31.986117 0Z" fill="#7A442C" /><path d="M530.991757 462.799134a8.996095 7.996529 0 1 0 17.992191 0 8.996095 7.996529 0 1 0-17.992191 0Z" fill="#844A32" /><path d="M531.991323 455.802171a3.998265 3.998265 0 1 0 7.99653 0 3.998265 3.998265 0 1 0-7.99653 0Z" fill="#9E604A" /><path d="M523.994794 488.787855a15.993059 13.993926 0 1 0 31.986117 0 15.993059 13.993926 0 1 0-31.986117 0Z" fill="#7A442C" /><path d="M530.991757 488.787855a8.996095 7.996529 0 1 0 17.992191 0 8.996095 7.996529 0 1 0-17.992191 0Z" fill="#844A32" /><path d="M531.991323 481.790891a3.998265 3.998265 0 1 0 7.99653 0 3.998265 3.998265 0 1 0-7.99653 0Z" fill="#9E604A" /><path d="M548.983948 440.808679a15.993059 13.993926 0 1 0 31.986117 0 15.993059 13.993926 0 1 0-31.986117 0Z" fill="#7A442C" /><path d="M555.980911 440.808679a8.996095 7.996529 0 1 0 17.992191 0 8.996095 7.996529 0 1 0-17.992191 0Z" fill="#844A32" /><path d="M556.980477 433.811716a3.998265 3.998265 0 1 0 7.99653 0 3.998265 3.998265 0 1 0-7.99653 0Z" fill="#9E604A" /><path d="M547.984382 461.799568a15.993059 13.993926 0 1 0 31.986117 0 15.993059 13.993926 0 1 0-31.986117 0Z" fill="#7A442C" /><path d="M554.981345 461.799568a8.996095 7.996529 0 1 0 17.992191 0 8.996095 7.996529 0 1 0-17.992191 0Z" fill="#844A32" /><path d="M555.980911 454.802605a3.998265 3.998265 0 1 0 7.99653 0 3.998265 3.998265 0 1 0-7.99653 0Z" fill="#9E604A" /><path d="M468.019089 487.788288a15.993059 13.993926 0 1 0 31.986117 0 15.993059 13.993926 0 1 0-31.986117 0Z" fill="#7A442C" /><path d="M475.016052 487.788288a8.996095 7.996529 0 1 0 17.992191 0 8.996095 7.996529 0 1 0-17.992191 0Z" fill="#844A32" /><path d="M477.015184 480.791325a3.998265 3.998265 0 1 0 7.99653 0 3.998265 3.998265 0 1 0-7.99653 0Z" fill="#9E604A" /><path d="M547.984382 485.789156a15.993059 13.993926 0 1 0 31.986117 0 15.993059 13.993926 0 1 0-31.986117 0Z" fill="#7A442C" /><path d="M554.981345 485.789156a8.996095 7.996529 0 1 0 17.992191 0 8.996095 7.996529 0 1 0-17.992191 0Z" fill="#844A32" /><path d="M555.980911 478.792193a3.998265 3.998265 0 1 0 7.99653 0 3.998265 3.998265 0 1 0-7.99653 0Z" fill="#9E604A" /><path d="M570.974404 452.803473a15.993059 13.993926 0 1 0 31.986117 0 15.993059 13.993926 0 1 0-31.986117 0Z" fill="#7A442C" /><path d="M577.971367 452.803473a8.996095 7.996529 0 1 0 17.992191 0 8.996095 7.996529 0 1 0-17.992191 0Z" fill="#844A32" /><path d="M579.970499 445.80651a3.998265 3.998265 0 1 0 7.99653 0 3.998265 3.998265 0 1 0-7.99653 0Z" fill="#9E604A" /><path d="M587.967029 438.809546a15.993059 13.993926 0 1 0 31.986117 0 15.993059 13.993926 0 1 0-31.986117 0Z" fill="#7A442C" /><path d="M594.963992 438.809546a8.996095 7.996529 0 1 0 17.992191 0 8.996095 7.996529 0 1 0-17.992191 0Z" fill="#844A32" /><path d="M595.963558 431.812583a3.998265 3.998265 0 1 0 7.996529 0 3.998265 3.998265 0 1 0-7.996529 0Z" fill="#9E604A" /><path d="M604.959653 418.818223a15.993059 13.993926 0 1 0 31.986118 0 15.993059 13.993926 0 1 0-31.986118 0Z" fill="#7A442C" /><path d="M611.956616 418.818223a8.996095 7.996529 0 1 0 17.992191 0 8.996095 7.996529 0 1 0-17.992191 0Z" fill="#844A32" /><path d="M613.955749 412.820826a3.998265 3.998265 0 1 0 7.996529 0 3.998265 3.998265 0 1 0-7.996529 0Z" fill="#9E604A" /><path d="M565.976573 429.813451a15.993059 13.993926 0 1 0 31.986117 0 15.993059 13.993926 0 1 0-31.986117 0Z" fill="#7A442C" /><path d="M572.973536 429.813451a8.996095 7.996529 0 1 0 17.992191 0 8.996095 7.996529 0 1 0-17.992191 0Z" fill="#844A32" /><path d="M573.973102 422.816488a3.998265 3.998265 0 1 0 7.99653 0 3.998265 3.998265 0 1 0-7.99653 0Z" fill="#9E604A" /><path d="M527.993059 433.811716a15.993059 13.993926 0 1 0 31.986117 0 15.993059 13.993926 0 1 0-31.986117 0Z" fill="#7A442C" /><path d="M534.990022 433.811716a8.996095 7.996529 0 1 0 17.992191 0 8.996095 7.996529 0 1 0-17.992191 0Z" fill="#844A32" /><path d="M536.989154 426.814752a3.998265 3.998265 0 1 0 7.996529 0 3.998265 3.998265 0 1 0-7.996529 0Z" fill="#9E604A" /><path d="M547.984382 325.85857a15.993059 13.993926 0 1 0 31.986117 0 15.993059 13.993926 0 1 0-31.986117 0Z" fill="#7A442C" /><path d="M554.981345 325.85857a8.996095 7.996529 0 1 0 17.992191 0 8.996095 7.996529 0 1 0-17.992191 0Z" fill="#844A32" /><path d="M555.980911 318.861607a3.998265 3.998265 0 1 0 7.99653 0 3.998265 3.998265 0 1 0-7.99653 0Z" fill="#9E604A" /><path d="M556.980477 346.849459a15.993059 13.993926 0 1 0 31.986118 0 15.993059 13.993926 0 1 0-31.986118 0Z" fill="#7A442C" /><path d="M563.977441 346.849459a8.996095 7.996529 0 1 0 17.992191 0 8.996095 7.996529 0 1 0-17.992191 0Z" fill="#844A32" /><path d="M565.976573 339.852496a3.998265 3.998265 0 1 0 7.996529 0 3.998265 3.998265 0 1 0-7.996529 0Z" fill="#9E604A" /><path d="M578.970933 327.857702a15.993059 13.993926 0 1 0 31.986117 0 15.993059 13.993926 0 1 0-31.986117 0Z" fill="#7A442C" /><path d="M585.967896 327.857702a8.996095 7.996529 0 1 0 17.992191 0 8.996095 7.996529 0 1 0-17.992191 0Z" fill="#844A32" /><path d="M587.967029 320.860739a3.998265 3.998265 0 1 0 7.996529 0 3.998265 3.998265 0 1 0-7.996529 0Z" fill="#9E604A" /><path d="M595.963558 313.863776a15.993059 13.993926 0 1 0 31.986117 0 15.993059 13.993926 0 1 0-31.986117 0Z" fill="#7A442C" /><path d="M602.960521 313.863776a8.996095 7.996529 0 1 0 17.992191 0 8.996095 7.996529 0 1 0-17.992191 0Z" fill="#844A32" /><path d="M603.960087 306.866813a3.998265 3.998265 0 1 0 7.996529 0 3.998265 3.998265 0 1 0-7.996529 0Z" fill="#9E604A" /><path d="M578.970933 354.845989a15.993059 13.993926 0 1 0 31.986117 0 15.993059 13.993926 0 1 0-31.986117 0Z" fill="#7A442C" /><path d="M585.967896 354.845989a8.996095 7.996529 0 1 0 17.992191 0 8.996095 7.996529 0 1 0-17.992191 0Z" fill="#844A32" /><path d="M587.967029 347.849025a3.998265 3.998265 0 1 0 7.996529 0 3.998265 3.998265 0 1 0-7.996529 0Z" fill="#9E604A" /><path d="M595.963558 339.852496a15.993059 13.993926 0 1 0 31.986117 0 15.993059 13.993926 0 1 0-31.986117 0Z" fill="#7A442C" /><path d="M602.960521 339.852496a8.996095 7.996529 0 1 0 17.992191 0 8.996095 7.996529 0 1 0-17.992191 0Z" fill="#844A32" /><path d="M603.960087 333.855099a3.998265 3.998265 0 1 0 7.996529 0 3.998265 3.998265 0 1 0-7.996529 0Z" fill="#9E604A" /><path d="M498.006074 498.783516a15.993059 13.993926 0 1 0 31.986117 0 15.993059 13.993926 0 1 0-31.986117 0Z" fill="#7A442C" /><path d="M505.003037 498.783516a8.996095 7.996529 0 1 0 17.992191 0 8.996095 7.996529 0 1 0-17.992191 0Z" fill="#844A32" /><path d="M507.002169 491.786553a3.998265 3.998265 0 1 0 7.996529 0 3.998265 3.998265 0 1 0-7.996529 0Z" fill="#9E604A" /><path d="M471.017787 511.777876a15.993059 13.993926 0 1 0 31.986118 0 15.993059 13.993926 0 1 0-31.986118 0Z" fill="#7A442C" /><path d="M478.01475 511.777876a8.996095 7.996529 0 1 0 17.992191 0 8.996095 7.996529 0 1 0-17.992191 0Z" fill="#844A32" /><path d="M479.014317 504.780913a3.998265 3.998265 0 1 0 7.996529 0 3.998265 3.998265 0 1 0-7.996529 0Z" fill="#9E604A" /><path d="M503.003905 518.77484a15.993059 13.993926 0 1 0 31.986117 0 15.993059 13.993926 0 1 0-31.986117 0Z" fill="#7A442C" /><path d="M510.000868 518.77484a8.996095 7.996529 0 1 0 17.992191 0 8.996095 7.996529 0 1 0-17.992191 0Z" fill="#844A32" /><path d="M512 511.777876a3.998265 3.998265 0 1 0 7.996529 0 3.998265 3.998265 0 1 0-7.996529 0Z" fill="#9E604A" /><path d="M525.993926 511.777876a15.993059 13.993926 0 1 0 31.986118 0 15.993059 13.993926 0 1 0-31.986118 0Z" fill="#7A442C" /><path d="M532.990889 511.777876a8.996095 7.996529 0 1 0 17.992191 0 8.996095 7.996529 0 1 0-17.992191 0Z" fill="#844A32" /><path d="M534.990022 504.780913a3.998265 3.998265 0 1 0 7.996529 0 3.998265 3.998265 0 1 0-7.996529 0Z" fill="#9E604A" /><path d="M498.006074 539.765729a15.993059 13.993926 0 1 0 31.986117 0 15.993059 13.993926 0 1 0-31.986117 0Z" fill="#7A442C" /><path d="M505.003037 539.765729a8.996095 7.996529 0 1 0 17.992191 0 8.996095 7.996529 0 1 0-17.992191 0Z" fill="#844A32" /><path d="M507.002169 532.768766a3.998265 3.998265 0 1 0 7.996529 0 3.998265 3.998265 0 1 0-7.996529 0Z" fill="#9E604A" /><path d="M471.017787 552.760089a15.993059 13.993926 0 1 0 31.986118 0 15.993059 13.993926 0 1 0-31.986118 0Z" fill="#7A442C" /><path d="M478.01475 552.760089a8.996095 7.996529 0 1 0 17.992191 0 8.996095 7.996529 0 1 0-17.992191 0Z" fill="#844A32" /><path d="M479.014317 545.763126a3.998265 3.998265 0 1 0 7.996529 0 3.998265 3.998265 0 1 0-7.996529 0Z" fill="#9E604A" /><path d="M471.017787 532.768766a15.993059 13.993926 0 1 0 31.986118 0 15.993059 13.993926 0 1 0-31.986118 0Z" fill="#7A442C" /><path d="M478.01475 532.768766a8.996095 7.996529 0 1 0 17.992191 0 8.996095 7.996529 0 1 0-17.992191 0Z" fill="#844A32" /><path d="M479.014317 525.771803a3.998265 3.998265 0 1 0 7.996529 0 3.998265 3.998265 0 1 0-7.996529 0Z" fill="#9E604A" /><path d="M444.029501 540.765295a15.993059 13.993926 0 1 0 31.986117 0 15.993059 13.993926 0 1 0-31.986117 0Z" fill="#7A442C" /><path d="M451.026464 540.765295a8.996095 7.996529 0 1 0 17.992191 0 8.996095 7.996529 0 1 0-17.992191 0Z" fill="#844A32" /><path d="M452.02603 533.768332a3.998265 3.998265 0 1 0 7.996529 0 3.998265 3.998265 0 1 0-7.996529 0Z" fill="#9E604A" /><path d="M503.003905 558.757486a15.993059 13.993926 0 1 0 31.986117 0 15.993059 13.993926 0 1 0-31.986117 0Z" fill="#7A442C" /><path d="M510.000868 558.757486a8.996095 7.996529 0 1 0 17.992191 0 8.996095 7.996529 0 1 0-17.992191 0Z" fill="#844A32" /><path d="M512 552.760089a3.998265 3.998265 0 1 0 7.996529 0 3.998265 3.998265 0 1 0-7.996529 0Z" fill="#9E604A" /><path d="M525.993926 551.760523a15.993059 13.993926 0 1 0 31.986118 0 15.993059 13.993926 0 1 0-31.986118 0Z" fill="#7A442C" /><path d="M532.990889 551.760523a8.996095 7.996529 0 1 0 17.992191 0 8.996095 7.996529 0 1 0-17.992191 0Z" fill="#844A32" /><path d="M534.990022 545.763126a3.998265 3.998265 0 1 0 7.996529 0 3.998265 3.998265 0 1 0-7.996529 0Z" fill="#9E604A" /><path d="M550.98308 529.770067a15.993059 13.993926 0 1 0 31.986118 0 15.993059 13.993926 0 1 0-31.986118 0Z" fill="#7A442C" /><path d="M557.980044 529.770067a8.996095 7.996529 0 1 0 17.992191 0 8.996095 7.996529 0 1 0-17.992191 0Z" fill="#844A32" /><path d="M559.979176 522.773104a3.998265 3.998265 0 1 0 7.996529 0 3.998265 3.998265 0 1 0-7.996529 0Z" fill="#9E604A" /><path d="M593.964426 552.760089a15.993059 13.993926 0 1 0 31.986117 0 15.993059 13.993926 0 1 0-31.986117 0Z" fill="#7A442C" /><path d="M600.961389 552.760089a8.996095 7.996529 0 1 0 17.992191 0 8.996095 7.996529 0 1 0-17.992191 0Z" fill="#844A32" /><path d="M601.960955 546.762692a3.998265 3.998265 0 1 0 7.996529 0 3.998265 3.998265 0 1 0-7.996529 0Z" fill="#9E604A" /><path d="M579.970499 529.770067a15.993059 13.993926 0 1 0 31.986117 0 15.993059 13.993926 0 1 0-31.986117 0Z" fill="#7A442C" /><path d="M586.967462 529.770067a8.996095 7.996529 0 1 0 17.992191 0 8.996095 7.996529 0 1 0-17.992191 0Z" fill="#844A32" /><path d="M587.967029 522.773104a3.998265 3.998265 0 1 0 7.996529 0 3.998265 3.998265 0 1 0-7.996529 0Z" fill="#9E604A" /><path d="M602.960521 520.773972a15.993059 13.993926 0 1 0 31.986117 0 15.993059 13.993926 0 1 0-31.986117 0Z" fill="#7A442C" /><path d="M609.957484 520.773972a8.996095 7.996529 0 1 0 17.992191 0 8.996095 7.996529 0 1 0-17.992191 0Z" fill="#844A32" /><path d="M611.956616 513.777009a3.998265 3.998265 0 1 0 7.99653 0 3.998265 3.998265 0 1 0-7.99653 0Z" fill="#9E604A" /><path d="M527.993059 529.770067a15.993059 13.993926 0 1 0 31.986117 0 15.993059 13.993926 0 1 0-31.986117 0Z" fill="#7A442C" /><path d="M534.990022 529.770067a8.996095 7.996529 0 1 0 17.992191 0 8.996095 7.996529 0 1 0-17.992191 0Z" fill="#844A32" /><path d="M536.989154 522.773104a3.998265 3.998265 0 1 0 7.996529 0 3.998265 3.998265 0 1 0-7.996529 0Z" fill="#9E604A" /><path d="M494.007809 567.753582a15.993059 13.993926 0 1 0 31.986117 0 15.993059 13.993926 0 1 0-31.986117 0Z" fill="#7A442C" /><path d="M501.004772 567.753582a8.996095 7.996529 0 1 0 17.992191 0 8.996095 7.996529 0 1 0-17.992191 0Z" fill="#844A32" /><path d="M502.004338 560.756618a3.998265 3.998265 0 1 0 7.99653 0 3.998265 3.998265 0 1 0-7.99653 0Z" fill="#9E604A" /><path d="M471.017787 583.74664a15.993059 13.993926 0 1 0 31.986118 0 15.993059 13.993926 0 1 0-31.986118 0Z" fill="#7A442C" /><path d="M478.01475 583.74664a8.996095 7.996529 0 1 0 17.992191 0 8.996095 7.996529 0 1 0-17.992191 0Z" fill="#844A32" /><path d="M479.014317 576.749677a3.998265 3.998265 0 1 0 7.996529 0 3.998265 3.998265 0 1 0-7.996529 0Z" fill="#9E604A" /><path d="M503.003905 593.742302a15.993059 13.993926 0 1 0 31.986117 0 15.993059 13.993926 0 1 0-31.986117 0Z" fill="#7A442C" /><path d="M510.000868 593.742302a8.996095 7.996529 0 1 0 17.992191 0 8.996095 7.996529 0 1 0-17.992191 0Z" fill="#844A32" /><path d="M512 586.745339a3.998265 3.998265 0 1 0 7.996529 0 3.998265 3.998265 0 1 0-7.996529 0Z" fill="#9E604A" /><path d="M525.993926 586.745339a15.993059 13.993926 0 1 0 31.986118 0 15.993059 13.993926 0 1 0-31.986118 0Z" fill="#7A442C" /><path d="M532.990889 586.745339a8.996095 7.996529 0 1 0 17.992191 0 8.996095 7.996529 0 1 0-17.992191 0Z" fill="#844A32" /><path d="M534.990022 579.748376a3.998265 3.998265 0 1 0 7.996529 0 3.998265 3.998265 0 1 0-7.996529 0Z" fill="#9E604A" /><path d="M525.993926 573.750979a15.993059 13.993926 0 1 0 31.986118 0 15.993059 13.993926 0 1 0-31.986118 0Z" fill="#7A442C" /><path d="M532.990889 573.750979a8.996095 7.996529 0 1 0 17.992191 0 8.996095 7.996529 0 1 0-17.992191 0Z" fill="#844A32" /><path d="M534.990022 566.754015a3.998265 3.998265 0 1 0 7.996529 0 3.998265 3.998265 0 1 0-7.996529 0Z" fill="#9E604A" /><path d="M551.982647 580.747942a15.993059 13.993926 0 1 0 31.986117 0 15.993059 13.993926 0 1 0-31.986117 0Z" fill="#7A442C" /><path d="M558.97961 580.747942a8.996095 7.996529 0 1 0 17.992191 0 8.996095 7.996529 0 1 0-17.992191 0Z" fill="#844A32" /><path d="M560.978742 573.750979a3.998265 3.998265 0 1 0 7.996529 0 3.998265 3.998265 0 1 0-7.996529 0Z" fill="#9E604A" /><path d="M555.980911 556.758354a15.993059 13.993926 0 1 0 31.986118 0 15.993059 13.993926 0 1 0-31.986118 0Z" fill="#7A442C" /><path d="M562.977874 556.758354a8.996095 7.996529 0 1 0 17.992191 0 8.996095 7.996529 0 1 0-17.992191 0Z" fill="#844A32" /><path d="M563.977441 549.761391a3.998265 3.998265 0 1 0 7.996529 0 3.998265 3.998265 0 1 0-7.996529 0Z" fill="#9E604A" /><path d="M576.971801 570.75228a15.993059 13.993926 0 1 0 31.986117 0 15.993059 13.993926 0 1 0-31.986117 0Z" fill="#7A442C" /><path d="M583.968764 570.75228a8.996095 7.996529 0 1 0 17.992191 0 8.996095 7.996529 0 1 0-17.992191 0Z" fill="#844A32" /><path d="M585.967896 563.755317a3.998265 3.998265 0 1 0 7.99653 0 3.998265 3.998265 0 1 0-7.99653 0Z" fill="#9E604A" /><path d="M498.006074 614.733191a15.993059 13.993926 0 1 0 31.986117 0 15.993059 13.993926 0 1 0-31.986117 0Z" fill="#7A442C" /><path d="M505.003037 614.733191a8.996095 7.996529 0 1 0 17.992191 0 8.996095 7.996529 0 1 0-17.992191 0Z" fill="#844A32" /><path d="M507.002169 608.735794a3.998265 3.998265 0 1 0 7.996529 0 3.998265 3.998265 0 1 0-7.996529 0Z" fill="#9E604A" /><path d="M471.017787 627.727552a15.993059 13.993926 0 1 0 31.986118 0 15.993059 13.993926 0 1 0-31.986118 0Z" fill="#7A442C" /><path d="M478.01475 627.727552a8.996095 7.996529 0 1 0 17.992191 0 8.996095 7.996529 0 1 0-17.992191 0Z" fill="#844A32" /><path d="M479.014317 620.730588a3.998265 3.998265 0 1 0 7.996529 0 3.998265 3.998265 0 1 0-7.996529 0Z" fill="#9E604A" /><path d="M450.026898 645.719742a15.993059 13.993926 0 1 0 31.986117 0 15.993059 13.993926 0 1 0-31.986117 0Z" fill="#7A442C" /><path d="M457.023861 645.719742a8.996095 7.996529 0 1 0 17.992191 0 8.996095 7.996529 0 1 0-17.992191 0Z" fill="#844A32" /><path d="M459.022993 638.722779a3.998265 3.998265 0 1 0 7.99653 0 3.998265 3.998265 0 1 0-7.99653 0Z" fill="#9E604A" /><path d="M424.038177 633.724949a15.993059 13.993926 0 1 0 31.986118 0 15.993059 13.993926 0 1 0-31.986118 0Z" fill="#7A442C" /><path d="M431.035141 633.724949a8.996095 7.996529 0 1 0 17.992191 0 8.996095 7.996529 0 1 0-17.992191 0Z" fill="#844A32" /><path d="M433.034273 626.727985a3.998265 3.998265 0 1 0 7.996529 0 3.998265 3.998265 0 1 0-7.996529 0Z" fill="#9E604A" /><path d="M437.032538 669.70933a15.993059 13.993926 0 1 0 31.986117 0 15.993059 13.993926 0 1 0-31.986117 0Z" fill="#7A442C" /><path d="M444.029501 669.70933a8.996095 7.996529 0 1 0 17.992191 0 8.996095 7.996529 0 1 0-17.992191 0Z" fill="#844A32" /><path d="M445.029067 662.712367a3.998265 3.998265 0 1 0 7.996529 0 3.998265 3.998265 0 1 0-7.996529 0Z" fill="#9E604A" /><path d="M411.043817 657.714536a15.993059 13.993926 0 1 0 31.986118 0 15.993059 13.993926 0 1 0-31.986118 0Z" fill="#7A442C" /><path d="M418.040781 657.714536a8.996095 7.996529 0 1 0 17.99219 0 8.996095 7.996529 0 1 0-17.99219 0Z" fill="#844A32" /><path d="M419.040347 651.717139a3.998265 3.998265 0 1 0 7.996529 0 3.998265 3.998265 0 1 0-7.996529 0Z" fill="#9E604A" /><path d="M400.04859 636.723647a15.993059 13.993926 0 1 0 31.986117 0 15.993059 13.993926 0 1 0-31.986117 0Z" fill="#7A442C" /><path d="M407.045553 636.723647a8.996095 7.996529 0 1 0 17.992191 0 8.996095 7.996529 0 1 0-17.992191 0Z" fill="#844A32" /><path d="M409.044685 629.726684a3.998265 3.998265 0 1 0 7.996529 0 3.998265 3.998265 0 1 0-7.996529 0Z" fill="#9E604A" /><path d="M378.058134 645.719742a15.993059 13.993926 0 1 0 31.986117 0 15.993059 13.993926 0 1 0-31.986117 0Z" fill="#7A442C" /><path d="M385.055097 645.719742a8.996095 7.996529 0 1 0 17.992191 0 8.996095 7.996529 0 1 0-17.992191 0Z" fill="#844A32" /><path d="M387.054229 638.722779a3.998265 3.998265 0 1 0 7.99653 0 3.998265 3.998265 0 1 0-7.99653 0Z" fill="#9E604A" /><path d="M372.060737 597.740567a15.993059 13.993926 0 1 0 31.986117 0 15.993059 13.993926 0 1 0-31.986117 0Z" fill="#7A442C" /><path d="M379.0577 597.740567a8.996095 7.996529 0 1 0 17.992191 0 8.996095 7.996529 0 1 0-17.992191 0Z" fill="#844A32" /><path d="M380.057266 590.743603a3.998265 3.998265 0 1 0 7.99653 0 3.998265 3.998265 0 1 0-7.99653 0Z" fill="#9E604A" /><path d="M374.059869 563.755317a15.993059 13.993926 0 1 0 31.986118 0 15.993059 13.993926 0 1 0-31.986118 0Z" fill="#7A442C" /><path d="M381.056832 563.755317a8.996095 7.996529 0 1 0 17.992191 0 8.996095 7.996529 0 1 0-17.992191 0Z" fill="#844A32" /><path d="M383.055965 556.758354a3.998265 3.998265 0 1 0 7.996529 0 3.998265 3.998265 0 1 0-7.996529 0Z" fill="#9E604A" /><path d="M368.062472 530.769634a15.993059 13.993926 0 1 0 31.986118 0 15.993059 13.993926 0 1 0-31.986118 0Z" fill="#7A442C" /><path d="M375.059435 530.769634a8.996095 7.996529 0 1 0 17.992191 0 8.996095 7.996529 0 1 0-17.992191 0Z" fill="#844A32" /><path d="M377.058568 523.77267a3.998265 3.998265 0 1 0 7.996529 0 3.998265 3.998265 0 1 0-7.996529 0Z" fill="#9E604A" /><path d="M371.061171 500.782649a15.993059 13.993926 0 1 0 31.986117 0 15.993059 13.993926 0 1 0-31.986117 0Z" fill="#7A442C" /><path d="M378.058134 500.782649a8.996095 7.996529 0 1 0 17.992191 0 8.996095 7.996529 0 1 0-17.992191 0Z" fill="#844A32" /><path d="M379.0577 494.785252a3.998265 3.998265 0 1 0 7.996529 0 3.998265 3.998265 0 1 0-7.996529 0Z" fill="#9E604A" /><path d="M411.043817 684.702823a15.993059 13.993926 0 1 0 31.986118 0 15.993059 13.993926 0 1 0-31.986118 0Z" fill="#7A442C" /><path d="M418.040781 684.702823a8.996095 7.996529 0 1 0 17.99219 0 8.996095 7.996529 0 1 0-17.99219 0Z" fill="#844A32" /><path d="M420.039913 677.70586a3.998265 3.998265 0 1 0 7.996529 0 3.998265 3.998265 0 1 0-7.996529 0Z" fill="#9E604A" /><path d="M416.041648 707.692845a15.993059 13.993926 0 1 0 31.986117 0 15.993059 13.993926 0 1 0-31.986117 0Z" fill="#7A442C" /><path d="M423.038611 707.692845a8.996095 7.996529 0 1 0 17.992191 0 8.996095 7.996529 0 1 0-17.992191 0Z" fill="#844A32" /><path d="M425.037744 700.695882a3.998265 3.998265 0 1 0 7.996529 0 3.998265 3.998265 0 1 0-7.996529 0Z" fill="#9E604A" /><path d="M401.048156 716.68894a15.993059 13.993926 0 1 0 31.986117 0 15.993059 13.993926 0 1 0-31.986117 0Z" fill="#7A442C" /><path d="M408.045119 716.68894a8.996095 7.996529 0 1 0 17.992191 0 8.996095 7.996529 0 1 0-17.992191 0Z" fill="#844A32" /><path d="M409.044685 709.691977a3.998265 3.998265 0 1 0 7.996529 0 3.998265 3.998265 0 1 0-7.996529 0Z" fill="#9E604A" /><path d="M392.05206 675.706727a15.993059 13.993926 0 1 0 31.986117 0 15.993059 13.993926 0 1 0-31.986117 0Z" fill="#7A442C" /><path d="M399.049023 675.706727a8.996095 7.996529 0 1 0 17.992191 0 8.996095 7.996529 0 1 0-17.992191 0Z" fill="#844A32" /><path d="M401.048156 668.709764a3.998265 3.998265 0 1 0 7.996529 0 3.998265 3.998265 0 1 0-7.996529 0Z" fill="#9E604A" /><path d="M471.017787 608.735794a15.993059 13.993926 0 1 0 31.986118 0 15.993059 13.993926 0 1 0-31.986118 0Z" fill="#7A442C" /><path d="M478.01475 608.735794a8.996095 7.996529 0 1 0 17.992191 0 8.996095 7.996529 0 1 0-17.992191 0Z" fill="#844A32" /><path d="M479.014317 601.738831a3.998265 3.998265 0 1 0 7.996529 0 3.998265 3.998265 0 1 0-7.996529 0Z" fill="#9E604A" /><path d="M444.029501 615.732758a15.993059 13.993926 0 1 0 31.986117 0 15.993059 13.993926 0 1 0-31.986117 0Z" fill="#7A442C" /><path d="M451.026464 615.732758a8.996095 7.996529 0 1 0 17.992191 0 8.996095 7.996529 0 1 0-17.992191 0Z" fill="#844A32" /><path d="M452.02603 608.735794a3.998265 3.998265 0 1 0 7.996529 0 3.998265 3.998265 0 1 0-7.996529 0Z" fill="#9E604A" /><path d="M444.029501 567.753582a15.993059 13.993926 0 1 0 31.986117 0 15.993059 13.993926 0 1 0-31.986117 0Z" fill="#7A442C" /><path d="M451.026464 567.753582a8.996095 7.996529 0 1 0 17.992191 0 8.996095 7.996529 0 1 0-17.992191 0Z" fill="#844A32" /><path d="M452.02603 560.756618a3.998265 3.998265 0 1 0 7.996529 0 3.998265 3.998265 0 1 0-7.996529 0Z" fill="#9E604A" /><path d="M418.040781 586.745339a15.993059 13.993926 0 1 0 31.986117 0 15.993059 13.993926 0 1 0-31.986117 0Z" fill="#7A442C" /><path d="M425.037744 586.745339a8.996095 7.996529 0 1 0 17.992191 0 8.996095 7.996529 0 1 0-17.992191 0Z" fill="#844A32" /><path d="M427.036876 579.748376a3.998265 3.998265 0 1 0 7.996529 0 3.998265 3.998265 0 1 0-7.996529 0Z" fill="#9E604A" /><path d="M444.029501 592.742736a15.993059 13.993926 0 1 0 31.986117 0 15.993059 13.993926 0 1 0-31.986117 0Z" fill="#7A442C" /><path d="M451.026464 592.742736a8.996095 7.996529 0 1 0 17.992191 0 8.996095 7.996529 0 1 0-17.992191 0Z" fill="#844A32" /><path d="M453.025596 585.745773a3.998265 3.998265 0 1 0 7.99653 0 3.998265 3.998265 0 1 0-7.99653 0Z" fill="#9E604A" /><path d="M409.044685 611.734493a15.993059 13.993926 0 1 0 31.986117 0 15.993059 13.993926 0 1 0-31.986117 0Z" fill="#7A442C" /><path d="M416.041648 611.734493a8.996095 7.996529 0 1 0 17.992191 0 8.996095 7.996529 0 1 0-17.992191 0Z" fill="#844A32" /><path d="M417.041214 604.73753a3.998265 3.998265 0 1 0 7.99653 0 3.998265 3.998265 0 1 0-7.99653 0Z" fill="#9E604A" /><path d="M503.003905 634.724515a15.993059 13.993926 0 1 0 31.986117 0 15.993059 13.993926 0 1 0-31.986117 0Z" fill="#7A442C" /><path d="M510.000868 634.724515a8.996095 7.996529 0 1 0 17.992191 0 8.996095 7.996529 0 1 0-17.992191 0Z" fill="#844A32" /><path d="M512 627.727552a3.998265 3.998265 0 1 0 7.996529 0 3.998265 3.998265 0 1 0-7.996529 0Z" fill="#9E604A" /><path d="M525.993926 627.727552a15.993059 13.993926 0 1 0 31.986118 0 15.993059 13.993926 0 1 0-31.986118 0Z" fill="#7A442C" /><path d="M532.990889 627.727552a8.996095 7.996529 0 1 0 17.992191 0 8.996095 7.996529 0 1 0-17.992191 0Z" fill="#844A32" /><path d="M534.990022 620.730588a3.998265 3.998265 0 1 0 7.996529 0 3.998265 3.998265 0 1 0-7.996529 0Z" fill="#9E604A" /><path d="M550.98308 609.735361a15.993059 13.993926 0 1 0 31.986118 0 15.993059 13.993926 0 1 0-31.986118 0Z" fill="#7A442C" /><path d="M557.980044 609.735361a8.996095 7.996529 0 1 0 17.992191 0 8.996095 7.996529 0 1 0-17.992191 0Z" fill="#844A32" /><path d="M559.979176 602.738397a3.998265 3.998265 0 1 0 7.996529 0 3.998265 3.998265 0 1 0-7.996529 0Z" fill="#9E604A" /><path d="M573.973102 617.73189a15.993059 13.993926 0 1 0 31.986117 0 15.993059 13.993926 0 1 0-31.986117 0Z" fill="#7A442C" /><path d="M580.970065 617.73189a8.996095 7.996529 0 1 0 17.992191 0 8.996095 7.996529 0 1 0-17.992191 0Z" fill="#844A32" /><path d="M581.969632 610.734927a3.998265 3.998265 0 1 0 7.996529 0 3.998265 3.998265 0 1 0-7.996529 0Z" fill="#9E604A" /><path d="M589.966161 602.738397a15.993059 13.993926 0 1 0 31.986117 0 15.993059 13.993926 0 1 0-31.986117 0Z" fill="#7A442C" /><path d="M596.963124 602.738397a8.996095 7.996529 0 1 0 17.992191 0 8.996095 7.996529 0 1 0-17.992191 0Z" fill="#844A32" /><path d="M598.962256 595.741434a3.998265 3.998265 0 1 0 7.99653 0 3.998265 3.998265 0 1 0-7.99653 0Z" fill="#9E604A" /><path d="M567.975705 593.742302a15.993059 13.993926 0 1 0 31.986118 0 15.993059 13.993926 0 1 0-31.986118 0Z" fill="#7A442C" /><path d="M574.972668 593.742302a8.996095 7.996529 0 1 0 17.992191 0 8.996095 7.996529 0 1 0-17.992191 0Z" fill="#844A32" /><path d="M576.971801 586.745339a3.998265 3.998265 0 1 0 7.996529 0 3.998265 3.998265 0 1 0-7.996529 0Z" fill="#9E604A" /><path d="M529.992191 607.736228a15.993059 13.993926 0 1 0 31.986117 0 15.993059 13.993926 0 1 0-31.986117 0Z" fill="#7A442C" /><path d="M536.989154 607.736228a8.996095 7.996529 0 1 0 17.992191 0 8.996095 7.996529 0 1 0-17.992191 0Z" fill="#844A32" /><path d="M537.98872 600.739265a3.998265 3.998265 0 1 0 7.99653 0 3.998265 3.998265 0 1 0-7.99653 0Z" fill="#9E604A" /><path d="M498.006074 646.719309a15.993059 13.993926 0 1 0 31.986117 0 15.993059 13.993926 0 1 0-31.986117 0Z" fill="#7A442C" /><path d="M505.003037 646.719309a8.996095 7.996529 0 1 0 17.992191 0 8.996095 7.996529 0 1 0-17.992191 0Z" fill="#844A32" /><path d="M507.002169 639.722346a3.998265 3.998265 0 1 0 7.996529 0 3.998265 3.998265 0 1 0-7.996529 0Z" fill="#9E604A" /><path d="M471.017787 659.713669a15.993059 13.993926 0 1 0 31.986118 0 15.993059 13.993926 0 1 0-31.986118 0Z" fill="#7A442C" /><path d="M478.01475 659.713669a8.996095 7.996529 0 1 0 17.992191 0 8.996095 7.996529 0 1 0-17.992191 0Z" fill="#844A32" /><path d="M479.014317 652.716706a3.998265 3.998265 0 1 0 7.996529 0 3.998265 3.998265 0 1 0-7.996529 0Z" fill="#9E604A" /><path d="M503.003905 666.710632a15.993059 13.993926 0 1 0 31.986117 0 15.993059 13.993926 0 1 0-31.986117 0Z" fill="#7A442C" /><path d="M510.000868 666.710632a8.996095 7.996529 0 1 0 17.992191 0 8.996095 7.996529 0 1 0-17.992191 0Z" fill="#844A32" /><path d="M512 659.713669a3.998265 3.998265 0 1 0 7.996529 0 3.998265 3.998265 0 1 0-7.996529 0Z" fill="#9E604A" /><path d="M525.993926 659.713669a15.993059 13.993926 0 1 0 31.986118 0 15.993059 13.993926 0 1 0-31.986118 0Z" fill="#7A442C" /><path d="M532.990889 659.713669a8.996095 7.996529 0 1 0 17.992191 0 8.996095 7.996529 0 1 0-17.992191 0Z" fill="#844A32" /><path d="M534.990022 652.716706a3.998265 3.998265 0 1 0 7.996529 0 3.998265 3.998265 0 1 0-7.996529 0Z" fill="#9E604A" /><path d="M498.006074 687.701521a15.993059 13.993926 0 1 0 31.986117 0 15.993059 13.993926 0 1 0-31.986117 0Z" fill="#7A442C" /><path d="M505.003037 687.701521a8.996095 7.996529 0 1 0 17.992191 0 8.996095 7.996529 0 1 0-17.992191 0Z" fill="#844A32" /><path d="M507.002169 680.704558a3.998265 3.998265 0 1 0 7.996529 0 3.998265 3.998265 0 1 0-7.996529 0Z" fill="#9E604A" /><path d="M471.017787 700.695882a15.993059 13.993926 0 1 0 31.986118 0 15.993059 13.993926 0 1 0-31.986118 0Z" fill="#7A442C" /><path d="M478.01475 700.695882a8.996095 7.996529 0 1 0 17.992191 0 8.996095 7.996529 0 1 0-17.992191 0Z" fill="#844A32" /><path d="M479.014317 693.698918a3.998265 3.998265 0 1 0 7.996529 0 3.998265 3.998265 0 1 0-7.996529 0Z" fill="#9E604A" /><path d="M471.017787 680.704558a15.993059 13.993926 0 1 0 31.986118 0 15.993059 13.993926 0 1 0-31.986118 0Z" fill="#7A442C" /><path d="M478.01475 680.704558a8.996095 7.996529 0 1 0 17.992191 0 8.996095 7.996529 0 1 0-17.992191 0Z" fill="#844A32" /><path d="M479.014317 673.707595a3.998265 3.998265 0 1 0 7.996529 0 3.998265 3.998265 0 1 0-7.996529 0Z" fill="#9E604A" /><path d="M444.029501 688.701088a15.993059 13.993926 0 1 0 31.986117 0 15.993059 13.993926 0 1 0-31.986117 0Z" fill="#7A442C" /><path d="M451.026464 688.701088a8.996095 7.996529 0 1 0 17.992191 0 8.996095 7.996529 0 1 0-17.992191 0Z" fill="#844A32" /><path d="M452.02603 681.704124a3.998265 3.998265 0 1 0 7.996529 0 3.998265 3.998265 0 1 0-7.996529 0Z" fill="#9E604A" /><path d="M503.003905 707.692845a15.993059 13.993926 0 1 0 31.986117 0 15.993059 13.993926 0 1 0-31.986117 0Z" fill="#7A442C" /><path d="M510.000868 707.692845a8.996095 7.996529 0 1 0 17.992191 0 8.996095 7.996529 0 1 0-17.992191 0Z" fill="#844A32" /><path d="M512 700.695882a3.998265 3.998265 0 1 0 7.996529 0 3.998265 3.998265 0 1 0-7.996529 0Z" fill="#9E604A" /><path d="M525.993926 700.695882a15.993059 13.993926 0 1 0 31.986118 0 15.993059 13.993926 0 1 0-31.986118 0Z" fill="#7A442C" /><path d="M532.990889 700.695882a8.996095 7.996529 0 1 0 17.992191 0 8.996095 7.996529 0 1 0-17.992191 0Z" fill="#844A32" /><path d="M534.990022 693.698918a3.998265 3.998265 0 1 0 7.996529 0 3.998265 3.998265 0 1 0-7.996529 0Z" fill="#9E604A" /><path d="M550.98308 677.70586a15.993059 13.993926 0 1 0 31.986118 0 15.993059 13.993926 0 1 0-31.986118 0Z" fill="#7A442C" /><path d="M557.980044 677.70586a8.996095 7.996529 0 1 0 17.992191 0 8.996095 7.996529 0 1 0-17.992191 0Z" fill="#844A32" /><path d="M559.979176 670.708897a3.998265 3.998265 0 1 0 7.996529 0 3.998265 3.998265 0 1 0-7.996529 0Z" fill="#9E604A" /><path d="M529.992191 680.704558a15.993059 13.993926 0 1 0 31.986117 0 15.993059 13.993926 0 1 0-31.986117 0Z" fill="#7A442C" /><path d="M536.989154 680.704558a8.996095 7.996529 0 1 0 17.992191 0 8.996095 7.996529 0 1 0-17.992191 0Z" fill="#844A32" /><path d="M537.98872 673.707595a3.998265 3.998265 0 1 0 7.99653 0 3.998265 3.998265 0 1 0-7.99653 0Z" fill="#9E604A" /><path d="M494.007809 715.689374a15.993059 13.993926 0 1 0 31.986117 0 15.993059 13.993926 0 1 0-31.986117 0Z" fill="#7A442C" /><path d="M501.004772 715.689374a8.996095 7.996529 0 1 0 17.992191 0 8.996095 7.996529 0 1 0-17.992191 0Z" fill="#844A32" /><path d="M502.004338 708.692411a3.998265 3.998265 0 1 0 7.99653 0 3.998265 3.998265 0 1 0-7.99653 0Z" fill="#9E604A" /><path d="M471.017787 731.682433a15.993059 13.993926 0 1 0 31.986118 0 15.993059 13.993926 0 1 0-31.986118 0Z" fill="#7A442C" /><path d="M478.01475 731.682433a8.996095 7.996529 0 1 0 17.992191 0 8.996095 7.996529 0 1 0-17.992191 0Z" fill="#844A32" /><path d="M479.014317 724.68547a3.998265 3.998265 0 1 0 7.996529 0 3.998265 3.998265 0 1 0-7.996529 0Z" fill="#9E604A" /><path d="M503.003905 741.678094a15.993059 13.993926 0 1 0 31.986117 0 15.993059 13.993926 0 1 0-31.986117 0Z" fill="#7A442C" /><path d="M510.000868 741.678094a8.996095 7.996529 0 1 0 17.992191 0 8.996095 7.996529 0 1 0-17.992191 0Z" fill="#844A32" /><path d="M512 734.681131a3.998265 3.998265 0 1 0 7.996529 0 3.998265 3.998265 0 1 0-7.996529 0Z" fill="#9E604A" /><path d="M525.993926 721.686771a15.993059 13.993926 0 1 0 31.986118 0 15.993059 13.993926 0 1 0-31.986118 0Z" fill="#7A442C" /><path d="M532.990889 721.686771a8.996095 7.996529 0 1 0 17.992191 0 8.996095 7.996529 0 1 0-17.992191 0Z" fill="#844A32" /><path d="M534.990022 714.689808a3.998265 3.998265 0 1 0 7.996529 0 3.998265 3.998265 0 1 0-7.996529 0Z" fill="#9E604A" /><path d="M554.981345 721.686771a15.993059 13.993926 0 1 0 31.986117 0 15.993059 13.993926 0 1 0-31.986117 0Z" fill="#7A442C" /><path d="M561.978308 721.686771a8.996095 7.996529 0 1 0 17.992191 0 8.996095 7.996529 0 1 0-17.992191 0Z" fill="#844A32" /><path d="M562.977874 714.689808a3.998265 3.998265 0 1 0 7.99653 0 3.998265 3.998265 0 1 0-7.99653 0Z" fill="#9E604A" /><path d="M554.981345 700.695882a15.993059 13.993926 0 1 0 31.986117 0 15.993059 13.993926 0 1 0-31.986117 0Z" fill="#7A442C" /><path d="M561.978308 700.695882a8.996095 7.996529 0 1 0 17.992191 0 8.996095 7.996529 0 1 0-17.992191 0Z" fill="#844A32" /><path d="M562.977874 693.698918a3.998265 3.998265 0 1 0 7.99653 0 3.998265 3.998265 0 1 0-7.99653 0Z" fill="#9E604A" /><path d="M580.970065 689.700654a15.993059 13.993926 0 1 0 31.986118 0 15.993059 13.993926 0 1 0-31.986118 0Z" fill="#7A442C" /><path d="M587.967029 689.700654a8.996095 7.996529 0 1 0 17.99219 0 8.996095 7.996529 0 1 0-17.99219 0Z" fill="#844A32" /><path d="M588.966595 682.703691a3.998265 3.998265 0 1 0 7.996529 0 3.998265 3.998265 0 1 0-7.996529 0Z" fill="#9E604A" /><path d="M601.960955 682.703691a15.993059 13.993926 0 1 0 31.986117 0 15.993059 13.993926 0 1 0-31.986117 0Z" fill="#7A442C" /><path d="M608.957918 682.703691a8.996095 7.996529 0 1 0 17.992191 0 8.996095 7.996529 0 1 0-17.992191 0Z" fill="#844A32" /><path d="M610.95705 675.706727a3.998265 3.998265 0 1 0 7.99653 0 3.998265 3.998265 0 1 0-7.99653 0Z" fill="#9E604A" /><path d="M576.971801 718.688073a15.993059 13.993926 0 1 0 31.986117 0 15.993059 13.993926 0 1 0-31.986117 0Z" fill="#7A442C" /><path d="M583.968764 718.688073a8.996095 7.996529 0 1 0 17.992191 0 8.996095 7.996529 0 1 0-17.992191 0Z" fill="#844A32" /><path d="M585.967896 711.691109a3.998265 3.998265 0 1 0 7.99653 0 3.998265 3.998265 0 1 0-7.99653 0Z" fill="#9E604A" /><path d="M594.963992 708.692411a15.993059 13.993926 0 1 0 31.986117 0 15.993059 13.993926 0 1 0-31.986117 0Z" fill="#7A442C" /><path d="M601.960955 708.692411a8.996095 7.996529 0 1 0 17.992191 0 8.996095 7.996529 0 1 0-17.992191 0Z" fill="#844A32" /><path d="M602.960521 701.695448a3.998265 3.998265 0 1 0 7.996529 0 3.998265 3.998265 0 1 0-7.996529 0Z" fill="#9E604A" /><path d="M616.954447 557.75792a15.993059 13.993926 0 1 0 31.986118 0 15.993059 13.993926 0 1 0-31.986118 0Z" fill="#7A442C" /><path d="M623.95141 557.75792a8.996095 7.996529 0 1 0 17.992191 0 8.996095 7.996529 0 1 0-17.992191 0Z" fill="#844A32" /><path d="M625.950543 550.760957a3.998265 3.998265 0 1 0 7.996529 0 3.998265 3.998265 0 1 0-7.996529 0Z" fill="#9E604A" /><path d="M623.95141 531.7692a15.993059 13.993926 0 1 0 31.986118 0 15.993059 13.993926 0 1 0-31.986118 0Z" fill="#7A442C" /><path d="M630.948374 531.7692a8.996095 7.996529 0 1 0 17.992191 0 8.996095 7.996529 0 1 0-17.992191 0Z" fill="#844A32" /><path d="M631.94794 524.772237a3.998265 3.998265 0 1 0 7.996529 0 3.998265 3.998265 0 1 0-7.996529 0Z" fill="#9E604A" /><path d="M438.032104 475.793494a15.993059 13.993926 0 1 0 31.986117 0 15.993059 13.993926 0 1 0-31.986117 0Z" fill="#7A442C" /><path d="M445.029067 475.793494a8.996095 7.996529 0 1 0 17.992191 0 8.996095 7.996529 0 1 0-17.992191 0Z" fill="#844A32" /><path d="M446.028633 468.796531a3.998265 3.998265 0 1 0 7.996529 0 3.998265 3.998265 0 1 0-7.996529 0Z" fill="#9E604A" /><path d="M445.029067 498.783516a15.993059 13.993926 0 1 0 31.986117 0 15.993059 13.993926 0 1 0-31.986117 0Z" fill="#7A442C" /><path d="M452.02603 498.783516a8.996095 7.996529 0 1 0 17.992191 0 8.996095 7.996529 0 1 0-17.992191 0Z" fill="#844A32" /><path d="M454.025162 491.786553a3.998265 3.998265 0 1 0 7.99653 0 3.998265 3.998265 0 1 0-7.99653 0Z" fill="#9E604A" /><path d="M445.029067 522.773104a15.993059 13.993926 0 1 0 31.986117 0 15.993059 13.993926 0 1 0-31.986117 0Z" fill="#7A442C" /><path d="M452.02603 522.773104a8.996095 7.996529 0 1 0 17.992191 0 8.996095 7.996529 0 1 0-17.992191 0Z" fill="#844A32" /><path d="M454.025162 515.776141a3.998265 3.998265 0 1 0 7.99653 0 3.998265 3.998265 0 1 0-7.99653 0Z" fill="#9E604A" /><path d="M415.042082 472.794796a15.993059 13.993926 0 1 0 31.986117 0 15.993059 13.993926 0 1 0-31.986117 0Z" fill="#7A442C" /><path d="M422.039045 472.794796a8.996095 7.996529 0 1 0 17.992191 0 8.996095 7.996529 0 1 0-17.992191 0Z" fill="#844A32" /><path d="M423.038611 466.797399a3.998265 3.998265 0 1 0 7.99653 0 3.998265 3.998265 0 1 0-7.99653 0Z" fill="#9E604A" /><path d="M415.042082 499.783082a15.993059 13.993926 0 1 0 31.986117 0 15.993059 13.993926 0 1 0-31.986117 0Z" fill="#7A442C" /><path d="M422.039045 499.783082a8.996095 7.996529 0 1 0 17.992191 0 8.996095 7.996529 0 1 0-17.992191 0Z" fill="#844A32" /><path d="M423.038611 492.786119a3.998265 3.998265 0 1 0 7.99653 0 3.998265 3.998265 0 1 0-7.99653 0Z" fill="#9E604A" /><path d="M415.042082 529.770067a15.993059 13.993926 0 1 0 31.986117 0 15.993059 13.993926 0 1 0-31.986117 0Z" fill="#7A442C" /><path d="M422.039045 529.770067a8.996095 7.996529 0 1 0 17.992191 0 8.996095 7.996529 0 1 0-17.992191 0Z" fill="#844A32" /><path d="M423.038611 522.773104a3.998265 3.998265 0 1 0 7.99653 0 3.998265 3.998265 0 1 0-7.99653 0Z" fill="#9E604A" /><path d="M415.042082 557.75792a15.993059 13.993926 0 1 0 31.986117 0 15.993059 13.993926 0 1 0-31.986117 0Z" fill="#7A442C" /><path d="M422.039045 557.75792a8.996095 7.996529 0 1 0 17.992191 0 8.996095 7.996529 0 1 0-17.992191 0Z" fill="#844A32" /><path d="M423.038611 550.760957a3.998265 3.998265 0 1 0 7.99653 0 3.998265 3.998265 0 1 0-7.99653 0Z" fill="#9E604A" /><path d="M589.966161 503.781347a15.993059 13.993926 0 1 0 31.986117 0 15.993059 13.993926 0 1 0-31.986117 0Z" fill="#7A442C" /><path d="M596.963124 503.781347a8.996095 7.996529 0 1 0 17.992191 0 8.996095 7.996529 0 1 0-17.992191 0Z" fill="#844A32" /><path d="M598.962256 496.784384a3.998265 3.998265 0 1 0 7.99653 0 3.998265 3.998265 0 1 0-7.99653 0Z" fill="#9E604A" /><path d="M579.970499 481.790891a15.993059 13.993926 0 1 0 31.986117 0 15.993059 13.993926 0 1 0-31.986117 0Z" fill="#7A442C" /><path d="M586.967462 481.790891a8.996095 7.996529 0 1 0 17.992191 0 8.996095 7.996529 0 1 0-17.992191 0Z" fill="#844A32" /><path d="M587.967029 474.793928a3.998265 3.998265 0 1 0 7.996529 0 3.998265 3.998265 0 1 0-7.996529 0Z" fill="#9E604A" /><path d="M602.960521 471.79523a15.993059 13.993926 0 1 0 31.986117 0 15.993059 13.993926 0 1 0-31.986117 0Z" fill="#7A442C" /><path d="M609.957484 471.79523a8.996095 7.996529 0 1 0 17.992191 0 8.996095 7.996529 0 1 0-17.992191 0Z" fill="#844A32" /><path d="M611.956616 465.797833a3.998265 3.998265 0 1 0 7.99653 0 3.998265 3.998265 0 1 0-7.99653 0Z" fill="#9E604A" /><path d="M562.977874 504.780913a15.993059 13.993926 0 1 0 31.986118 0 15.993059 13.993926 0 1 0-31.986118 0Z" fill="#7A442C" /><path d="M569.974838 504.780913a8.996095 7.996529 0 1 0 17.992191 0 8.996095 7.996529 0 1 0-17.992191 0Z" fill="#844A32" /><path d="M570.974404 498.783516a3.998265 3.998265 0 1 0 7.996529 0 3.998265 3.998265 0 1 0-7.996529 0Z" fill="#9E604A" /><path d="M620.952712 509.778744a15.993059 13.993926 0 1 0 31.986117 0 15.993059 13.993926 0 1 0-31.986117 0Z" fill="#7A442C" /><path d="M627.949675 509.778744a8.996095 7.996529 0 1 0 17.992191 0 8.996095 7.996529 0 1 0-17.992191 0Z" fill="#844A32" /><path d="M629.948807 502.781781a3.998265 3.998265 0 1 0 7.99653 0 3.998265 3.998265 0 1 0-7.99653 0Z" fill="#9E604A" /><path d="M623.95141 483.790024a15.993059 13.993926 0 1 0 31.986118 0 15.993059 13.993926 0 1 0-31.986118 0Z" fill="#7A442C" /><path d="M630.948374 483.790024a8.996095 7.996529 0 1 0 17.992191 0 8.996095 7.996529 0 1 0-17.992191 0Z" fill="#844A32" /><path d="M631.94794 476.793061a3.998265 3.998265 0 1 0 7.996529 0 3.998265 3.998265 0 1 0-7.996529 0Z" fill="#9E604A" /><path d="M623.95141 438.809546a15.993059 13.993926 0 1 0 31.986118 0 15.993059 13.993926 0 1 0-31.986118 0Z" fill="#7A442C" /><path d="M630.948374 438.809546a8.996095 7.996529 0 1 0 17.992191 0 8.996095 7.996529 0 1 0-17.992191 0Z" fill="#844A32" /><path d="M631.94794 431.812583a3.998265 3.998265 0 1 0 7.996529 0 3.998265 3.998265 0 1 0-7.996529 0Z" fill="#9E604A" /><path d="M618.95358 460.800002a15.993059 13.993926 0 1 0 31.986117 0 15.993059 13.993926 0 1 0-31.986117 0Z" fill="#7A442C" /><path d="M625.950543 460.800002a8.996095 7.996529 0 1 0 17.992191 0 8.996095 7.996529 0 1 0-17.992191 0Z" fill="#844A32" /><path d="M627.949675 453.803039a3.998265 3.998265 0 1 0 7.996529 0 3.998265 3.998265 0 1 0-7.996529 0Z" fill="#9E604A" /><path d="M498.006074 763.66855a15.993059 13.993926 0 1 0 31.986117 0 15.993059 13.993926 0 1 0-31.986117 0Z" fill="#7A442C" /><path d="M505.003037 763.66855a8.996095 7.996529 0 1 0 17.992191 0 8.996095 7.996529 0 1 0-17.992191 0Z" fill="#844A32" /><path d="M507.002169 756.671587a3.998265 3.998265 0 1 0 7.996529 0 3.998265 3.998265 0 1 0-7.996529 0Z" fill="#9E604A" /><path d="M471.017787 776.66291a15.993059 13.993926 0 1 0 31.986118 0 15.993059 13.993926 0 1 0-31.986118 0Z" fill="#7A442C" /><path d="M478.01475 776.66291a8.996095 7.996529 0 1 0 17.992191 0 8.996095 7.996529 0 1 0-17.992191 0Z" fill="#844A32" /><path d="M479.014317 769.665947a3.998265 3.998265 0 1 0 7.996529 0 3.998265 3.998265 0 1 0-7.996529 0Z" fill="#9E604A" /><path d="M471.017787 756.671587a15.993059 13.993926 0 1 0 31.986118 0 15.993059 13.993926 0 1 0-31.986118 0Z" fill="#7A442C" /><path d="M478.01475 756.671587a8.996095 7.996529 0 1 0 17.992191 0 8.996095 7.996529 0 1 0-17.992191 0Z" fill="#844A32" /><path d="M479.014317 749.674624a3.998265 3.998265 0 1 0 7.996529 0 3.998265 3.998265 0 1 0-7.996529 0Z" fill="#9E604A" /><path d="M444.029501 763.66855a15.993059 13.993926 0 1 0 31.986117 0 15.993059 13.993926 0 1 0-31.986117 0Z" fill="#7A442C" /><path d="M451.026464 763.66855a8.996095 7.996529 0 1 0 17.992191 0 8.996095 7.996529 0 1 0-17.992191 0Z" fill="#844A32" /><path d="M452.02603 757.671153a3.998265 3.998265 0 1 0 7.996529 0 3.998265 3.998265 0 1 0-7.996529 0Z" fill="#9E604A" /><path d="M444.029501 715.689374a15.993059 13.993926 0 1 0 31.986117 0 15.993059 13.993926 0 1 0-31.986117 0Z" fill="#7A442C" /><path d="M451.026464 715.689374a8.996095 7.996529 0 1 0 17.992191 0 8.996095 7.996529 0 1 0-17.992191 0Z" fill="#844A32" /><path d="M452.02603 708.692411a3.998265 3.998265 0 1 0 7.996529 0 3.998265 3.998265 0 1 0-7.996529 0Z" fill="#9E604A" /><path d="M418.040781 734.681131a15.993059 13.993926 0 1 0 31.986117 0 15.993059 13.993926 0 1 0-31.986117 0Z" fill="#7A442C" /><path d="M425.037744 734.681131a8.996095 7.996529 0 1 0 17.992191 0 8.996095 7.996529 0 1 0-17.992191 0Z" fill="#844A32" /><path d="M427.036876 728.683734a3.998265 3.998265 0 1 0 7.996529 0 3.998265 3.998265 0 1 0-7.996529 0Z" fill="#9E604A" /><path d="M429.036008 777.662476a15.993059 13.993926 0 1 0 31.986118 0 15.993059 13.993926 0 1 0-31.986118 0Z" fill="#7A442C" /><path d="M436.032971 777.662476a8.996095 7.996529 0 1 0 17.992191 0 8.996095 7.996529 0 1 0-17.992191 0Z" fill="#844A32" /><path d="M437.032538 770.665513a3.998265 3.998265 0 1 0 7.996529 0 3.998265 3.998265 0 1 0-7.996529 0Z" fill="#9E604A" /><path d="M444.029501 740.678528a15.993059 13.993926 0 1 0 31.986117 0 15.993059 13.993926 0 1 0-31.986117 0Z" fill="#7A442C" /><path d="M451.026464 740.678528a8.996095 7.996529 0 1 0 17.992191 0 8.996095 7.996529 0 1 0-17.992191 0Z" fill="#844A32" /><path d="M453.025596 733.681565a3.998265 3.998265 0 1 0 7.99653 0 3.998265 3.998265 0 1 0-7.99653 0Z" fill="#9E604A" /><path d="M493.008243 831.639049a15.993059 13.993926 0 1 0 31.986117 0 15.993059 13.993926 0 1 0-31.986117 0Z" fill="#7A442C" /><path d="M500.005206 831.639049a8.996095 7.996529 0 1 0 17.992191 0 8.996095 7.996529 0 1 0-17.992191 0Z" fill="#844A32" /><path d="M501.004772 824.642086a3.998265 3.998265 0 1 0 7.99653 0 3.998265 3.998265 0 1 0-7.99653 0Z" fill="#9E604A" /><path d="M416.041648 757.671153a15.993059 13.993926 0 1 0 31.986117 0 15.993059 13.993926 0 1 0-31.986117 0Z" fill="#7A442C" /><path d="M423.038611 757.671153a8.996095 7.996529 0 1 0 17.992191 0 8.996095 7.996529 0 1 0-17.992191 0Z" fill="#844A32" /><path d="M425.037744 750.67419a3.998265 3.998265 0 1 0 7.996529 0 3.998265 3.998265 0 1 0-7.996529 0Z" fill="#9E604A" /><path d="M450.026898 785.659006a15.993059 13.993926 0 1 0 31.986117 0 15.993059 13.993926 0 1 0-31.986117 0Z" fill="#7A442C" /><path d="M457.023861 785.659006a8.996095 7.996529 0 1 0 17.992191 0 8.996095 7.996529 0 1 0-17.992191 0Z" fill="#844A32" /><path d="M458.023427 779.661609a3.998265 3.998265 0 1 0 7.996529 0 3.998265 3.998265 0 1 0-7.996529 0Z" fill="#9E604A" /><path d="M474.016486 798.653366a15.993059 13.993926 0 1 0 31.986117 0 15.993059 13.993926 0 1 0-31.986117 0Z" fill="#7A442C" /><path d="M481.013449 798.653366a8.996095 7.996529 0 1 0 17.992191 0 8.996095 7.996529 0 1 0-17.992191 0Z" fill="#844A32" /><path d="M483.012581 791.656403a3.998265 3.998265 0 1 0 7.99653 0 3.998265 3.998265 0 1 0-7.99653 0Z" fill="#9E604A" /><path d="M466.019956 816.645557a15.993059 13.993926 0 1 0 31.986118 0 15.993059 13.993926 0 1 0-31.986118 0Z" fill="#7A442C" /><path d="M473.01692 816.645557a8.996095 7.996529 0 1 0 17.992191 0 8.996095 7.996529 0 1 0-17.992191 0Z" fill="#844A32" /><path d="M474.016486 810.64816a3.998265 3.998265 0 1 0 7.996529 0 3.998265 3.998265 0 1 0-7.996529 0Z" fill="#9E604A" /><path d="M503.003905 782.660307a15.993059 13.993926 0 1 0 31.986117 0 15.993059 13.993926 0 1 0-31.986117 0Z" fill="#7A442C" /><path d="M510.000868 782.660307a8.996095 7.996529 0 1 0 17.992191 0 8.996095 7.996529 0 1 0-17.992191 0Z" fill="#844A32" /><path d="M512 775.663344a3.998265 3.998265 0 1 0 7.996529 0 3.998265 3.998265 0 1 0-7.996529 0Z" fill="#9E604A" /><path d="M503.003905 809.648594a15.993059 13.993926 0 1 0 31.986117 0 15.993059 13.993926 0 1 0-31.986117 0Z" fill="#7A442C" /><path d="M510.000868 809.648594a8.996095 7.996529 0 1 0 17.992191 0 8.996095 7.996529 0 1 0-17.992191 0Z" fill="#844A32" /><path d="M512 802.65163a3.998265 3.998265 0 1 0 7.996529 0 3.998265 3.998265 0 1 0-7.996529 0Z" fill="#9E604A" /><path d="M525.993926 775.663344a15.993059 13.993926 0 1 0 31.986118 0 15.993059 13.993926 0 1 0-31.986118 0Z" fill="#7A442C" /><path d="M532.990889 775.663344a8.996095 7.996529 0 1 0 17.992191 0 8.996095 7.996529 0 1 0-17.992191 0Z" fill="#844A32" /><path d="M534.990022 768.666381a3.998265 3.998265 0 1 0 7.996529 0 3.998265 3.998265 0 1 0-7.996529 0Z" fill="#9E604A" /><path d="M525.993926 801.652064a15.993059 13.993926 0 1 0 31.986118 0 15.993059 13.993926 0 1 0-31.986118 0Z" fill="#7A442C" /><path d="M532.990889 801.652064a8.996095 7.996529 0 1 0 17.992191 0 8.996095 7.996529 0 1 0-17.992191 0Z" fill="#844A32" /><path d="M534.990022 795.654667a3.998265 3.998265 0 1 0 7.996529 0 3.998265 3.998265 0 1 0-7.996529 0Z" fill="#9E604A" /><path d="M525.993926 823.64252a15.993059 13.993926 0 1 0 31.986118 0 15.993059 13.993926 0 1 0-31.986118 0Z" fill="#7A442C" /><path d="M532.990889 823.64252a8.996095 7.996529 0 1 0 17.992191 0 8.996095 7.996529 0 1 0-17.992191 0Z" fill="#844A32" /><path d="M534.990022 816.645557a3.998265 3.998265 0 1 0 7.996529 0 3.998265 3.998265 0 1 0-7.996529 0Z" fill="#9E604A" /><path d="M550.98308 752.673322a15.993059 13.993926 0 1 0 31.986118 0 15.993059 13.993926 0 1 0-31.986118 0Z" fill="#7A442C" /><path d="M557.980044 752.673322a8.996095 7.996529 0 1 0 17.992191 0 8.996095 7.996529 0 1 0-17.992191 0Z" fill="#844A32" /><path d="M559.979176 746.675925a3.998265 3.998265 0 1 0 7.996529 0 3.998265 3.998265 0 1 0-7.996529 0Z" fill="#9E604A" /><path d="M573.973102 765.667682a15.993059 13.993926 0 1 0 31.986117 0 15.993059 13.993926 0 1 0-31.986117 0Z" fill="#7A442C" /><path d="M580.970065 765.667682a8.996095 7.996529 0 1 0 17.992191 0 8.996095 7.996529 0 1 0-17.992191 0Z" fill="#844A32" /><path d="M581.969632 758.670719a3.998265 3.998265 0 1 0 7.996529 0 3.998265 3.998265 0 1 0-7.996529 0Z" fill="#9E604A" /><path d="M557.980044 779.661609a15.993059 13.993926 0 1 0 31.986117 0 15.993059 13.993926 0 1 0-31.986117 0Z" fill="#7A442C" /><path d="M564.977007 779.661609a8.996095 7.996529 0 1 0 17.992191 0 8.996095 7.996529 0 1 0-17.992191 0Z" fill="#844A32" /><path d="M565.976573 772.664645a3.998265 3.998265 0 1 0 7.996529 0 3.998265 3.998265 0 1 0-7.996529 0Z" fill="#9E604A" /><path d="M547.984382 800.652498a15.993059 13.993926 0 1 0 31.986117 0 15.993059 13.993926 0 1 0-31.986117 0Z" fill="#7A442C" /><path d="M554.981345 800.652498a8.996095 7.996529 0 1 0 17.992191 0 8.996095 7.996529 0 1 0-17.992191 0Z" fill="#844A32" /><path d="M555.980911 793.655535a3.998265 3.998265 0 1 0 7.99653 0 3.998265 3.998265 0 1 0-7.99653 0Z" fill="#9E604A" /><path d="M600.961389 582.747074a15.993059 13.993926 0 1 0 31.986117 0 15.993059 13.993926 0 1 0-31.986117 0Z" fill="#7A442C" /><path d="M607.958352 582.747074a8.996095 7.996529 0 1 0 17.992191 0 8.996095 7.996529 0 1 0-17.992191 0Z" fill="#844A32" /><path d="M609.957484 575.750111a3.998265 3.998265 0 1 0 7.996529 0 3.998265 3.998265 0 1 0-7.996529 0Z" fill="#9E604A" /><path d="M623.95141 582.747074a15.993059 13.993926 0 1 0 31.986118 0 15.993059 13.993926 0 1 0-31.986118 0Z" fill="#7A442C" /><path d="M630.948374 582.747074a8.996095 7.996529 0 1 0 17.992191 0 8.996095 7.996529 0 1 0-17.992191 0Z" fill="#844A32" /><path d="M631.94794 575.750111a3.998265 3.998265 0 1 0 7.996529 0 3.998265 3.998265 0 1 0-7.996529 0Z" fill="#9E604A" /><path d="M567.975705 742.67766a15.993059 13.993926 0 1 0 31.986118 0 15.993059 13.993926 0 1 0-31.986118 0Z" fill="#7A442C" /><path d="M574.972668 742.67766a8.996095 7.996529 0 1 0 17.992191 0 8.996095 7.996529 0 1 0-17.992191 0Z" fill="#844A32" /><path d="M576.971801 735.680697a3.998265 3.998265 0 1 0 7.996529 0 3.998265 3.998265 0 1 0-7.996529 0Z" fill="#9E604A" /><path d="M588.966595 738.679396a15.993059 13.993926 0 1 0 31.986117 0 15.993059 13.993926 0 1 0-31.986117 0Z" fill="#7A442C" /><path d="M595.963558 738.679396a8.996095 7.996529 0 1 0 17.992191 0 8.996095 7.996529 0 1 0-17.992191 0Z" fill="#844A32" /><path d="M597.96269 731.682433a3.998265 3.998265 0 1 0 7.996529 0 3.998265 3.998265 0 1 0-7.996529 0Z" fill="#9E604A" /><path d="M530.991757 746.675925a15.993059 13.993926 0 1 0 31.986117 0 15.993059 13.993926 0 1 0-31.986117 0Z" fill="#7A442C" /><path d="M537.98872 746.675925a8.996095 7.996529 0 1 0 17.992191 0 8.996095 7.996529 0 1 0-17.992191 0Z" fill="#844A32" /><path d="M538.988286 739.678962a3.998265 3.998265 0 1 0 7.99653 0 3.998265 3.998265 0 1 0-7.99653 0Z" fill="#9E604A" /><path d="M549.983514 638.722779a15.993059 13.993926 0 1 0 31.986118 0 15.993059 13.993926 0 1 0-31.986118 0Z" fill="#7A442C" /><path d="M556.980477 638.722779a8.996095 7.996529 0 1 0 17.992191 0 8.996095 7.996529 0 1 0-17.992191 0Z" fill="#844A32" /><path d="M558.97961 631.725816a3.998265 3.998265 0 1 0 7.996529 0 3.998265 3.998265 0 1 0-7.996529 0Z" fill="#9E604A" /><path d="M559.979176 659.713669a15.993059 13.993926 0 1 0 31.986117 0 15.993059 13.993926 0 1 0-31.986117 0Z" fill="#7A442C" /><path d="M566.976139 659.713669a8.996095 7.996529 0 1 0 17.992191 0 8.996095 7.996529 0 1 0-17.992191 0Z" fill="#844A32" /><path d="M567.975705 652.716706a3.998265 3.998265 0 1 0 7.99653 0 3.998265 3.998265 0 1 0-7.99653 0Z" fill="#9E604A" /><path d="M581.969632 640.721912a15.993059 13.993926 0 1 0 31.986117 0 15.993059 13.993926 0 1 0-31.986117 0Z" fill="#7A442C" /><path d="M588.966595 640.721912a8.996095 7.996529 0 1 0 17.992191 0 8.996095 7.996529 0 1 0-17.992191 0Z" fill="#844A32" /><path d="M589.966161 633.724949a3.998265 3.998265 0 1 0 7.996529 0 3.998265 3.998265 0 1 0-7.996529 0Z" fill="#9E604A" /><path d="M597.96269 626.727985a15.993059 13.993926 0 1 0 31.986117 0 15.993059 13.993926 0 1 0-31.986117 0Z" fill="#7A442C" /><path d="M604.959653 626.727985a8.996095 7.996529 0 1 0 17.992191 0 8.996095 7.996529 0 1 0-17.992191 0Z" fill="#844A32" /><path d="M606.958786 619.731022a3.998265 3.998265 0 1 0 7.996529 0 3.998265 3.998265 0 1 0-7.996529 0Z" fill="#9E604A" /><path d="M617.954013 608.735794a15.993059 13.993926 0 1 0 31.986118 0 15.993059 13.993926 0 1 0-31.986118 0Z" fill="#7A442C" /><path d="M624.950977 608.735794a8.996095 7.996529 0 1 0 17.992191 0 8.996095 7.996529 0 1 0-17.992191 0Z" fill="#844A32" /><path d="M626.950109 601.738831a3.998265 3.998265 0 1 0 7.996529 0 3.998265 3.998265 0 1 0-7.996529 0Z" fill="#9E604A" /><path d="M581.969632 667.710198a15.993059 13.993926 0 1 0 31.986117 0 15.993059 13.993926 0 1 0-31.986117 0Z" fill="#7A442C" /><path d="M588.966595 667.710198a8.996095 7.996529 0 1 0 17.992191 0 8.996095 7.996529 0 1 0-17.992191 0Z" fill="#844A32" /><path d="M589.966161 660.71323" fill="#9E604A" /></svg>