<svg class="svg-icon" style="width: 1em; height: 1em;vertical-align: middle;fill: currentColor;overflow: hidden;" viewBox="0 0 1024 1024" version="1.1" xmlns="http://www.w3.org/2000/svg"><path d="M336.441014 351.117971l35.563396-106.125689S226.363837 366.359427 224.105843 519.902977l112.335171-168.785006z m324.022051 324.586549l106.125689-35.563395s-121.367144 145.640573-274.910694 147.898566l168.785005-112.335171z m0 0" fill="#66ED4A" /><path d="M662.15656 349.424476c64.91731 64.91731 83.545755 243.298787-48.546858 375.391401-90.319735 90.319735-233.137817 86.932745-323.457552-3.386991s-93.706725-233.137817-3.38699-323.457552c130.963616-130.399118 310.47409-113.464168 375.3914-48.546858z m0 0" fill="#F71953" /><path d="M561.111356 557.724366s46.853363-10.16097 74.513782-74.513782c25.966924 76.771775-23.144432 125.883131-23.144432 125.883132m-188.542448 137.173098c-21.450937-53.062845-18.628445-112.899669 7.902977-164.269019l1.693495-3.38699-3.38699 1.693495c-50.804851 25.966924-110.641676 28.789416-164.269019 7.902977m347.730981-270.959206s95.400221-15.241455 149.027564-67.739802c-48.546858 59.272326-67.739802 149.027563-67.739802 149.027563l-81.287762-81.287761z m102.738699 160.31753l84.110254-84.110254s-23.144432 116.286659-102.174201 195.316428l18.063947-111.206174z m-284.507166 49.111356s11.854465-49.111356 74.513782-74.513782c-76.771775-25.966924-125.883131 23.144432-125.883132 23.144432m-1.128996-99.351708l29.918412-29.918413C461.759647 292.974642 530.628445 259.104741 604.01323 249.508269l-27.09592 20.886439c-29.353914 22.579934-54.75634 50.804851-73.949284 82.416758l-123.625137 23.144433z m0 0" fill="#6ACE55" /><path d="M325.151047 736.105843c-3.951488-2.822492-9.031974-3.38699-12.983462-0.564498-3.951488 2.257993-6.209482 7.338479-5.644983 11.854465 0.564498 4.515987 3.951488 8.467475 9.031974 9.596472 4.515987 1.128997 9.596472-0.564498 12.418963-4.515987 1.693495-2.257993 2.822492-5.644983 2.257994-9.031973-0.564498-2.822492-2.257993-5.644983-5.080486-7.338479zM558.853363 545.869901l3.951488 23.144432c1.693495-0.564498 37.256891-7.338479 67.739802-53.062845 1.693495 18.063947-0.564498 36.692393-7.902977 53.062845-7.902977 19.757442-19.192944 31.047409-19.192944 31.047409-3.38699 2.822492-5.080485 7.338479-3.951488 11.854465 1.128997 4.515987 4.515987 7.902977 8.467475 8.467475 4.515987 1.128997 9.031974-0.564498 11.854465-3.951488 2.257993-2.257993 54.191841-55.320838 25.966924-138.302095-1.693495-4.515987-5.644983-7.902977-10.725469-7.902977-5.080485 0-9.031974 2.257993-11.289966 6.773981C598.368247 537.966924 560.546858 545.869901 558.853363 545.869901z m-47.417861-83.545755c4.515987-2.257993 6.77398-6.77398 6.77398-11.289967-0.564498-4.515987-3.38699-9.031974-7.902977-10.160971-82.981257-28.224917-136.044101 23.708931-138.302095 25.966924-3.951488 4.515987-3.951488 11.854465 0.564498 15.805954 4.515987 4.515987 11.289967 4.515987 15.805954 0.564498 0 0 11.289967-11.289967 31.611908-19.192943 17.499449-6.77398 36.127894-9.596472 54.191841-7.338479-46.853363 31.611907-54.191841 66.046307-54.191841 67.739802l23.144432 4.515986c0.564498-1.128997 9.031974-37.256891 68.3043-66.610804z m0 0" fill="" /><path d="M811.748622 396.277839c1.128997-5.080485-1.693495-10.16097-6.209482-12.418964-4.515987-2.257993-10.16097-1.693495-13.54796 2.257994l-70.562294 70.562293c-2.822492-19.192944-7.338479-38.385888-14.676957-57.014333 2.822492-12.983462 22.579934-90.884234 64.91731-142.253583 3.951488-5.080485 2.822492-11.854465-1.693495-15.805954-4.515987-3.951488-11.289967-3.951488-15.805953 0-47.417861 46.288864-131.528115 62.659316-141.689085 64.352812-14.112459-5.644983-29.353914-9.596472-44.030871-12.418964 5.080485-4.515987 10.725469-9.031974 15.805953-12.983462l27.095921-20.886439c3.951488-3.38699 5.644983-9.031974 3.38699-13.54796-2.257993-5.080485-7.338479-7.902977-12.418964-7.338479-53.627343 7.338479-104.996692 26.531422-149.592061 57.014333h-0.564499c-33.869901 6.77398-66.610805 19.192944-96.529217 36.127895l27.660419-82.416759c1.693495-5.080485 0-10.725469-4.515987-13.54796s-10.16097-2.822492-14.112458 0.564498c-1.693495 1.128997-37.821389 31.611907-75.07828 81.85226-34.434399 46.288864-75.642778 118.544653-77.336274 200.961412-2.257993 12.418964-2.822492 24.837927-2.822492 37.821389 0 62.094818 23.708931 121.367144 67.175304 167.656009 2.822492 3.38699 7.338479 5.080485 11.854465 3.951488 4.515987-1.128997 7.902977-3.951488 9.031973-8.467475 1.128997-4.515987 0-9.031974-3.38699-11.854466-81.85226-87.497244-81.287762-219.589857 1.128997-302.006615 32.176406-32.176406 69.433297-57.014333 110.077178-72.820286l-3.951489 3.951488-29.918412 29.918412c-3.38699 2.822492-5.080485 7.338479-3.951489 11.854466 1.128997 4.515987 4.515987 7.902977 8.467476 8.467475 4.515987 1.128997 9.031974-0.564498 11.854465-3.951489l29.918412-29.918412c38.950386-38.950386 86.932745-67.175303 139.431092-82.416758-24.837927 21.450937-46.853363 46.853363-63.788313 75.07828-2.822492 5.644983-1.128997 12.418964 4.515986 15.241455 5.080485 3.38699 11.854465 1.693495 15.805954-3.38699 10.16097-16.370452 21.450937-31.047409 34.434399-45.159868 44.595369 5.080485 83.545755 21.450937 106.690188 44.595369 31.611907 31.611907 49.675854 90.884234 46.288864 153.543551-3.951488 75.07828-37.821389 147.898567-94.835722 204.912899-65.481808 65.481808-165.962514 81.287762-248.943771 38.385888-5.644983-2.257993-11.854465 0-14.676957 5.644983s-1.128997 11.854465 3.951489 15.241456c44.030871 22.579934 94.271224 31.047409 143.382579 24.273429 1.128997 0 2.822492-0.564498 3.951489-0.564499 81.85226-1.693495 154.672547-42.901874 200.961411-77.336273 50.240353-37.256891 80.723264-73.384785 81.85226-75.07828 3.38699-3.951488 3.38699-9.596472 0.564499-14.112459s-8.467475-6.209482-13.547961-4.515987l-82.416758 27.660419c10.725469-19.192944 19.757442-38.950386 26.531422-59.836824 79.594267-80.158765 102.738699-195.316428 103.867696-199.832415zM278.862183 389.503859c-5.080485 5.080485-9.596472 10.16097-14.112459 15.805954 12.418964-25.966924 27.095921-50.240353 44.030871-72.820287 11.289967-15.805954 24.273429-30.482911 37.256891-45.159868l-20.32194 59.836825c-0.564498 1.128997-0.564498 2.257993-0.564499 3.38699-16.93495 11.854465-32.176406 24.837927-46.288864 38.950386z m445.389195 96.529217l51.933848-51.933848c-10.16097 30.482911-28.224917 72.255788-56.449835 111.206174 1.693495-10.725469 2.822492-21.450937 3.38699-32.176405 1.128997-9.031974 1.128997-18.063947 1.128997-27.095921 0 0.564498 0 0 0 0zM645.786108 321.764057c20.32194-5.644983 47.417861-14.112459 74.513782-28.224917-14.112459 27.095921-23.708931 54.191841-29.353914 73.949283-5.644983-9.596472-12.418964-18.063947-20.321941-25.966924-7.338479-7.902977-15.805954-14.112459-24.837927-19.757442z m18.628445 365.23043l60.401324-20.32194c-14.112459 12.983462-29.353914 25.402426-45.159868 37.256891-23.144432 16.93495-47.417861 31.611907-73.384785 44.030871 5.644983-4.515987 10.725469-9.596472 15.805954-14.112459 14.112459-14.112459 27.095921-29.353914 38.950385-45.724366 1.128997-1.128997 2.257993-1.128997 3.38699-1.128997z m0 0" fill="" /><path d="M270.394708 576.91731c-3.951488-1.693495-8.467475-1.693495-12.418964 1.128997-3.38699 2.822492-5.080485 7.338479-4.515987 11.289966 0.564498 4.515987 3.951488 7.902977 7.902977 9.031974 47.417861 19.192944 100.480706 19.757442 149.027564 2.822492-17.499449 47.982359-16.370452 101.045204 2.822491 149.027563 2.822492 5.644983 9.031974 7.902977 15.241456 5.644984 5.644983-2.257993 9.031974-8.467475 6.77398-14.676957-19.757442-50.240353-17.499449-106.125689 7.338478-154.108049l1.693495-3.38699c2.257993-4.515987 1.128997-10.16097-2.257993-13.54796-3.38699-3.38699-9.031974-4.515987-13.54796-2.257994l-3.38699 1.693495c-48.546858 24.837927-104.432194 27.660419-154.672547 7.338479z m0 0" fill="" /><path d="M308.216097 452.727674c10.725469-13.54796 25.966924-24.273429 44.595369-32.176406 5.080485-2.257993 7.902977-7.902977 7.902977-13.54796 0-1.693495 0-3.38699-0.564498-5.080486-2.257993-7.338479-9.031974-11.289967-15.241455-9.031973-21.450937 9.596472-40.079383 23.144432-53.062845 39.514884-9.596472 11.289967-17.499449 25.966924-24.273429 43.466373-2.822492 7.338479-0.564498 15.805954 5.644984 19.192944 5.644983 3.38699 12.983462 0.564498 15.805953-6.773981 5.080485-14.112459 11.289967-25.966924 19.192944-35.563395z m-47.982359 55.885336c-6.77398-1.693495-12.983462 2.822492-14.676957 9.031973-1.128997 6.209482 2.822492 12.418964 9.031973 14.112459 6.209482 1.693495 12.418964-2.257993 14.112459-8.467475 1.693495-6.77398-2.257993-12.983462-8.467475-14.676957z m0 0" fill="#FFFFFF" /></svg>